<svg xmlns="http://www.w3.org/2000/svg" xmlns:xlink="http://www.w3.org/1999/xlink" style="margin: auto;  display: block;" width="204px" height="204px" viewBox="0 0 100 100" preserveAspectRatio="xMidYMid">
 <g transform="translate(50 50)">  <g transform="translate(-19 -19) scale(0.6)"> <g>
<animateTransform attributeName="transform" type="rotate" values="0;36" keyTimes="0;1" dur="1.282051282051282s" begin="0s" repeatCount="indefinite"></animateTransform><path d="M30.775639009962486 22.290357635723915 L36.432493259454866 27.947211885216294 L27.947211885216294 36.43249325945486 L22.290357635723915 30.775639009962482 A38 38 0 0 1 11.796071485204802 36.122744877928895 L11.796071485204802 36.122744877928895 L13.04754720552665 44.02425160268999 L1.1952871183849885 45.90146518317277 L-0.05618860193685889 37.99995845841167 A38 38 0 0 1 -11.689194413177665 36.15747134370621 L-11.689194413177665 36.15747134370621 L-15.321118411094039 43.28552353721316 L-26.013196701354463 37.8376375403386 L-22.38127270343809 30.709585346831652 A38 38 0 0 1 -30.709585346831645 22.381272703438093 L-30.709585346831645 22.381272703438093 L-37.837637540338584 26.013196701354467 L-43.28552353721315 15.321118411094048 L-36.15747134370621 11.689194413177672 A38 38 0 0 1 -37.99995845841167 0.05618860193686587 L-37.99995845841167 0.05618860193686587 L-45.90146518317277 -1.19528711838498 L-44.02425160268999 -13.04754720552664 L-36.122744877928895 -11.796071485204795 A38 38 0 0 1 -30.77563900996249 -22.290357635723904 L-30.77563900996249 -22.290357635723904 L-36.43249325945487 -27.947211885216284 L-27.947211885216294 -36.43249325945486 L-22.290357635723915 -30.775639009962482 A38 38 0 0 1 -11.796071485204807 -36.122744877928895 L-11.796071485204807 -36.122744877928895 L-13.047547205526655 -44.02425160268999 L-1.195287118384994 -45.90146518317277 L0.05618860193685424 -37.99995845841167 A38 38 0 0 1 11.689194413177662 -36.15747134370621 L11.689194413177662 -36.15747134370621 L15.321118411094034 -43.28552353721316 L26.013196701354456 -37.8376375403386 L22.381272703438082 -30.709585346831656 A38 38 0 0 1 30.70958534683164 -22.381272703438096 L30.70958534683164 -22.381272703438096 L37.837637540338584 -26.013196701354474 L43.28552353721315 -15.321118411094051 L36.15747134370621 -11.689194413177676 A38 38 0 0 1 37.99995845841167 -0.056188601936870516 L37.99995845841167 -0.056188601936870516 L45.90146518317277 1.1952871183849743 L44.02425160268999 13.047547205526634 L36.122744877928895 11.79607148520479 A38 38 0 0 1 30.77563900996249 22.2903576357239 M0 -22A22 22 0 1 0 0 22 A22 22 0 1 0 0 -22" fill="#018755"></path></g></g> <g transform="translate(19 19) scale(0.6)"> <g>
<animateTransform attributeName="transform" type="rotate" values="36;0" keyTimes="0;1" dur="1.282051282051282s" begin="-0.641025641025641s" repeatCount="indefinite"></animateTransform><path d="M-30.77563900996249 -22.290357635723904 L-36.43249325945487 -27.947211885216284 L-27.947211885216294 -36.43249325945486 L-22.290357635723915 -30.775639009962482 A38 38 0 0 1 -11.796071485204807 -36.122744877928895 L-11.796071485204807 -36.122744877928895 L-13.047547205526655 -44.02425160268999 L-1.195287118384994 -45.90146518317277 L0.05618860193685424 -37.99995845841167 A38 38 0 0 1 11.689194413177662 -36.15747134370621 L11.689194413177662 -36.15747134370621 L15.321118411094034 -43.28552353721316 L26.013196701354456 -37.8376375403386 L22.381272703438082 -30.709585346831656 A38 38 0 0 1 30.70958534683164 -22.381272703438096 L30.70958534683164 -22.381272703438096 L37.837637540338584 -26.013196701354474 L43.28552353721315 -15.321118411094051 L36.15747134370621 -11.689194413177676 A38 38 0 0 1 37.99995845841167 -0.056188601936870516 L37.99995845841167 -0.056188601936870516 L45.90146518317277 1.1952871183849743 L44.02425160268999 13.047547205526634 L36.122744877928895 11.79607148520479 A38 38 0 0 1 30.77563900996249 22.2903576357239 L30.77563900996249 22.2903576357239 L36.43249325945487 27.94721188521628 L27.947211885216298 36.43249325945486 L22.290357635723918 30.775639009962482 A38 38 0 0 1 11.796071485204811 36.12274487792889 L11.796071485204811 36.12274487792889 L13.04754720552666 44.024251602689986 L1.195287118385 45.90146518317277 L-0.05618860193684958 37.99995845841167 A38 38 0 0 1 -11.68919441317772 36.15747134370619 L-11.68919441317772 36.15747134370619 L-15.321118411094098 43.28552353721313 L-26.013196701354456 37.8376375403386 L-22.38127270343808 30.709585346831656 A38 38 0 0 1 -30.70958534683168 22.381272703438047 L-30.70958534683168 22.381272703438047 L-37.837637540338626 26.013196701354417 L-43.28552353721316 15.32111841109405 L-36.15747134370621 11.68919441317768 A38 38 0 0 1 -37.99995845841167 0.05618860193680767 L-37.99995845841167 0.05618860193680767 L-45.90146518317277 -1.1952871183850433 L-44.02425160268999 -13.047547205526637 L-36.122744877928895 -11.796071485204786 A38 38 0 0 1 -30.775639009962457 -22.29035763572395 M0 -22A22 22 0 1 0 0 22 A22 22 0 1 0 0 -22" fill="#ada679"></path></g></g></g>
</svg>