<svg width="82" height="82" viewBox="0 0 82 82" fill="none" xmlns="http://www.w3.org/2000/svg">
<rect width="82" height="82" rx="5" fill="#EB5757" fill-opacity="0.15"/>
<path d="M49.3333 21H32.6667L21 32.6667V49.3333L32.6667 61H49.3333L61 49.3333V32.6667L49.3333 21Z" fill="#E83628"/>
<path opacity="0.1" d="M32.6667 60.5832L21 48.9165V49.3332L32.6667 60.9998H49.3333L61 49.3332V48.9165L49.3333 60.5832H32.6667Z" fill="black"/>
<path opacity="0.2" d="M49.3333 21H32.6667L21 32.6667V33.0833L32.6667 21.4167H49.3333L61 33.0833V32.6667L49.3333 21Z" fill="white"/>
<path d="M39.3333 27.6665H42.6666V49.3332H39.3333V27.6665Z" fill="white"/>
<path d="M40.9999 54.3333C41.9204 54.3333 42.6666 53.5871 42.6666 52.6667C42.6666 51.7462 41.9204 51 40.9999 51C40.0794 51 39.3333 51.7462 39.3333 52.6667C39.3333 53.5871 40.0794 54.3333 40.9999 54.3333Z" fill="white"/>
<path d="M60.9999 48.4215L42.6666 27.6665V49.3332H39.3333L40.9999 50.9998C41.274 50.9998 41.5439 51.0673 41.7857 51.1965C42.0275 51.3257 42.2336 51.5125 42.3859 51.7404C42.5383 51.9683 42.632 52.2302 42.6589 52.503C42.6858 52.7758 42.645 53.051 42.5401 53.3043C42.4352 53.5575 42.2695 53.781 42.0576 53.9549C41.8457 54.1288 41.5942 54.2477 41.3253 54.3012C41.0565 54.3546 40.7786 54.341 40.5163 54.2614C40.254 54.1818 40.0154 54.0387 39.8216 53.8448L46.9766 60.9998H49.3333L60.9999 49.3332V48.4215Z" fill="url(#paint0_linear_3151_57955)"/>
<path d="M49.3333 21H32.6667L21 32.6667V49.3333L32.6667 61H49.3333L61 49.3333V32.6667L49.3333 21Z" fill="url(#paint1_linear_3151_57955)"/>
<defs>
<linearGradient id="paint0_linear_3151_57955" x1="36.4666" y1="35.9782" x2="52.2999" y2="51.8115" gradientUnits="userSpaceOnUse">
<stop stop-opacity="0.1"/>
<stop offset="1" stop-opacity="0"/>
</linearGradient>
<linearGradient id="paint1_linear_3151_57955" x1="21.38" y1="31.8517" x2="60.62" y2="50.1483" gradientUnits="userSpaceOnUse">
<stop stop-color="white" stop-opacity="0.2"/>
<stop offset="1" stop-color="white" stop-opacity="0"/>
</linearGradient>
</defs>
</svg>