<svg width="82" height="82" viewBox="0 0 82 82" fill="none" xmlns="http://www.w3.org/2000/svg">
<rect width="82" height="82" rx="5" fill="#5BB647" fill-opacity="0.15"/>
<path d="M41 21C29.9717 21 21 29.9717 21 41C21 52.0283 29.9717 61 41 61C52.0283 61 61 52.0283 61 41C61 29.9717 52.0283 21 41 21Z" fill="#69B342"/>
<path opacity="0.2" d="M41 21.4167C51.9583 21.4167 60.8767 30.2767 60.99 41.2083C60.99 41.1383 61 41.07 61 41C61 29.9717 52.0283 21 41 21C29.9717 21 21 29.9717 21 41C21 41.07 21.01 41.1383 21.01 41.2083C21.1233 30.2767 30.0433 21.4167 41 21.4167Z" fill="white"/>
<path opacity="0.1" d="M41 60.5832C30.0417 60.5832 21.1233 51.7232 21.01 40.7915C21.01 40.8615 21 40.9298 21 40.9998C21 52.0282 29.9717 60.9998 41 60.9998C52.0283 60.9998 61 52.0282 61 40.9998C61 40.9298 60.99 40.8615 60.99 40.7915C60.8767 51.7232 51.9567 60.5832 41 60.5832Z" fill="black"/>
<path d="M36.8334 50.8565L27.6667 41.6898L30.0234 39.3332L36.8334 46.1432L50.3101 32.6665L52.6667 35.0232L36.8334 50.8565Z" fill="white"/>
<path d="M52.6666 35.0232L36.8333 50.8565L46.2533 60.2765C54.0433 58.1498 59.9533 51.4398 60.8699 43.2265L52.6666 35.0215V35.0232Z" fill="url(#paint0_linear_3151_57942)"/>
<path d="M41 21C29.9717 21 21 29.9717 21 41C21 52.0283 29.9717 61 41 61C52.0283 61 61 52.0283 61 41C61 29.9717 52.0283 21 41 21Z" fill="url(#paint1_linear_3151_57942)"/>
<defs>
<linearGradient id="paint0_linear_3151_57942" x1="45.3449" y1="43.5348" x2="54.2749" y2="52.4648" gradientUnits="userSpaceOnUse">
<stop stop-opacity="0.1"/>
<stop offset="1" stop-opacity="0"/>
</linearGradient>
<linearGradient id="paint1_linear_3151_57942" x1="22.875" y1="32.5483" x2="59.125" y2="49.4517" gradientUnits="userSpaceOnUse">
<stop stop-color="white" stop-opacity="0.2"/>
<stop offset="1" stop-color="white" stop-opacity="0"/>
</linearGradient>
</defs>
</svg>
