<svg width="50" height="50" viewBox="0 0 50 50" fill="none" xmlns="http://www.w3.org/2000/svg">
<circle opacity="0.15" cx="25" cy="25" r="25" fill="#1A8451"/>
<path d="M25 34C29.9706 34 34 29.9706 34 25C34 20.0294 29.9706 16 25 16C20.0294 16 16 20.0294 16 25C16 29.9706 20.0294 34 25 34Z" stroke="#1A8451" stroke-width="1.5" stroke-miterlimit="10" stroke-linecap="round" stroke-linejoin="round"/>
<path d="M21 24.83L23.83 27.66L29.5 22" stroke="#1A8451" stroke-width="1.5" stroke-linecap="round" stroke-linejoin="round"/>
<path d="M8.33325 26.4667V23.5334C8.33325 21.8001 9.74992 20.3667 11.4999 20.3667C14.5166 20.3667 15.7499 18.2334 14.2333 15.6167C13.3666 14.1167 13.8833 12.1667 15.3999 11.3001L18.2833 9.65006C19.5999 8.86672 21.2999 9.33339 22.0833 10.6501L22.2666 10.9667C23.7666 13.5834 26.2333 13.5834 27.7499 10.9667L27.9333 10.6501C28.7166 9.33339 30.4166 8.86672 31.7333 9.65006L34.6166 11.3001C36.1333 12.1667 36.6499 14.1167 35.7833 15.6167C34.2666 18.2334 35.4999 20.3667 38.5166 20.3667C40.2499 20.3667 41.6833 21.7834 41.6833 23.5334V26.4667C41.6833 28.2001 40.2666 29.6334 38.5166 29.6334C35.4999 29.6334 34.2666 31.7667 35.7833 34.3834C36.6499 35.9001 36.1333 37.8334 34.6166 38.7001L31.7333 40.3501C30.4166 41.1334 28.7166 40.6667 27.9333 39.3501L27.7499 39.0334C26.2499 36.4167 23.7833 36.4167 22.2666 39.0334L22.0833 39.3501C21.2999 40.6667 19.5999 41.1334 18.2833 40.3501L15.3999 38.7001C13.8833 37.8334 13.3666 35.8834 14.2333 34.3834C15.7499 31.7667 14.5166 29.6334 11.4999 29.6334C9.74992 29.6334 8.33325 28.2001 8.33325 26.4667Z" stroke="#1A8451" stroke-width="1.5" stroke-miterlimit="10" stroke-linecap="round" stroke-linejoin="round"/>
</svg>
