<svg width="27" height="27" viewBox="0 0 27 27" fill="none" xmlns="http://www.w3.org/2000/svg">
<path d="M16.1846 18.6028C14.5233 18.6028 13.1794 17.3116 13.1794 15.6898C13.1794 14.0681 14.5233 12.7666 16.1846 12.7666C17.8459 12.7666 19.158 14.0681 19.158 15.6898C19.158 17.3116 17.8459 18.6028 16.1846 18.6028Z" fill="#2A347B"/>
<path opacity="0.4" d="M25.7293 18.1277C25.5282 17.8178 25.2425 17.5079 24.8722 17.3116C24.5759 17.167 24.3854 16.9294 24.2161 16.6505C23.6765 15.7622 23.9939 14.595 24.8933 14.0682C25.9515 13.4794 26.2901 12.1675 25.6764 11.1449L24.9674 9.92605C24.3643 8.90343 23.0416 8.5419 21.994 9.14101C21.0628 9.63683 19.8671 9.30628 19.3274 8.42828C19.1581 8.13905 19.0629 7.82917 19.0841 7.51929C19.1158 7.11644 18.9888 6.73425 18.7984 6.42436C18.4068 5.78394 17.6979 5.3501 16.9148 5.3501H15.4228C14.6504 5.37076 13.9414 5.78394 13.5499 6.42436C13.3488 6.73425 13.2324 7.11644 13.2536 7.51929C13.2748 7.82917 13.1795 8.13905 13.0102 8.42828C12.4706 9.30628 11.2749 9.63683 10.3543 9.14101C9.2961 8.5419 7.98399 8.90343 7.37026 9.92605L6.66129 11.1449C6.05814 12.1675 6.39675 13.4794 7.44433 14.0682C8.34376 14.595 8.66121 15.7622 8.13213 16.6505C7.95224 16.9294 7.76178 17.167 7.46549 17.3116C7.10572 17.5079 6.78827 17.8178 6.61896 18.1277C6.22745 18.7681 6.24861 19.5738 6.64013 20.2452L7.37026 21.4847C7.76178 22.1458 8.4919 22.559 9.25378 22.559C9.61355 22.559 10.0368 22.4557 10.3754 22.2491C10.64 22.0735 10.9574 22.0115 11.3066 22.0115C12.3542 22.0115 13.2324 22.8689 13.2536 23.8915C13.2536 25.0794 14.2271 26.009 15.4546 26.009H16.8937C18.1106 26.009 19.0841 25.0794 19.0841 23.8915C19.1158 22.8689 19.9941 22.0115 21.0417 22.0115C21.3803 22.0115 21.6977 22.0735 21.9728 22.2491C22.3114 22.4557 22.7241 22.559 23.0945 22.559C23.8458 22.559 24.5759 22.1458 24.9674 21.4847L25.7081 20.2452C26.0891 19.5531 26.1208 18.7681 25.7293 18.1277Z" fill="#2A347B"/>
<path d="M8.34733 5.68623C8.26645 5.56158 8.15153 5.43692 8.00255 5.35798C7.88337 5.29981 7.80675 5.20424 7.73865 5.09205C7.52157 4.73471 7.64926 4.26519 8.01106 4.05328C8.43671 3.81644 8.57292 3.28874 8.32604 2.87739L8.04086 2.38709C7.79824 1.97574 7.26618 1.83031 6.84478 2.0713C6.47021 2.27075 5.98923 2.13778 5.77214 1.7846C5.70404 1.66826 5.66573 1.54361 5.67425 1.41895C5.68702 1.25691 5.63594 1.10317 5.55932 0.978516C5.40183 0.7209 5.11664 0.546387 4.80166 0.546387H4.2015C3.89077 0.554697 3.60559 0.7209 3.4481 0.978516C3.36722 1.10317 3.3204 1.25691 3.32891 1.41895C3.33743 1.54361 3.29912 1.66826 3.23102 1.7846C3.01393 2.13778 2.53295 2.27075 2.16263 2.0713C1.73698 1.83031 1.20918 1.97574 0.962302 2.38709L0.677116 2.87739C0.434496 3.28874 0.570704 3.81644 0.992097 4.05328C1.3539 4.26519 1.48159 4.73471 1.26877 5.09205C1.19641 5.20424 1.11979 5.29981 1.00061 5.35798C0.855889 5.43692 0.728194 5.56158 0.66009 5.68623C0.5026 5.94384 0.511113 6.26794 0.668603 6.53802L0.962302 7.03663C1.11979 7.30256 1.41349 7.46876 1.71996 7.46876C1.86468 7.46876 2.03494 7.42721 2.17115 7.34411C2.27756 7.27347 2.40525 7.24854 2.54572 7.24854C2.96711 7.24854 3.3204 7.59341 3.32891 8.00477C3.32891 8.4826 3.72051 8.85656 4.21427 8.85656H4.79315C5.28265 8.85656 5.67425 8.4826 5.67425 8.00477C5.68702 7.59341 6.0403 7.24854 6.4617 7.24854C6.59791 7.24854 6.7256 7.27347 6.83627 7.34411C6.97248 7.42721 7.13848 7.46876 7.28746 7.46876C7.58967 7.46876 7.88337 7.30256 8.04086 7.03663L8.33881 6.53802C8.49205 6.25963 8.50482 5.94384 8.34733 5.68623Z" fill="#2A347B"/>
<path d="M4.50792 5.87741C3.83965 5.87741 3.29907 5.35802 3.29907 4.70568C3.29907 4.05333 3.83965 3.52979 4.50792 3.52979C5.17619 3.52979 5.70399 4.05333 5.70399 4.70568C5.70399 5.35802 5.17619 5.87741 4.50792 5.87741Z" fill="#D5D8E0"/>
</svg>
