<svg width="23" height="23" viewBox="0 0 23 23" fill="none" xmlns="http://www.w3.org/2000/svg">
<path opacity="0.4" d="M16.491 0H6.5205C2.622 0 0 2.737 0 6.808V16.2035C0 20.263 2.622 23 6.5205 23H16.491C20.3895 23 23 20.263 23 16.2035V6.808C23 2.737 20.3895 0 16.491 0Z" fill="#2A347B"/>
<path d="M15.6094 15.8864C15.4588 15.8864 15.307 15.8473 15.1678 15.7657L10.6529 13.0724C10.393 12.916 10.2332 12.6342 10.2332 12.3306V6.52656C10.2332 6.05046 10.6196 5.66406 11.0957 5.66406C11.5718 5.66406 11.9582 6.05046 11.9582 6.52656V11.8407L16.0522 14.2822C16.4604 14.5271 16.595 15.0561 16.3512 15.4655C16.189 15.7358 15.9027 15.8864 15.6094 15.8864Z" fill="#2A347B"/>
</svg>
