<svg width="82" height="82" viewBox="0 0 54 54" fill="none" xmlns="http://www.w3.org/2000/svg">
<rect width="82" height="82" rx="5" fill="#f4a55e" fill-opacity="0.15"/>
<path d="M22.6699 7.5C24.5944 4.16666 29.4056 4.16667 31.3301 7.5L46.0526 33C47.9771 36.3333 45.5714 40.5 41.7224 40.5H12.2776C8.42856 40.5 6.02294 36.3333 7.94744 33L22.6699 7.5Z" fill="#FF9D55"/>
<path d="M27.3857 23.8426C26.8374 23.8426 26.3014 24.0052 25.8455 24.3099C25.3896 24.6145 25.0343 25.0475 24.8244 25.554C24.6146 26.0606 24.5597 26.618 24.6667 27.1558C24.7736 27.6936 25.0377 28.1876 25.4254 28.5753C25.8131 28.963 26.3071 29.227 26.8449 29.334C27.3827 29.441 27.9401 29.3861 28.4467 29.1762C28.9532 28.9664 29.3862 28.6111 29.6908 28.1552C29.9955 27.6993 30.1581 27.1633 30.1581 26.615C30.1559 25.8804 29.8631 25.1765 29.3436 24.6571C28.8242 24.1376 28.1203 23.8448 27.3857 23.8426V23.8426ZM33.3712 26.615C33.3697 26.874 33.3507 27.1326 33.3143 27.3891L35.0016 28.7101C35.0751 28.7708 35.1247 28.8557 35.1413 28.9495C35.158 29.0433 35.1408 29.14 35.0928 29.2223L33.4966 31.978C33.4481 32.0596 33.3724 32.1214 33.2827 32.1527C33.1931 32.1839 33.0953 32.1826 33.0066 32.1489L31.0227 31.3518C30.6096 31.6699 30.1575 31.9339 29.6774 32.1374L29.3808 34.2437C29.3642 34.338 29.3153 34.4237 29.2426 34.486C29.1698 34.5483 29.0777 34.5835 28.9819 34.5854H25.7896C25.6955 34.5835 25.6049 34.5499 25.5325 34.4899C25.46 34.4299 25.41 34.3472 25.3907 34.2551L25.0941 32.1489C24.6127 31.9477 24.1603 31.6833 23.7488 31.3626L21.7648 32.1596C21.6762 32.1934 21.5784 32.1948 21.4888 32.1636C21.3992 32.1324 21.3234 32.0706 21.2748 31.9891L19.6787 29.2338C19.6306 29.1515 19.6134 29.0547 19.6301 28.9609C19.6468 28.8671 19.6963 28.7823 19.7698 28.7216L21.4571 27.4006C21.4211 27.1402 21.4021 26.8778 21.4003 26.615C21.4017 26.3559 21.4207 26.0973 21.4571 25.8408L19.7698 24.5198C19.6963 24.4591 19.6468 24.3743 19.6301 24.2804C19.6134 24.1866 19.6306 24.0899 19.6787 24.0076L21.2748 21.2519C21.3234 21.1703 21.3991 21.1085 21.4887 21.0772C21.5783 21.046 21.6761 21.0473 21.7648 21.0811L23.7488 21.8781C24.1619 21.56 24.614 21.296 25.0941 21.0925L25.3907 18.9862C25.4073 18.8919 25.4562 18.8062 25.5289 18.7439C25.6017 18.6816 25.6938 18.6465 25.7896 18.6445H28.9819C29.0759 18.6464 29.1666 18.68 29.239 18.74C29.3115 18.8 29.3614 18.8827 29.3808 18.9748L29.6774 21.0811C30.1594 21.282 30.6124 21.5465 31.0244 21.8674L33.0066 21.0703C33.0953 21.0366 33.193 21.0351 33.2827 21.0663C33.3723 21.0975 33.448 21.1593 33.4966 21.2408L35.0928 23.9965C35.1408 24.0788 35.158 24.1755 35.1413 24.2693C35.1247 24.3632 35.0751 24.448 35.0016 24.5087L33.3143 25.8297C33.3503 26.0899 33.3693 26.3522 33.3712 26.615V26.615Z" fill="white"/>
</svg>
