<svg width="266" height="44" viewBox="0 0 266 44" fill="none" xmlns="http://www.w3.org/2000/svg">
<g clip-path="url(#clip0_2142_32768)">
<path d="M255.891 42.5282C244.341 24.5112 231.364 12.3002 216.163 6.29932C232.423 10.4285 248.409 16.2731 266 42.5322L255.891 42.5282Z" fill="white"/>
<path d="M251.576 40.557L246.959 36.842L242.341 42.5282H232.079L242.854 29.0708L251.576 40.557Z" fill="#5BB647"/>
<path d="M266 12.012L254 27.3249L248.096 21.7076L256.022 12.012H266Z" fill="#5BB647"/>
<path d="M7.60963 17.0892H22.1691V24.5031H7.60963V35.6117H21.2893C23.2803 35.6133 25.1892 36.3952 26.5971 37.7856C28.0049 39.176 28.7966 41.0613 28.7982 43.0276H0V0.00610352H27.7499C27.7501 0.979876 27.5562 1.94417 27.179 2.84389C26.8019 3.74362 26.249 4.56115 25.5519 5.24981C24.8548 5.93846 24.0271 6.48475 23.1162 6.85746C22.2053 7.23016 21.229 7.422 20.243 7.422H7.60963V17.0892Z" fill="white"/>
<path d="M38.7552 43.0276H38.5805C37.6115 43.0271 36.6522 42.838 35.7572 42.4713C34.8622 42.1045 34.0491 41.5672 33.3644 40.89C32.6797 40.2129 32.1368 39.4091 31.7667 38.5247C31.3966 37.6403 31.2065 36.6925 31.2073 35.7356V12.6515C31.5115 12.6129 31.8239 12.5744 32.1487 12.5602C32.4735 12.5459 32.9257 12.5216 33.4149 12.5216C34.5428 12.4939 35.6606 12.7363 36.673 13.2281C37.1414 13.4922 37.539 13.8635 37.8322 14.3106C38.1255 14.7578 38.306 15.2679 38.3585 15.7981C39.4049 14.6831 40.6518 13.7696 42.0359 13.1042C43.9578 12.2137 46.0693 11.7958 48.1902 11.8862C50.0922 11.7946 51.9884 12.1581 53.7176 12.9459C54.9814 13.5917 56.0309 14.5824 56.7413 15.8002C57.4695 17.084 57.9295 18.4992 58.0938 19.9618C58.2935 21.5892 58.3917 23.2272 58.3878 24.8665V43.0297H58.2953C57.3253 43.0305 56.3648 42.8423 55.4686 42.476C54.5724 42.1097 53.7582 41.5723 53.0725 40.8948C52.3869 40.2173 51.8433 39.4128 51.4729 38.5275C51.1024 37.6422 50.9124 36.6935 50.9138 35.7356V25.1791C50.9138 24.1134 50.8665 23.1491 50.7802 22.2924C50.721 21.5128 50.4879 20.7557 50.0978 20.0755C49.7139 19.4448 49.1476 18.9421 48.4718 18.6321C47.5347 18.2503 46.5247 18.0743 45.5118 18.1165C43.82 18.0528 42.1435 18.4541 40.669 19.2757C39.3945 20.0444 38.7573 20.943 38.7573 21.9716L38.7552 43.0276Z" fill="white"/>
<path d="M196.531 19.9597C196.366 18.4969 195.905 17.0817 195.176 15.798C194.466 14.5818 193.419 13.5908 192.159 12.9417C190.427 12.1566 188.53 11.7939 186.627 11.8841C184.506 11.7927 182.394 12.2106 180.473 13.1021C179.196 13.7148 178.035 14.5387 177.04 15.5382C176.892 15.3043 176.73 15.0786 176.557 14.8622C175.908 14.0618 175.097 13.4048 174.175 12.9336C173.996 12.8504 173.809 12.7753 173.622 12.6941H173.609C172.034 12.0745 170.343 11.7976 168.649 11.882C166.524 11.7897 164.408 12.2077 162.483 13.1001C161.099 13.7648 159.854 14.6784 158.809 15.794C158.755 15.2643 158.574 14.7549 158.281 14.308C157.988 13.8611 157.591 13.4895 157.124 13.2239C156.111 12.7321 154.992 12.4884 153.864 12.5134C153.375 12.5134 152.918 12.5418 152.602 12.554C152.285 12.5662 151.958 12.6088 151.654 12.6494V35.7355C151.654 36.6929 151.845 37.641 152.215 38.5256C152.586 39.4102 153.13 40.2139 153.815 40.8909C154.501 41.5679 155.315 42.1049 156.21 42.4711C157.106 42.8374 158.066 43.0258 159.036 43.0255H159.208V21.9634C159.208 20.9342 159.85 20.0348 161.12 19.2695C162.593 18.4453 164.271 18.0438 165.963 18.1103C166.976 18.0676 167.986 18.2421 168.925 18.6219C169.178 18.7372 169.417 18.8817 169.636 19.0523C170.002 19.3308 170.312 19.6752 170.549 20.0673C170.941 20.7466 171.174 21.5041 171.231 22.2842C171.328 23.2461 171.374 24.2124 171.369 25.1791V35.7355C171.37 37.3979 171.947 39.0098 173.005 40.3026C174.064 41.5955 175.538 42.4913 177.184 42.8408C177.696 42.9576 178.22 43.0148 178.746 43.0113H178.835V24.8624C178.84 23.2237 178.741 21.5862 178.539 19.9597C178.531 19.8656 178.517 19.772 178.497 19.6796C178.694 19.5312 178.9 19.3955 179.114 19.2735C180.587 18.449 182.263 18.0475 183.955 18.1144C184.969 18.0717 185.98 18.2462 186.919 18.6259C187.595 18.9356 188.16 19.4393 188.541 20.0714C188.935 20.7502 189.169 21.5079 189.225 22.2882C189.319 23.2476 189.363 24.2111 189.357 25.175V35.7355C189.357 37.6671 190.135 39.5195 191.518 40.8854C192.901 42.2513 194.776 43.0189 196.732 43.0194H196.829V24.8624C196.829 23.2237 196.73 21.5866 196.531 19.9597V19.9597Z" fill="#5BB647"/>
<path d="M92.2611 27.7431C92.2838 29.8153 92.0225 31.8811 91.4841 33.8841C90.9821 35.7622 90.0989 37.52 88.8879 39.0507C87.6522 40.5876 86.0717 41.8198 84.2712 42.65C82.0943 43.606 79.7273 44.0653 77.346 43.9939C74.9915 44.06 72.6503 43.623 70.4826 42.7129C68.6898 41.9289 67.1162 40.7273 65.8967 39.211C64.705 37.6848 63.833 35.9395 63.3313 34.077C62.7931 32.0739 62.5317 30.0082 62.5543 27.936C62.5414 25.8523 62.8591 23.7795 63.4958 21.7929C64.0924 19.9245 65.0556 18.1903 66.3304 16.6893C67.6154 15.1888 69.2255 13.9927 71.0417 13.1894C73.1207 12.2938 75.3723 11.8559 77.64 11.9064C79.9622 11.8396 82.2709 12.2776 84.4027 13.1894C86.173 13.9757 87.7312 15.1621 88.9516 16.6528C90.149 18.1533 91.0214 19.8807 91.5149 21.728C92.0519 23.6946 92.314 25.7246 92.294 27.7614L92.2611 27.7431ZM84.6206 27.8243C84.6246 26.6003 84.5262 25.3782 84.3267 24.1702C84.1449 23.0265 83.7519 21.9255 83.1673 20.922C82.6094 19.912 81.7719 19.0798 80.7527 18.5225C79.7334 17.9653 78.5747 17.7062 77.4118 17.7754C76.1839 17.7363 74.9706 18.0479 73.9174 18.6727C72.9858 19.2529 72.2055 20.0415 71.6398 20.9748C71.0582 21.97 70.651 23.0552 70.4353 24.1844C70.2012 25.3682 70.0815 26.5714 70.0776 27.7776C70.0775 29.0257 70.1869 30.2714 70.4045 31.5008C70.5984 32.6689 70.9815 33.7985 71.5391 34.8464C72.0676 35.8145 72.8284 36.6398 73.755 37.25C74.8143 37.9062 76.0492 38.2323 77.2988 38.1858C78.5785 38.2357 79.8445 37.91 80.9371 37.25C81.875 36.6513 82.6466 35.8307 83.1817 34.8626C83.7431 33.8183 84.1166 32.6856 84.2856 31.515C84.4848 30.2837 84.5838 29.0387 84.5816 27.7918" fill="white"/>
<path d="M133.123 43.0439C132.154 43.0455 131.194 42.8584 130.298 42.4933C129.402 42.1282 128.588 41.5923 127.902 40.9162C127.216 40.2401 126.671 39.4371 126.299 38.553C125.928 37.669 125.736 36.7212 125.736 35.764V12.5927C126.704 12.5916 127.664 12.7789 128.559 13.144C129.454 13.5091 130.268 14.0447 130.953 14.7203C131.639 15.3959 132.183 16.1983 132.555 17.0816C132.926 17.965 133.118 18.9119 133.119 19.8685V43.0439H133.123Z" fill="white"/>
<path d="M145.058 43.0439C144.089 43.0441 143.13 42.8559 142.235 42.49C141.34 42.124 140.527 41.5875 139.842 40.9111C139.157 40.2346 138.614 39.4315 138.243 38.5477C137.873 37.6639 137.682 36.7166 137.683 35.7599V35.7599V12.5927C139.638 12.5927 141.514 13.3598 142.897 14.7254C144.28 16.0909 145.057 17.9431 145.058 19.8746V19.8746V43.0439Z" fill="white"/>
<path d="M132.067 6.29929C132.067 7.02201 131.85 7.7285 131.443 8.32942C131.037 8.93034 130.459 9.39871 129.783 9.67528C129.107 9.95185 128.363 10.0242 127.645 9.88322C126.927 9.74222 126.268 9.3942 125.751 8.88316C125.233 8.37212 124.881 7.72101 124.738 7.01217C124.595 6.30334 124.668 5.56861 124.949 4.90091C125.229 4.2332 125.703 3.6625 126.311 3.26098C126.92 2.85946 127.635 2.64514 128.367 2.64514C129.346 2.6489 130.283 3.03555 130.974 3.72043C131.665 4.4053 132.052 5.33261 132.052 6.29929" fill="white"/>
<path d="M144.005 6.29929C144.005 7.02201 143.788 7.7285 143.382 8.32942C142.975 8.93034 142.397 9.39871 141.721 9.67528C141.045 9.95185 140.301 10.0242 139.584 9.88322C138.866 9.74222 138.207 9.3942 137.689 8.88316C137.172 8.37212 136.819 7.72101 136.677 7.01217C136.534 6.30334 136.607 5.56861 136.887 4.90091C137.167 4.2332 137.641 3.6625 138.25 3.26098C138.858 2.85946 139.574 2.64514 140.305 2.64514C141.287 2.64514 142.228 3.03013 142.922 3.71542C143.616 4.40071 144.005 5.33015 144.005 6.29929Z" fill="white"/>
<path d="M113.925 15.9991L107.427 33.1939L100.929 15.9991C100.551 14.9983 99.8712 14.1357 98.9821 13.5268C98.0931 12.918 97.0369 12.5921 95.955 12.5927H92.255L103.741 42.9891H111.141L122.599 12.5927H118.922C117.84 12.5931 116.784 12.9197 115.895 13.5288C115.006 14.1379 114.326 15.0004 113.947 16.0012" fill="white"/>
<path d="M207.896 39.5806L214.393 22.3858L220.891 39.5806C221.27 40.5815 221.949 41.4442 222.838 42.0533C223.727 42.6625 224.783 42.9889 225.865 42.9891H229.565L218.085 12.5927H210.671L199.221 42.9911H202.899C203.981 42.9898 205.036 42.6629 205.925 42.0539C206.814 41.4449 207.493 40.5828 207.873 39.5826" fill="#5BB647"/>
</g>
<defs>
<clipPath id="clip0_2142_32768">
<rect width="266" height="44" fill="white"/>
</clipPath>
</defs>
</svg>
