<svg width="67" height="12" viewBox="0 0 67 12" fill="none" xmlns="http://www.w3.org/2000/svg">
<path d="M33.0837 8.6962H30.0602L30.104 8.5443C30.1916 8.08861 30.2355 7.59494 30.2355 7.32911C30.2355 5.73418 29.4029 3.83544 27.1243 3.83544C26.3355 3.83544 25.5468 4.13924 24.9333 4.51899C24.2322 4.97468 23.5749 5.50633 23.0929 6.1519C22.5232 6.87342 22.1288 7.70886 21.6468 8.46835C21.603 8.5443 21.5592 8.62025 21.5154 8.6962H21.4716V5.58228H20.5513V8.6962H17.8345V8.35443C17.8345 5.08861 15.1177 3.91139 12.7515 3.91139H9.15827V4.59494C9.42119 4.59494 12.4886 4.55696 12.62 4.55696C15.2492 4.55696 16.7829 6.03798 16.8267 8.50633V8.65823H5.21452V3.4557C4.9516 3.41772 4.42577 3.41772 4.25049 3.41772C2.54153 3.41772 0 4.48101 0 6.75949C0 7.51899 0.306736 8.16456 0.920209 8.62025C1.48986 9.03798 2.23479 9.26582 3.11118 9.26582H3.41792L3.98757 8.73418L4.03139 8.6962H3.3741C1.97188 8.6962 1.00785 7.89873 1.00785 6.75949C1.00785 5.6962 1.62132 5.05063 2.10334 4.70886C2.76063 4.25317 3.50556 4.10127 3.94375 4.10127H4.25049V9.3038H34.0039V0H33.0837V8.6962ZM29.14 8.58228L29.0961 8.6962H22.3918L22.4356 8.5443C23.0052 6.26582 25.3715 4.51899 26.9928 4.51899C27.5186 4.51899 29.2276 4.74684 29.2276 7.48101C29.2276 7.63291 29.2276 8.20253 29.14 8.58228ZM36.9837 9.26582H37.9039V0H36.9837V9.26582ZM2.45389 2.12658C2.84827 2.12658 3.155 1.86076 3.155 1.51899C3.155 1.17722 2.84827 0.911392 2.45389 0.911392C2.05952 0.873418 1.75278 1.17722 1.75278 1.51899C1.75278 1.86076 2.05952 2.12658 2.45389 2.12658ZM45.0903 2.12658C45.4846 2.12658 45.7914 1.86076 45.7914 1.51899C45.7914 1.17722 45.4846 0.911392 45.0903 0.911392C44.6959 0.911392 44.3891 1.17722 44.3891 1.51899C44.3453 1.86076 44.6959 2.12658 45.0903 2.12658ZM4.60105 2.12658C4.99542 2.12658 5.30216 1.86076 5.30216 1.51899C5.30216 1.17722 4.99542 0.911392 4.60105 0.911392C4.20667 0.911392 3.89993 1.17722 3.89993 1.51899C3.89993 1.86076 4.20667 2.12658 4.60105 2.12658ZM54.7744 9.26582H55.6946V0H54.7744V9.26582ZM42.5925 6.83544C42.5925 8.24051 43.9071 9.3038 45.7037 9.3038H47.8071V3.4557C47.5441 3.41772 47.2374 3.41772 46.8869 3.41772C44.4768 3.41772 42.5925 4.89873 42.5925 6.83544ZM46.8869 8.6962H46.0105C44.3891 8.6962 43.6442 7.70886 43.6442 6.75949C43.6442 5.05063 45.1341 4.10127 46.5363 4.10127H46.8869V8.6962ZM59.3754 0.911392C58.981 0.911392 58.6743 1.17722 58.6743 1.51899C58.6743 1.86076 58.981 2.12658 59.3754 2.12658C59.7698 2.12658 60.0765 1.86076 60.0765 1.51899C60.1203 1.17722 59.7698 0.911392 59.3754 0.911392ZM66.3427 3.6076C63.8888 3.6076 62.0046 5.05063 62.0046 6.91139C62.0046 8.65823 63.8012 9.3038 64.9843 9.3038C65.1596 9.3038 65.291 9.3038 65.3349 9.3038L65.8169 8.88608L66.036 8.6962H65.4225C64.2394 8.6962 63.0562 8.12658 63.0562 6.79747C63.0562 5.62025 64.2832 4.32911 65.9483 4.32911H66.1236V9.41772C66.1236 10.4051 65.9045 11.2785 64.3708 11.2785C64.2394 11.2785 64.0641 11.2785 63.8888 11.2405L63.7574 11.8481C63.9765 11.8861 64.2394 11.9241 64.5899 11.9241C65.3349 11.9241 67 11.6962 67 9.75949V3.64557C66.6933 3.6076 66.518 3.6076 66.3427 3.6076ZM58.9372 9.79747C58.9372 10.8608 58.4552 11.3165 57.2283 11.3165C57.0968 11.3165 56.9215 11.2785 56.7462 11.2785L56.6148 11.9241C57.0092 11.962 57.1406 12 57.4474 12C58.1485 12 59.8136 11.8101 59.8136 10.0633V4.29114H58.8934V9.79747H58.9372ZM47.1936 0.911392C46.7992 0.911392 46.4925 1.17722 46.4925 1.51899C46.4925 1.86076 46.7992 2.12658 47.1936 2.12658C47.588 2.12658 47.8947 1.86076 47.8947 1.51899C47.9385 1.17722 47.588 0.911392 47.1936 0.911392ZM50.9621 9.79747C50.9621 10.8608 50.4801 11.3165 49.2531 11.3165C49.1217 11.3165 48.9464 11.2785 48.7711 11.2785L48.6396 11.9241C49.034 11.962 49.1655 12 49.4722 12C50.1733 12 51.8385 11.8101 51.8385 10.0633V4.29114H50.9183V9.79747H50.9621Z" fill="#008556"/>
</svg>
