<svg width="51" height="32" viewBox="0 0 51 32" fill="none" xmlns="http://www.w3.org/2000/svg">
<path fill-rule="evenodd" clip-rule="evenodd" d="M37.9083 19.1457C37.3874 19.449 36.8665 19.7955 36.6061 19.9687C35.7813 20.5318 34.9132 21.1816 34.0885 21.788C30.3555 24.6035 26.6659 27.8955 23.8444 31.0575H17.1163C17.1163 31.0575 33.5676 16.8933 41.1638 15.7671C47.8919 14.8142 50.4963 19.6655 49.9754 24.9067C50.0622 24.257 50.0188 23.6073 49.932 23.0442C49.715 21.6581 49.1073 20.4885 48.2826 19.5789C47.6314 18.8425 46.8067 18.1928 45.6781 17.803C44.7232 17.4564 43.6814 17.2832 42.5962 17.3698C42.5962 17.4564 40.6429 17.5431 37.9083 19.1457Z" fill="#9E925E"/>
<path fill-rule="evenodd" clip-rule="evenodd" d="M13.0361 19.1457C13.557 19.449 14.0779 19.7955 14.3384 19.9687C15.1631 20.5318 16.0312 21.1816 16.856 21.788C20.589 24.6035 24.2786 27.8955 27.1 31.0575H33.8281C33.8281 31.0575 17.3768 16.8933 9.78062 15.7671C3.05253 14.8142 0.448109 19.6655 0.968993 24.9067C0.882179 24.257 0.925589 23.6073 1.0124 23.0442C1.22944 21.6581 1.83714 20.4885 2.66187 19.5789C3.31298 18.8425 4.13771 18.1928 5.26629 17.803C6.22125 17.4564 7.26301 17.2832 8.34819 17.3698C8.34819 17.4564 10.3015 17.5431 13.0361 19.1457Z" fill="#9E925E"/>
<path d="M11.5605 22.6972L9.25988 20.4015L7.26316 22.394L5.22303 20.4015L2.92245 22.6972L5.22303 24.9929L7.26316 22.9571L9.25988 24.9929L11.5605 22.6972Z" fill="#008556"/>
<path d="M36.0418 5.63103C35.8682 5.24119 35.6511 4.80804 35.3907 4.41819C33.3071 1.21284 29.3137 -0.0433156 25.8411 1.16952C25.6675 0.433156 25.5373 0 25.5373 0C25.5373 0 25.3637 0.433156 25.19 1.16952C21.7175 -0.0433156 17.724 1.21284 15.6839 4.41819C15.4235 4.80804 15.2064 5.19788 15.0328 5.63103C16.5086 4.02835 18.5054 3.11873 20.5889 2.98878C18.6356 4.46151 17.4202 6.80055 17.4202 9.44281C17.4202 9.91928 17.4636 10.3524 17.5504 10.7856C17.9411 8.40323 19.3735 6.41071 21.3702 5.19788C20.1114 7.66687 20.1982 10.7423 21.8043 13.2546C22.0647 13.6444 22.3252 13.9909 22.629 14.3375C21.2834 11.2187 22.0213 7.58024 24.4955 5.24119C24.4521 5.84761 24.4087 6.49734 24.4087 7.14708C24.4087 11.0888 25.5807 14.2508 25.5807 14.2508C25.5807 14.2508 26.7527 11.0455 26.7527 7.14708C26.7527 6.49734 26.7093 5.84761 26.6659 5.24119C29.1401 7.58024 29.878 11.2187 28.5324 14.3375C28.8362 13.9909 29.0967 13.6444 29.3571 13.2546C30.9632 10.7423 31.05 7.66687 29.7912 5.19788C31.7879 6.41071 33.2203 8.40323 33.611 10.7856C33.6978 10.3524 33.7412 9.91928 33.7412 9.44281C33.7412 6.80055 32.4824 4.50483 30.5725 2.98878C32.5692 3.11873 34.5659 4.02835 36.0418 5.63103Z" fill="#008556"/>
<path fill-rule="evenodd" clip-rule="evenodd" d="M17.2899 19.0154C17.2899 19.0154 23.1499 10.5689 33.4373 21.5277C43.1171 31.8368 46.7633 30.1042 49.5413 26.8122C49.5413 26.8122 49.4111 27.2021 49.1507 27.5919C48.977 27.8951 48.8468 28.0684 48.8034 28.1117C47.4144 29.9309 45.4611 31.1005 43.0737 31.1005C39.9918 31.1438 36.172 29.2812 31.8747 24.5598C22.2817 14.0341 17.2899 19.0154 17.2899 19.0154Z" fill="#008556"/>
</svg>
