<svg width="67" height="10" viewBox="0 0 67 10" fill="none" xmlns="http://www.w3.org/2000/svg">
<path d="M3.16242 6.17801H3.1185L0.966295 1.09948H0V7.74869H0.395302V2.30366H0.439225L2.76712 7.69633H2.94281L5.22678 2.25131H5.2707V7.69633H6.19307V1.09948H5.2707L3.16242 6.17801ZM7.46683 2.77487V7.69633H8.30135V2.46073H8.03782L7.46683 2.77487ZM8.21351 0.157068C8.16959 0.104712 8.12566 0.0523552 8.03782 0.0523552C7.9939 -7.9967e-07 7.90605 0 7.86213 0C7.77428 0 7.73036 -7.9967e-07 7.68644 0.0523552C7.64251 0.104711 7.55467 0.104712 7.51075 0.157068C7.46683 0.209424 7.4229 0.261779 7.4229 0.314135C7.37898 0.366491 7.37898 0.418848 7.37898 0.52356C7.37898 0.575916 7.37898 0.680627 7.4229 0.732983C7.46682 0.785339 7.46683 0.837697 7.51075 0.890053C7.55467 0.942409 7.59859 0.994763 7.68644 0.994763C7.73036 1.04712 7.8182 1.04712 7.86213 1.04712C7.94997 1.04712 7.9939 1.04712 8.03782 0.994763C8.08174 0.942407 8.16959 0.942409 8.21351 0.890053C8.25743 0.837697 8.30135 0.785339 8.30135 0.732983C8.34527 0.680627 8.34527 0.628272 8.34527 0.52356C8.34527 0.471204 8.34527 0.366491 8.30135 0.314135C8.30135 0.209423 8.25743 0.157068 8.21351 0.157068ZM12.6497 2.93194C12.5618 2.77487 12.4301 2.67016 12.2983 2.6178C12.1665 2.51309 12.0348 2.51309 11.8591 2.51309C11.5516 2.51309 11.2881 2.6178 10.9806 2.77487C10.7171 2.93194 10.4536 3.19372 10.19 3.56021V2.6178H9.35549V7.74869H10.19V3.97906C10.2779 3.87435 10.3657 3.76963 10.4975 3.66492C10.5853 3.56021 10.7171 3.50785 10.8049 3.4555C10.8928 3.40314 11.0245 3.35078 11.1124 3.29843C11.2002 3.24607 11.2881 3.24607 11.4198 3.24607C11.6395 3.24607 11.7712 3.35079 11.903 3.50785C12.0348 3.66492 12.0787 3.9267 12.0787 4.29319V7.80105H12.9132V4.13612C12.9132 3.9267 12.8693 3.71728 12.8254 3.50785C12.8254 3.24607 12.7375 3.089 12.6497 2.93194ZM14.714 0.157068C14.6701 0.104712 14.6262 0.0523552 14.5383 0.0523552C14.4944 -7.9967e-07 14.4066 0 14.3627 0C14.2748 0 14.2309 -7.9967e-07 14.187 0.0523552C14.143 0.104711 14.0991 0.104712 14.0552 0.157068C14.0113 0.209424 13.9674 0.261779 13.9674 0.314135C13.9234 0.366491 13.9234 0.418848 13.9234 0.52356C13.9234 0.575916 13.9234 0.680627 13.9674 0.732983C14.0113 0.785339 14.0113 0.837697 14.0552 0.890053C14.0991 0.942409 14.143 0.994763 14.187 0.994763C14.2309 1.04712 14.3187 1.04712 14.3627 1.04712C14.4505 1.04712 14.4944 1.04712 14.5383 0.994763C14.5823 0.942407 14.6701 0.942409 14.714 0.890053C14.758 0.837697 14.8019 0.785339 14.8019 0.732983C14.8458 0.680627 14.8458 0.628272 14.8458 0.52356C14.8458 0.471204 14.8458 0.366491 14.8019 0.314135C14.8019 0.209423 14.758 0.157068 14.714 0.157068ZM13.9674 2.77487V7.69633H14.8019V2.46073H14.5383L13.9674 2.77487ZM18.4914 5.28796C18.3596 5.18325 18.2278 5.07853 18.0961 4.97382C17.9643 4.86911 17.7886 4.81675 17.6568 4.71204C17.4812 4.60733 17.3494 4.55497 17.2176 4.45026C17.0858 4.3979 16.9541 4.29319 16.8223 4.18848C16.6905 4.08377 16.6027 3.97906 16.5588 3.87434C16.4709 3.76963 16.4709 3.61256 16.4709 3.4555C16.4709 3.35078 16.4709 3.29843 16.5149 3.19372C16.5588 3.089 16.6027 3.03665 16.6905 2.98429C16.7784 2.93194 16.8662 2.87958 16.9541 2.82722C17.0419 2.77487 17.1737 2.77487 17.3055 2.77487C17.5251 2.77487 17.7447 2.82723 17.9643 2.98429C18.1839 3.14136 18.3596 3.40314 18.4914 3.71728L18.7988 3.40314C18.6671 3.19372 18.5353 3.03665 18.4474 2.93194C18.3157 2.82722 18.2278 2.72251 18.0961 2.6178C17.9643 2.56544 17.8765 2.51309 17.7447 2.46073C17.6129 2.46073 17.4812 2.40838 17.3494 2.40838C17.1298 2.40838 16.9541 2.46073 16.7784 2.51309C16.6027 2.56544 16.427 2.67016 16.2952 2.82722C16.1635 2.93194 16.0756 3.089 15.9878 3.29843C15.8999 3.4555 15.8999 3.66492 15.8999 3.87434C15.8999 4.08377 15.9439 4.29319 15.9878 4.45026C16.0317 4.60733 16.1196 4.7644 16.2513 4.86911C16.3392 4.97382 16.4709 5.07853 16.6027 5.18324C16.7345 5.28796 16.8662 5.34031 17.0419 5.44502C17.1737 5.54974 17.3055 5.60209 17.4812 5.7068C17.6129 5.75916 17.7447 5.86387 17.8325 5.96858C17.9204 6.0733 18.0082 6.17801 18.0961 6.28272C18.1839 6.38743 18.1839 6.5445 18.1839 6.70157C18.1839 6.80628 18.1839 6.91099 18.14 6.96335C18.0961 7.06806 18.0521 7.12042 17.9643 7.22513C17.8765 7.27749 17.7886 7.32984 17.7008 7.3822C17.6129 7.43456 17.4812 7.43455 17.3933 7.43455C17.2615 7.43455 17.1737 7.43456 17.0419 7.3822C16.9541 7.32984 16.8223 7.27749 16.7345 7.22513C16.6466 7.12042 16.5588 7.06806 16.427 6.91099C16.3392 6.80628 16.2513 6.64921 16.1196 6.43979L15.6364 6.91099C15.7682 7.12042 15.8999 7.27749 16.0317 7.3822C16.1635 7.48691 16.2952 7.59162 16.427 7.64398C16.5588 7.69634 16.6905 7.74869 16.8223 7.80105C16.9541 7.80105 17.0858 7.8534 17.2176 7.8534C17.4812 7.8534 17.7447 7.80105 17.9204 7.74869C18.14 7.64398 18.3157 7.53927 18.4474 7.43455C18.5792 7.27749 18.6671 7.12042 18.7549 6.96335C18.8428 6.75393 18.8428 6.59686 18.8428 6.33508C18.8428 6.12566 18.7988 5.91623 18.7549 5.75916C18.711 5.54974 18.5792 5.44503 18.4914 5.28796ZM21.6099 7.12042C21.522 7.17278 21.4342 7.22513 21.3463 7.22513C21.3024 7.22513 21.2146 7.22513 21.1706 7.17277C21.1267 7.12042 21.0828 7.12042 21.0389 7.06806C20.995 7.0157 20.951 6.96335 20.951 6.91099C20.9071 6.85864 20.9071 6.75393 20.9071 6.70157V3.089H21.8734V2.67016H20.9071V0.942408H20.6436C20.5997 1.20419 20.5557 1.46597 20.5118 1.67539C20.4679 1.88482 20.38 2.09424 20.2922 2.30366C20.2043 2.46073 20.0726 2.6178 19.8969 2.72251C19.7212 2.82723 19.5455 2.87958 19.3259 2.87958V3.14136H20.0287V6.75392C20.0287 6.91099 20.0287 7.12042 20.0726 7.22513C20.1165 7.3822 20.1604 7.48691 20.2483 7.59162C20.3361 7.69633 20.424 7.80104 20.5118 7.8534C20.5997 7.90576 20.7314 7.95812 20.9071 7.95812C21.1706 7.95812 21.4342 7.90576 21.6099 7.74869C21.7856 7.59162 21.9612 7.43455 22.0491 7.17277L21.8295 7.01571C21.7416 6.96335 21.6977 7.06806 21.6099 7.12042ZM25.0797 2.67016C25.0358 2.6178 24.948 2.56544 24.8601 2.51309C24.7723 2.46073 24.6844 2.46073 24.5966 2.46073C24.4648 2.46073 24.377 2.51309 24.2452 2.56544C24.1135 2.6178 24.0256 2.72251 23.9378 2.77487C23.8499 2.87958 23.7181 2.98429 23.6303 3.14136C23.5425 3.24607 23.4546 3.40314 23.3668 3.56021V2.6178H22.5322V7.74869H23.3668V4.18848C23.4107 4.08377 23.4985 3.97906 23.5425 3.87434C23.5864 3.76963 23.6742 3.71728 23.7181 3.61256C23.7621 3.56021 23.8499 3.50785 23.8938 3.4555C23.9378 3.40314 24.0256 3.40314 24.0695 3.40314C24.1574 3.40314 24.2013 3.40314 24.2452 3.4555C24.2891 3.4555 24.3331 3.50785 24.377 3.56021C24.4209 3.61256 24.4648 3.61257 24.5527 3.66492C24.5966 3.66492 24.6844 3.71728 24.7723 3.71728C24.9041 3.71728 25.0358 3.66492 25.1237 3.61256C25.2115 3.50785 25.2554 3.40314 25.2554 3.24607C25.2554 3.14136 25.2554 3.089 25.2115 3.03665C25.2115 2.82722 25.1237 2.72251 25.0797 2.67016ZM28.0226 6.28272L26.3535 2.56544H25.3872L27.5833 7.43455L27.2759 8.2199C27.2319 8.32461 27.188 8.42932 27.1441 8.53403C27.1002 8.63874 27.0563 8.74345 27.0123 8.84817C26.9684 8.95288 26.8806 9.00523 26.8366 9.05759C26.7488 9.10995 26.7049 9.1623 26.617 9.1623C26.5292 9.1623 26.4853 9.1623 26.4413 9.10995C26.3974 9.10995 26.3535 9.05759 26.3096 9.00524C26.2657 8.95288 26.2217 8.95288 26.1778 8.90052C26.1339 8.90052 26.046 8.84817 25.9582 8.84817C25.8704 8.84817 25.8264 8.84816 25.7386 8.90052C25.6947 8.95288 25.6068 8.95288 25.5629 9.00524C25.519 9.05759 25.475 9.10995 25.475 9.1623C25.4311 9.21466 25.4311 9.31937 25.4311 9.37173C25.4311 9.47644 25.4311 9.52879 25.475 9.63351C25.519 9.68586 25.5629 9.79058 25.6068 9.84293C25.6507 9.89529 25.7386 9.94764 25.8264 9.94764C25.9143 10 26.0021 10 26.09 10C26.2217 10 26.3535 9.94764 26.4853 9.89529C26.617 9.84293 26.7488 9.73822 26.8806 9.63351C27.0123 9.52879 27.1441 9.37173 27.2759 9.1623C27.4076 8.95288 27.4955 8.74345 27.5833 8.53403L29.7795 2.51309H29.3402L28.0226 6.28272ZM36.4996 3.24607C36.28 3.03665 36.0604 2.82723 35.7968 2.72251C35.5333 2.6178 35.2258 2.51309 34.8745 2.51309C34.567 2.51309 34.2595 2.56545 33.9521 2.72251C33.6886 2.87958 33.425 3.03665 33.2493 3.29843C33.0297 3.56021 32.8979 3.82199 32.7662 4.18848C32.6344 4.50262 32.5905 4.86911 32.5905 5.2356C32.5905 5.60209 32.6344 5.91623 32.7662 6.23036C32.8979 6.5445 33.0297 6.80628 33.2493 7.06806C33.4689 7.32984 33.6886 7.48691 33.9521 7.64398C34.2156 7.80105 34.5231 7.8534 34.8745 7.8534C35.1819 7.8534 35.4894 7.80105 35.7968 7.64398C36.0604 7.48691 36.3239 7.27748 36.4996 7.01571C36.7192 6.75392 36.851 6.43979 36.9827 6.12565C37.1145 5.75916 37.1584 5.39267 37.1584 5.02618C37.1584 4.65969 37.1145 4.34555 36.9827 4.03141C36.851 3.71728 36.6753 3.4555 36.4996 3.24607ZM36.1043 6.28272C36.0604 6.49214 35.9725 6.70157 35.8847 6.91099C35.7968 7.06806 35.6651 7.22513 35.5333 7.32984C35.4015 7.43455 35.2258 7.48691 35.0502 7.48691C34.8305 7.48691 34.6109 7.43455 34.4352 7.27748C34.2595 7.12042 34.0839 6.96335 33.9521 6.70157C33.8203 6.43979 33.7325 6.17801 33.6446 5.86387C33.5568 5.54974 33.5568 5.18325 33.5568 4.81675C33.5568 4.55497 33.6007 4.29319 33.6446 4.08377C33.6886 3.87434 33.7764 3.66492 33.9082 3.50785C33.996 3.35079 34.1278 3.19372 34.2595 3.089C34.3913 2.98429 34.5231 2.93194 34.6549 2.93194C34.9184 2.93194 35.1819 2.98429 35.3576 3.14136C35.5333 3.29843 35.709 3.4555 35.8408 3.71728C35.9725 3.97906 36.0604 4.24084 36.1043 4.55497C36.1482 4.86911 36.1921 5.2356 36.1921 5.60209C36.1921 5.81152 36.1482 6.0733 36.1043 6.28272ZM40.9358 0.26178C40.8479 0.209424 40.7162 0.104711 40.5405 0.0523552C40.4087 -7.9967e-07 40.233 0 40.0134 0C39.7938 0 39.5742 0.0523556 39.3985 0.157068C39.2228 0.26178 39.0471 0.418847 38.8714 0.575915C38.7396 0.732983 38.6079 0.994764 38.52 1.20419C38.4322 1.46597 38.3883 1.72775 38.3883 1.98953V2.56544H37.5098V2.98429H38.3883V7.69633H39.2228V2.98429H40.3648V2.56544H39.2228V1.36126C39.2228 1.25654 39.2228 1.09948 39.2667 0.994763C39.3106 0.890051 39.3546 0.78534 39.3985 0.680628C39.4424 0.575916 39.5302 0.523559 39.5742 0.471203C39.662 0.418847 39.7059 0.366493 39.7938 0.366493C39.9256 0.366493 40.0134 0.366492 40.0573 0.418848C40.1012 0.471204 40.1452 0.523559 40.1891 0.575915C40.233 0.628271 40.233 0.732984 40.2769 0.78534C40.2769 0.890052 40.3209 0.942408 40.3648 1.04712C40.4087 1.15183 40.4526 1.20419 40.4965 1.20419C40.5405 1.25654 40.6283 1.25654 40.7162 1.25654C40.7601 1.25654 40.8479 1.25654 40.8918 1.20419C40.9358 1.20419 40.9797 1.15183 41.0236 1.09948C41.0675 1.04712 41.1115 0.994764 41.1115 0.942408C41.1554 0.890052 41.1554 0.837695 41.1554 0.732983C41.1554 0.628271 41.1115 0.52356 41.0675 0.418848C41.1115 0.418848 41.0675 0.314136 40.9358 0.26178ZM47.5241 4.08377H44.7131V1.04712H43.7907V7.69633H44.7131V4.50262H47.5241V7.69633H48.4465V1.09948H47.5241V4.08377ZM53.1462 6.28272C53.0584 6.43979 52.9266 6.5445 52.7948 6.70157C52.6631 6.80628 52.4874 6.91099 52.3117 6.96335C52.136 7.01571 51.9603 7.06806 51.7846 7.06806C51.565 7.06806 51.3454 7.01571 51.1697 6.91099C50.994 6.80628 50.8183 6.64921 50.6866 6.38743C50.5548 6.17801 50.4669 5.91623 50.3791 5.60209C50.2913 5.28796 50.2473 4.97382 50.2473 4.65968H53.4537C53.4537 4.3979 53.4098 4.08377 53.3219 3.82199C53.2341 3.56021 53.1023 3.35079 52.9266 3.14136C52.7509 2.93194 52.5752 2.77487 52.3117 2.67016C52.0921 2.56544 51.8285 2.51309 51.5211 2.51309C51.2136 2.51309 50.9062 2.56545 50.6426 2.72251C50.3791 2.87958 50.1595 3.089 49.9838 3.29843C49.8081 3.56021 49.6763 3.87434 49.5446 4.18848C49.4567 4.55497 49.4128 4.92147 49.4128 5.34031C49.4128 5.70681 49.4567 6.02094 49.5885 6.28272C49.7203 6.59686 49.852 6.85864 50.0277 7.06806C50.2034 7.27748 50.423 7.48691 50.6866 7.59162C50.9501 7.74869 51.2136 7.80105 51.5211 7.80105C51.7407 7.80105 51.9603 7.74869 52.1799 7.64398C52.3995 7.53927 52.5752 7.3822 52.7948 7.22513C52.9705 7.06806 53.1462 6.85864 53.278 6.59686C53.4098 6.38744 53.4976 6.12565 53.5854 5.86387L53.3219 5.75916C53.3219 5.96858 53.2341 6.12565 53.1462 6.28272ZM50.3791 3.71728C50.423 3.56021 50.5109 3.40314 50.5987 3.29843C50.6866 3.19372 50.7744 3.089 50.9062 3.03665C51.0379 2.98429 51.1697 2.93194 51.2576 2.93194C51.4332 2.93194 51.565 2.98429 51.6968 3.03665C51.8285 3.089 51.9603 3.19372 52.0482 3.29843C52.136 3.40314 52.2239 3.56021 52.2678 3.71728C52.3117 3.87434 52.3556 4.08377 52.3556 4.24084H50.2034C50.2913 4.03141 50.3352 3.87434 50.3791 3.71728ZM57.231 2.87958C57.0993 2.77487 56.9675 2.67016 56.7479 2.6178C56.5722 2.56544 56.3086 2.51309 56.0451 2.51309C55.8255 2.51309 55.6059 2.56544 55.3863 2.6178C55.1667 2.67016 54.991 2.77487 54.8153 2.87958C54.6396 2.98429 54.5517 3.08901 54.42 3.24607C54.3321 3.40314 54.2882 3.56021 54.2882 3.71728C54.2882 3.82199 54.2882 3.87435 54.3321 3.97906C54.3321 4.03141 54.3761 4.13612 54.42 4.18848C54.4639 4.24084 54.5078 4.29319 54.5517 4.29319C54.5957 4.34555 54.6835 4.34555 54.7274 4.34555C54.8153 4.34555 54.9031 4.34555 54.947 4.29319C54.991 4.24084 55.0349 4.18848 55.0788 4.13612C55.1227 4.08377 55.1227 3.97906 55.1667 3.9267C55.1667 3.82199 55.1667 3.76963 55.1667 3.66492C55.1667 3.56021 55.1667 3.4555 55.2106 3.40314C55.2106 3.29843 55.2545 3.24607 55.2984 3.14136C55.3424 3.089 55.4302 2.98429 55.518 2.98429C55.6059 2.93194 55.7376 2.93194 55.8694 2.93194C56.0012 2.93194 56.1329 2.93194 56.2208 2.98429C56.3086 3.03665 56.3965 3.089 56.4843 3.19372C56.5722 3.29843 56.6161 3.40314 56.66 3.56021C56.7039 3.71728 56.7039 3.9267 56.7039 4.13612V4.45026C56.5283 4.50262 56.3086 4.55497 56.1329 4.65968C55.9133 4.71204 55.7377 4.81675 55.562 4.86911C55.3863 4.97382 55.2106 5.02618 55.0349 5.18324C54.8592 5.28796 54.7274 5.39267 54.5957 5.54974C54.4639 5.70681 54.3761 5.86387 54.2882 6.02094C54.2004 6.17801 54.1564 6.38744 54.1564 6.59686C54.1564 6.75393 54.2004 6.96335 54.2443 7.12042C54.2882 7.27749 54.3761 7.43455 54.4639 7.53927C54.5517 7.64398 54.6835 7.74869 54.8153 7.80105C54.947 7.8534 55.1227 7.90576 55.2545 7.90576C55.4302 7.90576 55.6059 7.90576 55.7377 7.8534C55.8694 7.80104 56.0012 7.74869 56.1329 7.64398C56.2647 7.53927 56.3526 7.48691 56.4404 7.3822C56.5283 7.27749 56.6161 7.17278 56.7479 7.12042V7.80105H57.6263V3.9267C57.6263 3.71728 57.5824 3.56021 57.5385 3.35078C57.4067 3.14136 57.3189 2.98429 57.231 2.87958ZM56.7039 6.64921C56.6161 6.70157 56.5283 6.80628 56.4404 6.85864C56.3526 6.911 56.2647 6.96335 56.1769 7.01571C56.089 7.06806 56.0012 7.12042 55.9133 7.12042C55.8255 7.17278 55.7376 7.17277 55.6498 7.17277C55.562 7.17277 55.4741 7.17278 55.3863 7.12042C55.2984 7.06806 55.2106 7.01571 55.1667 6.91099C55.1227 6.80628 55.0349 6.75393 54.991 6.59686C54.947 6.49215 54.947 6.38743 54.947 6.23036C54.947 6.12565 54.991 5.96859 55.0349 5.86387C55.0788 5.75916 55.1667 5.65445 55.2545 5.54974C55.3423 5.44503 55.4302 5.34031 55.562 5.28796C55.6937 5.18325 55.7816 5.13089 55.9133 5.02618C56.0451 4.97382 56.1769 4.86911 56.3086 4.81675C56.4404 4.7644 56.5722 4.71204 56.7039 4.65968V6.64921ZM58.7244 0.26178V7.69633H59.5589V0H59.2954L58.7244 0.26178ZM62.5017 7.12042C62.4139 7.17278 62.326 7.22513 62.2382 7.22513C62.1943 7.22513 62.1064 7.22513 62.0625 7.17277C62.0186 7.12042 61.9746 7.12042 61.9307 7.06806C61.8868 7.0157 61.8429 6.96335 61.8429 6.91099C61.799 6.85864 61.799 6.75393 61.799 6.70157V3.089H62.7653V2.67016H61.755V0.942408H61.4915C61.4476 1.20419 61.4037 1.46597 61.3597 1.67539C61.3158 1.88482 61.228 2.09424 61.1401 2.30366C61.0523 2.51309 60.9205 2.6178 60.7448 2.72251C60.5691 2.82723 60.3934 2.87958 60.1738 2.87958V3.14136H60.9205V6.75392C60.9205 6.91099 60.9205 7.12042 60.9644 7.22513C61.0084 7.3822 61.0523 7.48691 61.0962 7.59162C61.184 7.69633 61.2719 7.80104 61.3597 7.8534C61.4476 7.90576 61.5793 7.95812 61.755 7.95812C62.0186 7.95812 62.2821 7.90576 62.4578 7.74869C62.6335 7.59162 62.8092 7.43455 62.897 7.17277L62.6774 7.01571C62.6335 6.96335 62.5896 7.06806 62.5017 7.12042ZM66.9379 3.4555C66.894 3.24607 66.8061 3.08901 66.7183 2.98429C66.6304 2.82723 66.4987 2.72251 66.3669 2.67016C66.2351 2.56544 66.1034 2.56544 65.9277 2.56544C65.6202 2.56544 65.3567 2.67016 65.0931 2.82722C64.8296 2.98429 64.5222 3.24607 64.3025 3.61256V0.0523552H64.039L63.4241 0.366493V7.80105H64.2586V4.03141C64.3465 3.9267 64.4343 3.82199 64.5661 3.71728C64.6539 3.61256 64.7857 3.56021 64.8735 3.50785C64.9614 3.4555 65.0931 3.40314 65.181 3.35078C65.2688 3.29843 65.3567 3.29843 65.4884 3.29843C65.7081 3.29843 65.8398 3.40314 65.9716 3.56021C66.1034 3.71728 66.1473 3.97906 66.1473 4.34555V7.8534H66.9818V4.18848C67.0257 3.82199 66.9818 3.61256 66.9379 3.4555Z" fill="#9E925E"/>
</svg>
