<svg width="19" height="19" viewBox="0 0 19 19" fill="none" xmlns="http://www.w3.org/2000/svg">
<path d="M9.4082 14.4707L9.4082 5.4707C9.4082 5.1632 9.6632 4.9082 9.9707 4.9082C10.2782 4.9082 10.5332 5.1632 10.5332 5.4707L10.5332 14.4707C10.5332 14.7782 10.2782 15.0332 9.9707 15.0332C9.6632 15.0332 9.4082 14.7782 9.4082 14.4707Z" fill="#F2F2F2"/>
<path d="M4.9082 9.9707C4.9082 9.6632 5.1632 9.4082 5.4707 9.4082L14.4707 9.4082C14.7782 9.4082 15.0332 9.6632 15.0332 9.9707C15.0332 10.2782 14.7782 10.5332 14.4707 10.5332L5.4707 10.5332C5.1632 10.5332 4.9082 10.2782 4.9082 9.9707Z" fill="#F2F2F2"/>
</svg>
