<svg width="197" height="53" viewBox="0 0 197 53" fill="none" xmlns="http://www.w3.org/2000/svg">
<path d="M173.928 9.07898C173.928 9.07898 169.103 -1.65072 157.518 1.86689C157.518 1.86689 157.303 1.82759 157.225 1.55247C157.225 1.55247 157.186 0.746756 156.795 0C156.404 0.727104 156.365 1.55247 156.365 1.55247C156.287 1.82759 156.072 1.86689 156.072 1.86689C144.487 -1.63107 139.662 9.07898 139.662 9.07898C143.862 4.63775 148.473 4.95217 148.473 4.95217C142.241 10.6118 143.784 17.2147 143.784 17.2147C145.425 10.6118 149.84 8.86281 149.84 8.86281C146.246 17.6274 151.794 23.3066 151.794 23.3066C149.02 13.4023 155.076 8.76455 155.076 8.76455C154.568 17.1164 156.815 23.3066 156.815 23.3066C156.815 23.3066 159.061 17.1164 158.553 8.76455C158.553 8.76455 164.609 13.4023 161.835 23.3066C161.835 23.3066 167.364 17.6274 163.789 8.86281C163.789 8.86281 168.204 10.6118 169.845 17.2147C169.845 17.2147 171.388 10.6118 165.137 4.95217C165.098 4.95217 169.728 4.63775 173.928 9.07898Z" fill="white"/>
<path d="M159.257 51.1921H170.177C170.177 51.1921 156.19 39.5977 148.414 34.5669C148.414 34.5669 134.348 24.4268 126.651 26.0579C126.651 26.0579 115.887 26.4509 116.571 41.4449C116.571 41.4449 115.106 30.0471 126.71 28.7698C126.71 28.7698 131.946 27.8461 140.014 33.9577C140.033 33.9577 156.268 47.026 159.257 51.1921Z" fill="white"/>
<path d="M154.275 51.1921H143.354C143.354 51.1921 157.342 39.5977 165.118 34.5669C165.118 34.5669 179.183 24.4268 186.881 26.0579C186.881 26.0579 197.645 26.4509 196.961 41.4449C196.961 41.4449 198.426 30.0471 186.822 28.7698C186.822 28.7698 181.586 27.8461 173.518 33.9577C173.498 33.9577 157.264 47.026 154.275 51.1921Z" fill="white"/>
<path d="M143.354 31.3441C147.105 25.881 153.103 26.2937 153.103 26.2937C162.324 26.6081 170.783 36.5124 170.783 36.5124L177.327 42.7812C191.081 54.4542 196.16 44.3534 196.16 44.3534V44.3337C193.698 50.3667 186.861 51.2117 186.861 51.2117C176.937 52.5284 167.032 40.541 167.032 40.541L161.503 34.9796C149.743 25.3897 143.374 31.3441 143.374 31.3441H143.354Z" fill="white"/>
<path d="M130.034 33.5614L126.277 37.3409L130.034 41.1205L133.792 37.3409L130.034 33.5614Z" fill="white"/>
<path d="M123.518 33.5805L119.761 37.3601L123.518 41.1397L127.275 37.3601L123.518 33.5805Z" fill="white"/>
<path d="M107.369 21.0663C102.192 21.2629 100.962 25.8613 100.962 25.8613C99.8871 31.4816 106.139 31.8353 106.139 31.8353L107.369 30.6563C106.764 30.8135 104.927 30.3418 104.927 30.3418C101.977 29.32 102.505 26.274 102.505 26.274C103.638 22.0489 107.428 22.4616 107.428 22.4616V33.3878C107.018 34.9796 106.451 35.0975 106.451 35.0975C105.474 35.7656 103.833 35.4512 103.833 35.4512L103.775 36.591C106.021 37.0626 107.565 35.9818 107.565 35.9818C108.796 35.3726 108.991 33.604 108.991 33.604V21.0663H107.369Z" fill="white"/>
<path d="M95.8822 33.3878C95.472 34.9796 94.9054 35.0975 94.9054 35.0975C93.9286 35.7656 92.2876 35.4512 92.2876 35.4512L92.229 36.591C94.4756 37.0626 96.019 35.9818 96.019 35.9818C97.2497 35.3726 97.4451 33.604 97.4451 33.604V22.4616H95.8627V33.3878H95.8822Z" fill="white"/>
<path d="M83.0278 33.3878C82.6175 34.9796 82.051 35.0975 82.051 35.0975C81.0741 35.7656 79.4331 35.4512 79.4331 35.4512L79.3745 36.591C81.6212 37.0626 83.1645 35.9818 83.1645 35.9818C84.3953 35.3726 84.5906 33.604 84.5906 33.604V22.4616H83.0278V33.3878Z" fill="white"/>
<path d="M90.8026 14.267H89.2202V31.7371H90.8026V14.267Z" fill="white"/>
<path d="M61.8895 14.267H60.3071V31.7371H61.8895V14.267Z" fill="white"/>
<path d="M53.841 30.558H49.0937C50.3831 23.1887 45.8117 21.6952 45.8117 21.6952C40.8886 20.1428 37.1573 26.6867 37.1573 26.6867C36.8447 27.1976 35.0474 30.558 35.0474 30.558V24.6822H33.465V30.558H29.0499V29.2217C29.0499 29.2217 29.2453 23.3459 22.4468 21.7542H15.0231V23.0119H21.7825C21.7825 23.0119 26.6079 23.287 27.3698 28.8091V30.558H8.69348V20.7126H7.11107H7.05246C1.15262 20.7126 0.293043 25.7631 0.293043 25.7631C-0.507929 32.2874 5.60681 31.6978 5.60681 31.6978L6.70082 30.6563C6.3101 30.5973 4.47373 30.558 4.47373 30.558C1.23077 29.5951 1.91452 25.9596 1.91452 25.9596C3.0476 21.7345 7.11107 22.0883 7.11107 22.0883V30.5384V31.1279V31.7175H8.69348H33.4455H35.0279H53.8214H55.4038V30.5384V14.267H53.8214V30.558H53.841ZM40.791 24.0534C45.8703 20.752 47.1987 25.3504 47.1987 25.3504C47.9216 27.0208 47.6871 29.4379 47.5113 30.558H36.5907C37.1573 26.6867 40.791 24.0534 40.791 24.0534Z" fill="white"/>
<path d="M69.3916 26.2151C69.3916 26.2151 68.786 30.4991 73.4355 31.7371H77.8506V20.8109H75.1351C75.1351 20.8109 70.2512 21.5773 69.3916 26.2151ZM76.3073 30.617H73.4941C70.5247 29.6344 70.9154 26.2347 70.9154 26.2347C71.4624 22.5402 74.5686 21.931 74.5686 21.931H76.3073V30.617Z" fill="white"/>
<path d="M7.57988 18.2759C8.26364 18.2759 8.81064 17.7256 8.81064 17.0378C8.81064 16.35 8.26364 15.7998 7.57988 15.7998C6.89613 15.7998 6.34912 16.35 6.34912 17.0378C6.34912 17.7256 6.89613 18.2759 7.57988 18.2759Z" fill="white"/>
<path d="M4.23013 18.2753C4.90966 18.2585 5.44703 17.6908 5.43038 17.0073C5.41373 16.3237 4.84937 15.7832 4.16985 15.7999C3.49032 15.8167 2.95295 16.3844 2.9696 17.0679C2.98625 17.7515 3.55061 18.292 4.23013 18.2753Z" fill="white"/>
<path d="M76.8934 18.2759C77.5731 18.2759 78.1241 17.7216 78.1241 17.0378C78.1241 16.3541 77.5731 15.7998 76.8934 15.7998C76.2136 15.7998 75.6626 16.3541 75.6626 17.0378C75.6626 17.7216 76.2136 18.2759 76.8934 18.2759Z" fill="white"/>
<path d="M96.6634 15.7998C95.9796 15.7998 95.4326 16.35 95.4326 17.0378C95.4326 17.7256 95.9796 18.2759 96.6634 18.2759C97.3472 18.2759 97.8942 17.7256 97.8942 17.0378C97.8942 16.35 97.3276 15.7998 96.6634 15.7998Z" fill="white"/>
<path d="M73.494 18.2759C74.1777 18.2759 74.7247 17.7256 74.7247 17.0378C74.7247 16.35 74.1777 15.7998 73.494 15.7998C72.8102 15.7998 72.2632 16.35 72.2632 17.0378C72.2632 17.7256 72.8297 18.2759 73.494 18.2759Z" fill="white"/>
<path d="M23.5993 39.1458C23.3649 39.1458 23.1891 39.2244 23.0328 39.3619C22.8765 39.4995 22.7983 39.6763 22.7983 39.8729C22.7983 40.089 22.8765 40.2462 23.0328 40.4034C23.1891 40.541 23.3844 40.6196 23.5993 40.6196C23.8337 40.6196 24.0096 40.541 24.1659 40.4034C24.3221 40.2659 24.4003 40.089 24.4003 39.8729C24.4003 39.6567 24.3221 39.4995 24.1659 39.3619C24.0096 39.2244 23.8142 39.1458 23.5993 39.1458Z" fill="white"/>
<path d="M29.3427 46.0434L28.1901 45.5325C27.35 45.1591 26.9202 44.7071 26.9202 44.1962C26.9202 43.9407 27.057 43.7245 27.3305 43.5477C27.5649 43.3905 27.8384 43.3315 28.151 43.3315C28.5026 43.3315 28.7957 43.3905 29.0496 43.528C29.0496 43.528 29.8701 44.0586 30.1046 44.432L30.5344 43.7835L29.4599 43.1153L29.2059 43.0367C28.7957 42.9188 28.444 42.8795 28.1705 42.8795C27.5258 42.8795 26.9984 43.0564 26.5881 43.4101C26.1779 43.7638 25.963 44.2355 25.963 44.8054C25.963 45.2966 26.1583 45.729 26.5295 46.0631C26.7639 46.2792 27.1937 46.515 27.8189 46.8098C28.444 47.1046 28.8543 47.3207 29.0496 47.4583C29.499 47.7727 29.7334 48.1265 29.7334 48.5195C29.7334 48.8339 29.6162 49.0697 29.3622 49.2662C29.1278 49.4431 28.8347 49.5414 28.5026 49.5414L27.7017 49.3449C27.1156 49.2466 26.1974 48.1265 26.1974 48.1265L25.6504 48.5391C26.1583 49.3449 26.9788 49.7575 26.9788 49.7575C27.5258 49.9147 28.0338 49.9737 28.5026 49.9737C29.1473 49.9737 29.7139 49.7772 30.2023 49.4038C30.6907 49.0304 30.9251 48.5391 30.9251 47.9496C30.9642 47.1635 30.4171 46.5347 29.3427 46.0434Z" fill="white"/>
<path d="M34.7737 49.0501C34.2853 49.0501 34.0509 48.6767 34.0509 47.9496V43.6066H35.7505V43.076H34.0509V40.8751H33.7969C33.582 41.3663 33.4062 41.7201 33.289 41.8969C32.781 42.624 32.2145 43.1153 31.5894 43.3511V43.587H32.742V48.0675C32.742 48.5391 32.8006 48.8929 32.8983 49.1287C33.1327 49.6003 33.5429 49.8361 34.129 49.8361C34.9691 49.8361 35.5747 49.4824 35.9459 48.5195H35.6333C35.4575 48.9715 35.1644 49.0501 34.7737 49.0501Z" fill="white"/>
<path d="M40.7128 43.1153C40.5175 42.9581 40.283 42.8992 40.0095 42.8992C39.3649 42.8992 38.7592 43.3905 38.1536 44.3927V42.8992H36.8447V49.7772H38.1536V45.0019C38.5639 44.2551 38.9155 43.8621 39.2086 43.8621C39.2867 43.8621 39.4625 43.9407 39.7165 44.1176C39.9705 44.2944 40.1658 44.373 40.3221 44.373C40.5175 44.373 40.6933 44.3141 40.8301 44.1765C40.9668 44.039 41.0254 43.8817 41.0254 43.7049C41.0059 43.4691 40.9082 43.2725 40.7128 43.1153Z" fill="white"/>
<path d="M45.5576 48.0282L43.1743 42.8992H41.6895L44.913 49.5021L44.3855 50.6615C44.0534 51.3886 43.7017 51.762 43.2915 51.762C43.2329 51.762 43.1157 51.7227 42.9008 51.6441C42.5882 51.5458 42.3538 51.4869 42.1779 51.4869C41.6309 51.4869 41.3574 51.703 41.3574 52.155C41.3574 52.4105 41.4746 52.607 41.6895 52.7445C41.9044 52.9018 42.1584 52.9607 42.4319 52.9607C42.9594 52.9607 43.4673 52.7445 43.9362 52.3122C44.3464 51.9585 44.659 51.5065 44.8739 50.9759L48.5271 42.8402H47.8629L45.5576 48.0282Z" fill="white"/>
<path d="M56.8299 42.8992C56.2243 42.8992 55.6578 43.0367 55.1108 43.3315C54.5638 43.6263 54.134 44.0586 53.8019 44.6678C53.4698 45.277 53.3135 45.8862 53.3135 46.4954C53.3135 47.3404 53.587 48.0872 54.134 48.775C54.7787 49.5807 55.6578 49.9934 56.7518 49.9934C57.416 49.9934 58.0216 49.8361 58.5686 49.5217C59.1156 49.2073 59.5454 48.7357 59.8775 48.1265C60.1901 47.5369 60.3269 46.9277 60.3269 46.3185C60.3269 45.4539 60.0534 44.7071 59.4868 44.0586C58.8031 43.2725 57.9239 42.8992 56.8299 42.8992ZM57.0839 49.4431C56.3025 49.4431 55.6969 49.0108 55.2866 48.1265C54.974 47.4583 54.8177 46.7116 54.8177 45.8862C54.8177 45.277 54.8959 44.7857 55.0717 44.4123C55.3843 43.7245 55.8922 43.3708 56.5955 43.3708C57.162 43.3708 57.6309 43.6066 58.0216 44.0783C58.5882 44.7661 58.8617 45.6897 58.8617 46.8688C58.8421 48.5785 58.2561 49.4431 57.0839 49.4431Z" fill="white"/>
<path d="M67.3012 39.9121C66.8324 39.578 66.3244 39.4208 65.7774 39.4208C65.1718 39.4208 64.6444 39.5584 64.156 39.8335C63.1987 40.4034 62.7298 40.993 62.7298 42.3096V42.7616H61.3232V43.2725H62.7298V48.0085C62.7298 48.4802 62.6908 48.8142 62.6322 48.9714C62.4954 49.3252 62.1828 49.502 61.714 49.502H61.3819V49.7772H65.7384V49.502H65.0546C64.7225 49.502 64.4685 49.4038 64.2732 49.1876C64.1169 49.0304 64.0387 48.6374 64.0387 48.0085V43.2725H65.9142V42.7616H64.0387V42.2899C64.0387 41.2484 64.0778 40.9537 64.156 40.6982C64.2927 40.2069 64.6248 39.9711 65.1327 39.9711C65.543 39.9711 65.8946 40.1872 66.2072 40.6196C66.5198 41.0519 66.8324 41.2681 67.1059 41.2681C67.2622 41.2681 67.3989 41.2091 67.5357 41.0716C67.6724 40.934 67.7506 40.7964 67.7506 40.6589C67.7701 40.3641 67.6138 40.1283 67.3012 39.9121Z" fill="white"/>
<path d="M86.3485 43.6459C85.8405 43.135 85.1568 42.8795 84.3167 42.8795C83.2422 42.8795 82.3827 43.2529 81.7771 43.98C81.23 44.6285 80.9565 45.4735 80.9565 46.4954C80.9565 47.4387 81.23 48.2247 81.7771 48.8732C82.3631 49.5807 83.1446 49.954 84.1409 49.954C84.9028 49.954 85.5866 49.6789 86.1336 49.1483C86.661 48.6374 86.9931 48.0282 87.1299 47.3011L86.8564 47.1439C86.4266 48.2247 85.7233 48.7553 84.7661 48.7553C83.9065 48.7553 83.2227 48.4016 82.7539 47.7138C82.3241 47.1046 82.1287 46.3971 82.1287 45.5718H87.1494C87.0908 44.8054 86.8564 44.1569 86.3485 43.6459ZM82.0701 45.1984C82.1287 44.7071 82.3045 44.3141 82.5976 43.98C82.9297 43.6066 83.3399 43.4298 83.8479 43.4298C84.5121 43.4298 84.9809 43.7245 85.2544 44.2944C85.3326 44.4713 85.3912 44.7661 85.4107 45.1984H82.0701Z" fill="white"/>
<path d="M91.1936 42.7419C90.5489 42.7419 89.9823 42.8599 89.4744 43.1153C88.8493 43.4297 88.5367 43.8621 88.5367 44.4123C88.5367 44.884 88.7711 45.1198 89.2204 45.1198C89.6893 45.1198 89.9237 44.884 89.9042 44.4123L89.8847 43.9996C89.8651 43.7442 89.9823 43.5477 90.2363 43.3904C90.4512 43.2529 90.7052 43.1743 90.9787 43.1743C91.5061 43.1743 91.8578 43.3511 92.0727 43.7245C92.229 43.98 92.3071 44.3927 92.3071 44.9429V45.218C91.0568 45.6307 90.1582 45.9844 89.6307 46.2792C88.732 46.7705 88.2632 47.36 88.2632 48.0478C88.2632 48.5391 88.4195 48.9518 88.732 49.2859C89.0446 49.6003 89.4549 49.7772 89.9823 49.7772C90.3145 49.7772 90.6075 49.7182 90.881 49.6003C91.0764 49.5217 91.5452 49.2073 92.2876 48.6963V49.7772H93.5965V45.0608C93.5965 44.4123 93.5379 43.98 93.4402 43.7638C93.1667 43.076 92.4048 42.7419 91.1936 42.7419ZM92.2876 48.1854C91.6429 48.6767 91.1154 48.9322 90.7052 48.9322C90.3731 48.9322 90.0996 48.8142 89.9042 48.5588C89.7088 48.3033 89.5916 48.0282 89.5916 47.6941C89.5916 47.1242 89.9628 46.6526 90.7247 46.2399C90.9787 46.1023 91.4866 45.9058 92.268 45.6111V48.1854H92.2876Z" fill="white"/>
<path d="M100.825 49.0501C100.337 49.0501 100.102 48.6767 100.102 47.9496V43.6066H101.802V43.076H100.102V40.8751H99.8482C99.6333 41.3663 99.4575 41.7201 99.3402 41.8969C98.8323 42.624 98.2658 43.1153 97.6406 43.3511V43.587H98.7932V48.0675C98.7932 48.5391 98.8518 48.8929 98.9495 49.1287C99.184 49.6003 99.5942 49.8361 100.18 49.8361C101.02 49.8361 101.626 49.3645 101.997 48.4016H101.685C101.509 48.8536 101.216 49.0501 100.825 49.0501Z" fill="white"/>
<path d="M107.584 49.4628H108.932C108.932 49.4038 108.932 49.3449 108.932 49.2663V45.8862C108.932 45.0608 108.893 44.4909 108.795 44.1765C108.522 43.3119 107.936 42.8992 107.076 42.8992C106.627 42.8992 106.177 43.0564 105.709 43.3512C105.435 43.528 105.083 43.8424 104.654 44.2944V39.0868L103.325 39.8925V49.2859C103.325 49.3449 103.325 49.4235 103.325 49.4824H104.654C104.654 49.4235 104.654 49.3645 104.654 49.2859V44.7464C105.298 44.0979 105.884 43.7835 106.431 43.7835C106.685 43.7835 106.9 43.8424 107.076 43.9407C107.33 44.0979 107.486 44.4123 107.564 44.8447C107.584 45.0019 107.604 45.3556 107.604 45.8862V49.2859C107.604 49.3449 107.584 49.4038 107.584 49.4628Z" fill="white"/>
<path d="M96.8592 44.7268V44.2748V39.0671L95.5308 39.8728V49.2662C95.5308 49.3252 95.5308 49.4038 95.5308 49.4628H96.8592C96.8592 49.4038 96.8592 49.3449 96.8592 49.2662V44.7268Z" fill="white"/>
<path d="M24.244 44.7268V44.2748V42.4079L22.9155 43.2136V49.2662C22.9155 49.3252 22.9155 49.4038 22.9155 49.8558H24.244C24.244 49.3842 24.244 49.3252 24.244 49.2662V44.7268Z" fill="white"/>
<path d="M12.9914 39.1458C12.757 39.1458 12.5811 39.2244 12.4249 39.3619C12.2686 39.4995 12.1904 39.6763 12.1904 39.8729C12.1904 40.089 12.2686 40.2462 12.4249 40.4034C12.5811 40.541 12.7765 40.6196 12.9914 40.6196C13.2258 40.6196 13.4017 40.541 13.5579 40.4034C13.7142 40.2659 13.7924 40.089 13.7924 39.8729C13.7924 39.6567 13.7142 39.4995 13.5579 39.3619C13.4017 39.2244 13.2258 39.1458 12.9914 39.1458Z" fill="white"/>
<path d="M13.6556 44.7268V44.2748V42.4079L12.3271 43.2136V49.2662C12.3271 49.3252 12.3271 49.4038 12.3271 49.8558H13.6556C13.6556 49.3842 13.6556 49.3252 13.6556 49.2662V44.7268Z" fill="white"/>
<path d="M78.9056 41.052C78.9056 40.8751 78.9056 40.6982 78.9252 40.5607H77.3623C77.3623 40.6786 77.3623 40.8358 77.3623 41.052V44.4517H72.7909V41.052C72.7909 40.8751 72.7909 40.6982 72.8104 40.5607H71.2671C71.2671 40.6786 71.2671 40.8358 71.2671 41.052V49.168C71.2671 49.4038 71.2671 49.5807 71.2476 49.7576H72.8104C72.8104 49.62 72.8104 49.4431 72.8104 49.168V45.0019H77.3623V49.1877C77.3623 49.4038 77.3427 49.6003 77.3232 49.7772H78.8861C78.8665 49.6593 78.8666 49.4628 78.8666 49.1877V41.052H78.9056Z" fill="white"/>
<path d="M19.3798 42.8992C18.5984 42.8992 17.7974 43.3708 16.9573 44.2944V42.8992H15.6289V49.7772H16.9573V44.7464C17.563 44.1176 18.1881 43.7835 18.8133 43.7835C19.5556 43.7835 19.9463 44.3534 19.9463 45.5128V49.7772H21.2552V45.3949C21.2552 44.7857 21.1966 44.3337 21.099 44.0586C20.7473 43.2922 20.1808 42.8992 19.3798 42.8992Z" fill="white"/>
<path d="M5.27469 47.6155L1.83637 40.6196H0V49.7772H0.703292V41.445L4.72769 49.7772H4.98165L9.00605 41.445V49.7772H10.4908V40.6196H8.6544L5.27469 47.6155Z" fill="white"/>
</svg>
