<svg width="40" height="40" viewBox="0 0 40 40" fill="none" xmlns="http://www.w3.org/2000/svg">
<path d="M20 0C8.97167 0 0 8.97167 0 20C0 31.0283 8.97167 40 20 40C31.0283 40 40 31.0283 40 20C40 8.97167 31.0283 0 20 0Z" fill="#5BB647"/>
<path opacity="0.2" d="M20 0.416667C30.9583 0.416667 39.8767 9.27667 39.99 20.2083C39.99 20.1383 40 20.07 40 20C40 8.97167 31.0283 0 20 0C8.97167 0 0 8.97167 0 20C0 20.07 0.01 20.1383 0.01 20.2083C0.123333 9.27667 9.04333 0.416667 20 0.416667Z" fill="white"/>
<path opacity="0.1" d="M20 39.5833C9.04167 39.5833 0.123333 30.7233 0.01 19.7916C0.01 19.8616 0 19.93 0 20C0 31.0283 8.97167 40 20 40C31.0283 40 40 31.0283 40 20C40 19.93 39.99 19.8616 39.99 19.7916C39.8767 30.7233 30.9567 39.5833 20 39.5833Z" fill="black"/>
<path d="M15.8333 29.8566L6.66663 20.69L9.02329 18.3333L15.8333 25.1433L29.31 11.6666L31.6666 14.0233L15.8333 29.8566Z" fill="white"/>
<path d="M31.6667 14.0234L15.8334 29.8567L25.2534 39.2767C33.0434 37.1501 38.9534 30.4401 39.87 22.2267L31.6667 14.0217V14.0234Z" fill="url(#paint0_linear_2680_39905)"/>
<defs>
<linearGradient id="paint0_linear_2680_39905" x1="24.345" y1="22.5351" x2="33.275" y2="31.4651" gradientUnits="userSpaceOnUse">
<stop stop-opacity="0.1"/>
<stop offset="1" stop-opacity="0"/>
</linearGradient>
</defs>
</svg>
