<svg width="34" height="34" viewBox="0 0 34 34" fill="none" xmlns="http://www.w3.org/2000/svg">
<path d="M20.683 21.7438L12.1977 13.2585C11.9078 12.9686 11.9078 12.4877 12.1977 12.1978C12.4876 11.9079 12.9684 11.9079 13.2584 12.1978L21.7436 20.6831C22.0336 20.973 22.0336 21.4538 21.7436 21.7438C21.4537 22.0337 20.9729 22.0337 20.683 21.7438Z" fill="#959DB2"/>
<path d="M12.1978 21.7438C11.9079 21.4538 11.9079 20.973 12.1978 20.6831L20.683 12.1978C20.973 11.9079 21.4538 11.9079 21.7437 12.1978C22.0336 12.4877 22.0336 12.9686 21.7437 13.2585L13.2584 21.7438C12.9685 22.0337 12.4877 22.0337 12.1978 21.7438Z" fill="#959DB2"/>
</svg>
