<svg width="40" height="40" viewBox="0 0 40 40" fill="none" xmlns="http://www.w3.org/2000/svg">
<path d="M19.9998 22.1667C19.7831 22.1667 19.5665 22.1167 19.3665 22L4.64981 13.4834C4.06648 13.1334 3.84981 12.3667 4.19981 11.7667C4.54981 11.1667 5.31648 10.9667 5.91648 11.3167L19.9998 19.4667L33.9998 11.3667C34.5998 11.0167 35.3665 11.2334 35.7165 11.8167C36.0665 12.4167 35.8498 13.1834 35.2665 13.5334L20.6498 22C20.4331 22.1 20.2165 22.1667 19.9998 22.1667Z" fill="#1A355E"/>
<path d="M20 37.2667C19.3167 37.2667 18.75 36.7 18.75 36.0167V20.9C18.75 20.2167 19.3167 19.65 20 19.65C20.6833 19.65 21.25 20.2167 21.25 20.9V36.0167C21.25 36.7 20.6833 37.2667 20 37.2667Z" fill="#1A355E"/>
<path d="M20.0001 37.9166C18.5334 37.9166 17.0834 37.6 15.9334 36.9666L7.0334 32.0166C4.61673 30.6833 2.7334 27.4666 2.7334 24.7V15.2833C2.7334 12.5166 4.61673 9.31665 7.0334 7.96665L15.9334 3.03331C18.2167 1.76665 21.7834 1.76665 24.0667 3.03331L32.9667 7.98331C35.3834 9.31665 37.2667 12.5333 37.2667 15.3V24.7166C37.2667 27.4833 35.3834 30.6833 32.9667 32.0333L24.0667 36.9666C22.9167 37.6 21.4667 37.9166 20.0001 37.9166ZM20.0001 4.58331C18.9501 4.58331 17.9167 4.79998 17.1501 5.21665L8.25007 10.1666C6.65007 11.05 5.2334 13.45 5.2334 15.2833V24.7C5.2334 26.5333 6.65007 28.9333 8.25007 29.8333L17.1501 34.7833C18.6667 35.6333 21.3334 35.6333 22.8501 34.7833L31.7501 29.8333C33.3501 28.9333 34.7667 26.55 34.7667 24.7V15.2833C34.7667 13.45 33.3501 11.05 31.7501 10.15L22.8501 5.19998C22.0834 4.79998 21.0501 4.58331 20.0001 4.58331Z" fill="#1A355E"/>
</svg>
