<svg width="15" height="18" viewBox="0 0 15 18" fill="none" xmlns="http://www.w3.org/2000/svg">
<path d="M13.8821 5.28V12.72C13.8821 13.86 13.7773 14.67 13.5079 15.2475C13.5079 15.255 13.5004 15.27 13.4929 15.2775C13.3282 15.4875 13.1112 15.5925 12.8567 15.5925C12.46 15.5925 11.981 15.33 11.4646 14.775C10.8509 14.115 9.9078 14.1675 9.36891 14.8875L8.61302 15.8925C8.31364 16.2975 7.91694 16.5 7.52026 16.5C7.12359 16.5 6.72689 16.2975 6.42751 15.8925L5.66413 14.88C5.13273 14.1675 4.19714 14.115 3.58341 14.7675L3.57592 14.775C2.73018 15.6825 1.98176 15.8175 1.54766 15.2775C1.54017 15.27 1.53267 15.255 1.53267 15.2475C1.26323 14.67 1.15845 13.86 1.15845 12.72V5.28C1.15845 4.14 1.26323 3.33 1.53267 2.7525C1.53267 2.745 1.53269 2.7375 1.54766 2.73C1.97427 2.1825 2.73018 2.3175 3.57592 3.225L3.58341 3.2325C4.19714 3.885 5.13273 3.8325 5.66413 3.12L6.42751 2.1075C6.72689 1.7025 7.12359 1.5 7.52026 1.5C7.91694 1.5 8.31364 1.7025 8.61302 2.1075L9.36891 3.1125C9.9078 3.8325 10.8509 3.885 11.4646 3.225C11.981 2.67 12.46 2.4075 12.8567 2.4075C13.1112 2.4075 13.3282 2.52 13.4929 2.73C13.5078 2.7375 13.5079 2.745 13.5079 2.7525C13.7773 3.33 13.8821 4.14 13.8821 5.28Z" stroke="#1A355E" stroke-width="1.5" stroke-linecap="round" stroke-linejoin="round"/>
</svg>
