<svg width="19" height="18" viewBox="0 0 19 18" fill="none" xmlns="http://www.w3.org/2000/svg">
<path d="M15.8821 5.28V12.72C15.8821 13.86 15.7773 14.67 15.5079 15.2475C15.5079 15.255 15.5004 15.27 15.4929 15.2775C15.3282 15.4875 15.1112 15.5925 14.8567 15.5925C14.46 15.5925 13.981 15.33 13.4646 14.775C12.8509 14.115 11.9078 14.1675 11.3689 14.8875L10.613 15.8925C10.3136 16.2975 9.91694 16.5 9.52026 16.5C9.12359 16.5 8.72689 16.2975 8.42751 15.8925L7.66413 14.88C7.13273 14.1675 6.19714 14.115 5.58341 14.7675L5.57592 14.775C4.73018 15.6825 3.98176 15.8175 3.54766 15.2775C3.54017 15.27 3.53267 15.255 3.53267 15.2475C3.26323 14.67 3.15845 13.86 3.15845 12.72V5.28C3.15845 4.14 3.26323 3.33 3.53267 2.7525C3.53267 2.745 3.53269 2.7375 3.54766 2.73C3.97427 2.1825 4.73018 2.3175 5.57592 3.225L5.58341 3.2325C6.19714 3.885 7.13273 3.8325 7.66413 3.12L8.42751 2.1075C8.72689 1.7025 9.12359 1.5 9.52026 1.5C9.91694 1.5 10.3136 1.7025 10.613 2.1075L11.3689 3.1125C11.9078 3.8325 12.8509 3.885 13.4646 3.225C13.981 2.67 14.46 2.4075 14.8567 2.4075C15.1112 2.4075 15.3282 2.52 15.4929 2.73C15.5078 2.7375 15.5079 2.745 15.5079 2.7525C15.7773 3.33 15.8821 4.14 15.8821 5.28Z" stroke="#1A355E" stroke-width="1.5" stroke-linecap="round" stroke-linejoin="round"/>
<path opacity="0.4" d="M6.90063 7.6875H12.8882" stroke="#1A355E" stroke-width="1.5" stroke-linecap="round" stroke-linejoin="round"/>
<path opacity="0.4" d="M6.90063 10.3125H11.3913" stroke="#1A355E" stroke-width="1.5" stroke-linecap="round" stroke-linejoin="round"/>
</svg>
