<svg width="20" height="19" viewBox="0 0 20 19" fill="none" xmlns="http://www.w3.org/2000/svg">
<path fill-rule="evenodd" clip-rule="evenodd" d="M10.001 13.5411C9.58698 13.5411 9.25098 13.2051 9.25098 12.7911V0.750092C9.25098 0.336092 9.58698 9.15527e-05 10.001 9.15527e-05C10.415 9.15527e-05 10.751 0.336092 10.751 0.750092V12.7911C10.751 13.2051 10.415 13.5411 10.001 13.5411Z" fill="#1A355E"/>
<path fill-rule="evenodd" clip-rule="evenodd" d="M10.001 13.5411C9.80201 13.5411 9.61001 13.4621 9.47001 13.3201L6.55401 10.3931C6.26201 10.0991 6.26301 9.62409 6.55601 9.33209C6.85001 9.04009 7.32401 9.04009 7.61601 9.33409L10.001 11.7291L12.386 9.33409C12.678 9.04009 13.152 9.04009 13.446 9.33209C13.739 9.62409 13.74 10.0991 13.448 10.3931L10.532 13.3201C10.392 13.4621 10.2 13.5411 10.001 13.5411Z" fill="#1A355E"/>
<mask id="mask0_1413_3629" style="mask-type:alpha" maskUnits="userSpaceOnUse" x="0" y="4" width="20" height="15">
<path fill-rule="evenodd" clip-rule="evenodd" d="M0.000183105 4.7326H20V18.4766H0.000183105V4.7326Z" fill="white"/>
</mask>
<g mask="url(#mask0_1413_3629)">
<path fill-rule="evenodd" clip-rule="evenodd" d="M15.5752 18.4766H4.43518C1.99018 18.4766 0.000183105 16.4876 0.000183105 14.0416V9.1566C0.000183105 6.7166 1.98518 4.7326 4.42618 4.7326H5.36718C5.78118 4.7326 6.11718 5.0686 6.11718 5.4826C6.11718 5.89661 5.78118 6.2326 5.36718 6.2326H4.42618C2.81218 6.2326 1.50018 7.5436 1.50018 9.1566V14.0416C1.50018 15.6606 2.81618 16.9766 4.43518 16.9766H15.5752C17.1872 16.9766 18.5002 15.6636 18.5002 14.0516V9.1676C18.5002 7.5486 17.1832 6.2326 15.5662 6.2326H14.6342C14.2202 6.2326 13.8842 5.89661 13.8842 5.4826C13.8842 5.0686 14.2202 4.7326 14.6342 4.7326H15.5662C18.0112 4.7326 20.0002 6.7226 20.0002 9.1676V14.0516C20.0002 16.4916 18.0142 18.4766 15.5752 18.4766Z" fill="#1A355E"/>
</g>
</svg>
