<svg width="30" height="30" viewBox="0 0 30 30" fill="none" xmlns="http://www.w3.org/2000/svg">
<path opacity="0.4" d="M13.1124 2.78751L6.87495 5.12503C5.43745 5.66253 4.26245 7.36251 4.26245 8.90001V18.1875C4.26245 19.6625 5.23746 21.6 6.42496 22.4875L11.7999 26.5C13.5624 27.825 16.4624 27.825 18.2249 26.5L23.6 22.4875C24.7875 21.6 25.7624 19.6625 25.7624 18.1875V8.90001C25.7624 7.36251 24.5874 5.66253 23.1499 5.12503L16.9124 2.78751C15.8499 2.40001 14.1499 2.40001 13.1124 2.78751Z" fill="#31CD82"/>
<path d="M14.8748 14.125C14.8998 14.125 14.9248 14.125 14.9498 14.125H14.9749H14.9999C16.4374 14.075 17.5624 12.9125 17.5749 11.4625C17.5749 9.98751 16.3749 8.78751 14.8999 8.78751C13.4249 8.78751 12.2249 9.98751 12.2249 11.4625C12.2499 12.9 13.3748 14.075 14.8748 14.125Z" fill="#31CD82"/>
<path d="M17.7374 16.7625C16.2249 15.7625 13.7749 15.7625 12.2499 16.7625C11.5499 17.2375 11.1375 17.9125 11.1375 18.6125C11.1375 19.325 11.5374 19.975 12.2499 20.45C13.0124 20.95 13.9999 21.2125 14.9874 21.2125C15.9749 21.2125 16.9749 20.9625 17.7249 20.45C18.4249 19.975 18.8375 19.3 18.8375 18.6C18.85 17.8875 18.4499 17.2375 17.7374 16.7625Z" fill="#31CD82"/>
</svg>
