<svg width="20" height="25" viewBox="0 0 20 25" fill="none" xmlns="http://www.w3.org/2000/svg">
<path d="M12.5 0H2.5C1.83696 0 1.20107 0.263392 0.732233 0.732233C0.263392 1.20107 0 1.83696 0 2.5V22.5C0 23.163 0.263392 23.7989 0.732233 24.2678C1.20107 24.7366 1.83696 25 2.5 25H17.5C18.163 25 18.7989 24.7366 19.2678 24.2678C19.7366 23.7989 20 23.163 20 22.5V7.5L12.5 0ZM6.54875 18.0575C6.54875 19.4975 5.86 20 4.75125 20C4.48875 20 4.14375 19.955 3.92 19.8787L4.04625 18.9575C4.205 19.01 4.4075 19.0475 4.6325 19.0475C5.1125 19.0475 5.41125 18.83 5.41125 18.0425V14.8637H6.55V18.0575H6.54875ZM10.6662 17.6012C10.275 17.9675 9.7 18.1338 9.025 18.1338C8.875 18.1338 8.74 18.125 8.635 18.11V19.9163H7.5025V14.9312C8.01377 14.8543 8.53052 14.8196 9.0475 14.8275C9.75125 14.8275 10.2537 14.9613 10.59 15.2313C10.9137 15.4863 11.1312 15.9062 11.1312 16.4013C11.1312 16.8962 10.965 17.3162 10.6662 17.6012ZM16.08 19.685C15.73 19.805 15.0612 19.97 14.3937 19.97C13.4725 19.97 12.805 19.7375 12.34 19.2875C11.8762 18.8525 11.6212 18.1938 11.6275 17.4513C11.6362 15.7713 12.8562 14.8125 14.5137 14.8125C15.165 14.8125 15.6687 14.9413 15.915 15.06L15.6762 15.9738C15.3987 15.8538 15.055 15.7562 14.5 15.7562C13.5487 15.7562 12.8275 16.2962 12.8275 17.3913C12.8275 18.4325 13.4812 19.0475 14.4162 19.0475C14.68 19.0475 14.8887 19.0175 14.98 18.9713V17.9137H14.2V17.0225H16.08V19.685ZM12.5 8.75H11.25V2.5L17.5 8.75H12.5Z" fill="#B07FC8"/>
</svg>
