<svg width="49" height="48" viewBox="0 0 49 48" fill="none" xmlns="http://www.w3.org/2000/svg">
<rect x="0.841797" width="48" height="48" rx="24" fill="#5BB647"/>
<path opacity="0.4" d="M36.1426 17.9875L24.8426 24.525L13.5426 17.9875C14.0426 17.0625 14.7676 16.25 15.5801 15.8L22.2551 12.1C23.6801 11.3 26.0051 11.3 27.4301 12.1L34.1051 15.8C34.9176 16.25 35.6426 17.0625 36.1426 17.9875Z" fill="#F2F2F2"/>
<path opacity="0.6" d="M24.8426 24.525V36.5C23.9051 36.5 22.9676 36.3001 22.2551 35.9001L15.5801 32.2C14.0676 31.3625 12.8301 29.2625 12.8301 27.5375V20.4625C12.8301 19.6625 13.1051 18.7875 13.5426 17.9875L24.8426 24.525Z" fill="#F2F2F2"/>
<path d="M36.8551 20.4625V27.5375C36.8551 29.2625 35.6176 31.3625 34.1051 32.2L27.4301 35.9001C26.7176 36.3001 25.7801 36.5 24.8426 36.5V24.525L36.1426 17.9875C36.5801 18.7875 36.8551 19.6625 36.8551 20.4625Z" fill="#F2F2F2"/>
<path d="M32.6513 23.5353L31.0275 24.4728L31.0275 26.6562L29.1331 27.75L29.1331 29.625L31.0275 28.5312L31.0275 30.7147L32.6513 29.7772L32.6513 27.5937L34.5457 26.5L34.5457 24.625L32.6513 25.7187L32.6513 23.5353Z" fill="#FF5454"/>
<path d="M17.2775 23.5353L18.9013 24.4728L18.9013 26.6562L20.7957 27.75L20.7957 29.625L18.9013 28.5312L18.9013 30.7147L17.2775 29.7772L17.2775 27.5937L15.3831 26.5L15.3831 24.625L17.2775 25.7187L17.2775 23.5353Z" fill="#FF5454"/>
</svg>
