<svg width="49" height="48" viewBox="0 0 49 48" fill="none" xmlns="http://www.w3.org/2000/svg">
<rect x="0.600098" width="48" height="48" rx="24" fill="#2A347B"/>
<path opacity="0.4" d="M35.9009 17.9875L24.6009 24.525L13.3009 17.9875C13.8009 17.0625 14.5259 16.25 15.3384 15.8L22.0134 12.1C23.4384 11.3 25.7634 11.3 27.1884 12.1L33.8634 15.8C34.6759 16.25 35.4009 17.0625 35.9009 17.9875Z" fill="#F2F2F2"/>
<path opacity="0.6" d="M24.6009 24.525V36.5C23.6634 36.5 22.7259 36.3001 22.0134 35.9001L15.3384 32.2C13.8259 31.3625 12.5884 29.2625 12.5884 27.5375V20.4625C12.5884 19.6625 12.8634 18.7875 13.3009 17.9875L24.6009 24.525Z" fill="#F2F2F2"/>
<path d="M36.6134 20.4625V27.5375C36.6134 29.2625 35.3759 31.3625 33.8634 32.2L27.1884 35.9001C26.4759 36.3001 25.5384 36.5 24.6009 36.5V24.525L35.9009 17.9875C36.3384 18.7875 36.6134 19.6625 36.6134 20.4625Z" fill="#F2F2F2"/>
</svg>
