<svg width="20" height="25" viewBox="0 0 20 25" fill="none" xmlns="http://www.w3.org/2000/svg">
<path d="M12.5 0H2.5C1.83696 0 1.20107 0.263392 0.732233 0.732233C0.263392 1.20107 0 1.83696 0 2.5V22.5C0 23.163 0.263392 23.7989 0.732233 24.2678C1.20107 24.7366 1.83696 25 2.5 25H17.5C18.163 25 18.7989 24.7366 19.2678 24.2678C19.7366 23.7989 20 23.163 20 22.5V7.5L12.5 0ZM6.8725 17.7375C6.48625 18.1 5.91625 18.2625 5.2525 18.2625C5.1238 18.2639 4.99516 18.2564 4.8675 18.24V20.0225H3.75V15.1025C4.25432 15.0273 4.7639 14.993 5.27375 15C5.97 15 6.465 15.1325 6.79875 15.3988C7.11625 15.6512 7.33125 16.065 7.33125 16.5525C7.33 17.0425 7.1675 17.4563 6.8725 17.7375ZM11.6313 19.4312C11.1063 19.8675 10.3075 20.075 9.33125 20.075C8.74625 20.075 8.3325 20.0375 8.05125 20V15.1038C8.55575 15.0301 9.06517 14.9954 9.575 15C10.5212 15 11.1363 15.17 11.6163 15.5325C12.135 15.9175 12.46 16.5312 12.46 17.4125C12.46 18.3663 12.1112 19.025 11.6313 19.4312ZM16.25 15.9625H14.335V17.1012H16.125V18.0188H14.335V20.0237H13.2025V15.0375H16.25V15.9625ZM12.5 8.75H11.25V2.5L17.5 8.75H12.5Z" fill="#EB5757"/>
</svg>
