<svg width="30" height="30" viewBox="0 0 30 30" fill="none" xmlns="http://www.w3.org/2000/svg">
<path opacity="0.4" d="M4.58789 3.125V18.0875C4.58789 19.3125 5.16289 20.475 6.15039 21.2125L12.6629 26.0875C14.0504 27.125 15.9629 27.125 17.3504 26.0875L23.8629 21.2125C24.8504 20.475 25.4254 19.3125 25.4254 18.0875V3.125H4.58789Z" fill="#1A355E"/>
<path d="M27.5 4.0625H2.5C1.9875 4.0625 1.5625 3.6375 1.5625 3.125C1.5625 2.6125 1.9875 2.1875 2.5 2.1875H27.5C28.0125 2.1875 28.4375 2.6125 28.4375 3.125C28.4375 3.6375 28.0125 4.0625 27.5 4.0625Z" fill="#1A355E"/>
<path d="M20 10.9375H10C9.4875 10.9375 9.0625 10.5125 9.0625 10C9.0625 9.4875 9.4875 9.0625 10 9.0625H20C20.5125 9.0625 20.9375 9.4875 20.9375 10C20.9375 10.5125 20.5125 10.9375 20 10.9375Z" fill="#1A355E"/>
<path d="M20 17.1875H10C9.4875 17.1875 9.0625 16.7625 9.0625 16.25C9.0625 15.7375 9.4875 15.3125 10 15.3125H20C20.5125 15.3125 20.9375 15.7375 20.9375 16.25C20.9375 16.7625 20.5125 17.1875 20 17.1875Z" fill="#1A355E"/>
</svg>
