<svg width="21" height="26" viewBox="0 0 21 26" fill="none" xmlns="http://www.w3.org/2000/svg">
<path d="M13.35 0H3.15009C2.47379 0 1.82519 0.268659 1.34697 0.746874C0.868756 1.22509 0.600098 1.87369 0.600098 2.54999V22.9499C0.600098 23.6262 0.868756 24.2748 1.34697 24.753C1.82519 25.2312 2.47379 25.4999 3.15009 25.4999H18.45C19.1263 25.4999 19.7749 25.2312 20.2531 24.753C20.7313 24.2748 21 23.6262 21 22.9499V7.64996L13.35 0ZM7.01332 17.9838C6.61424 18.3574 6.02647 18.5269 5.33925 18.5269C5.18625 18.5269 5.04728 18.518 4.94145 18.5027V20.3451H3.78631V15.2617C4.30737 15.1831 4.83403 15.1477 5.36093 15.1559C6.07875 15.1559 6.59257 15.2923 6.93554 15.5677C7.26449 15.8278 7.48634 16.2562 7.48634 16.7611C7.48634 17.266 7.31931 17.6931 7.01332 17.9838ZM12.4983 20.3464H11.2743L10.174 18.3574C9.86803 17.8066 9.53143 17.1423 9.28026 16.5379L9.25603 16.5456C9.28663 17.2264 9.30193 17.9532 9.30193 18.7934V20.3464H8.23094V15.1928H9.59135L10.6623 17.0811C10.9683 17.6242 11.2731 18.2668 11.5026 18.847H11.5268C11.4527 18.1333 11.4195 17.416 11.4273 16.6986V15.1916H12.4983V20.3464ZM17.8138 20.1092C17.2586 20.293 16.6786 20.391 16.0938 20.3999C15.1542 20.3999 14.4733 20.1628 13.9977 19.7038C13.5247 19.2601 13.2646 18.5881 13.2723 17.8308C13.2799 16.1172 14.5256 15.1393 16.2162 15.1393C16.8805 15.1393 17.3943 15.2706 17.6455 15.3917L17.402 16.3237C17.1189 16.2013 16.767 16.1019 16.2022 16.1019C15.2307 16.1019 14.4963 16.6527 14.4963 17.7696C14.4963 18.8317 15.1618 19.459 16.1168 19.459C16.3845 19.459 16.5987 19.4284 16.6905 19.3812V18.3025H15.8949V17.3935H17.8138V20.1092ZM13.35 8.92496H12.075V2.54999L18.45 8.92496H13.35Z" fill="#FDBC64"/>
</svg>
