<svg width="308" height="180" viewBox="0 0 308 180" fill="none" xmlns="http://www.w3.org/2000/svg">
<g clip-path="url(#clip0_3301_43721)">
<path d="M197.436 44.148C197.617 44.2878 197.824 44.3905 198.045 44.4504C198.266 44.5102 198.497 44.5259 198.724 44.4966C198.951 44.4673 199.17 44.3936 199.368 44.2796C199.566 44.1656 199.741 44.0137 199.88 43.8324C200.05 43.6079 200.223 43.3849 200.397 43.1635C200.687 42.7932 200.822 42.3245 200.772 41.8567C200.723 41.3889 200.493 40.9587 200.132 40.6572C199.955 40.5106 199.75 40.401 199.53 40.3351C199.31 40.2692 199.078 40.2483 198.85 40.2736C198.621 40.2989 198.4 40.3699 198.2 40.4824C197.999 40.5949 197.823 40.7465 197.683 40.9283C197.496 41.1664 197.311 41.406 197.128 41.6473C196.844 42.0225 196.718 42.4933 196.775 42.9601C196.833 43.4268 197.07 43.8529 197.436 44.148V44.148Z" fill="#5BB647"/>
<path d="M216.788 26.1903C216.513 26.3087 216.24 26.4295 215.968 26.5528C215.542 26.7517 215.211 27.109 215.045 27.5484C214.88 27.9879 214.892 28.4748 215.081 28.905C215.268 29.3277 215.614 29.6598 216.044 29.8296C216.474 29.9993 216.954 29.9932 217.38 29.8124C217.631 29.698 217.885 29.5861 218.139 29.4769C218.568 29.2864 218.906 28.9355 219.08 28.4992C219.254 28.063 219.25 27.5761 219.07 27.1425C218.985 26.9284 218.858 26.7335 218.696 26.5692C218.535 26.405 218.342 26.2746 218.13 26.1859C217.917 26.0972 217.689 26.0519 217.459 26.0526C217.228 26.0534 217 26.1002 216.788 26.1903V26.1903Z" fill="#2A347B"/>
<path d="M209.656 30C209.404 30.1632 209.154 30.3283 208.906 30.4952C208.518 30.7612 208.249 31.1678 208.156 31.6287C208.063 32.0896 208.153 32.5686 208.407 32.9641C208.661 33.3506 209.057 33.6211 209.509 33.7166C209.961 33.8121 210.432 33.7248 210.82 33.4738C211.052 33.3179 211.285 33.1642 211.519 33.0125C211.911 32.7534 212.187 32.3517 212.288 31.8925C212.389 31.4333 212.307 30.9528 212.06 30.5532C211.94 30.3565 211.783 30.1857 211.597 30.051C211.41 29.9162 211.199 29.8202 210.975 29.7687C210.751 29.7171 210.519 29.711 210.292 29.7507C210.066 29.7904 209.849 29.8752 209.656 30V30Z" fill="#5BB647"/>
<path d="M203.752 38.6266C204.187 38.6376 204.61 38.4823 204.934 38.1922C205.138 37.9994 205.344 37.8081 205.551 37.6182C205.897 37.2989 206.104 36.8577 206.13 36.388C206.156 35.9182 205.998 35.4568 205.69 35.1014C205.54 34.9273 205.357 34.7852 205.151 34.6834C204.944 34.5816 204.72 34.5224 204.491 34.5091C204.261 34.4958 204.031 34.5288 203.815 34.6061C203.598 34.6834 203.4 34.8035 203.231 34.9591C203.009 35.1619 202.788 35.3666 202.57 35.5731C202.23 35.8981 202.029 36.3427 202.011 36.8127C201.993 37.2828 202.158 37.7416 202.472 38.092C202.637 38.2643 202.836 38.4007 203.057 38.4926C203.277 38.5846 203.514 38.6302 203.752 38.6266V38.6266ZM271.845 44.2998C271.982 44.4828 272.155 44.637 272.352 44.7534C272.549 44.8699 272.767 44.9464 272.994 44.9784C273.22 45.0105 273.451 44.9976 273.673 44.9405C273.894 44.8833 274.102 44.783 274.285 44.6454C274.655 44.3546 274.897 43.9313 274.96 43.4652C275.023 42.9991 274.902 42.5267 274.623 42.1482C274.444 41.9058 274.262 41.6647 274.079 41.4249C273.94 41.2413 273.766 41.0874 273.567 40.9724C273.368 40.8574 273.148 40.7835 272.92 40.7552C272.692 40.7269 272.46 40.7448 272.239 40.8077C272.018 40.8706 271.812 40.9773 271.633 41.1215C271.268 41.4186 271.033 41.8458 270.978 42.3129C270.923 42.78 271.051 43.2503 271.336 43.6243C271.508 43.8481 271.677 44.0732 271.845 44.2998Z" fill="#2A347B"/>
<path d="M266.861 38.5943C267.187 38.9051 267.62 39.0774 268.071 39.0748C268.521 39.0723 268.952 38.8951 269.274 38.5806C269.291 38.5636 269.308 38.5463 269.324 38.5286C269.643 38.1823 269.814 37.7258 269.802 37.2555C269.79 36.7852 269.596 36.338 269.26 36.0084C269.043 35.7977 268.824 35.5893 268.604 35.383C268.437 35.2253 268.239 35.1029 268.024 35.023C267.808 34.9431 267.579 34.9073 267.349 34.9179C267.12 34.9284 266.895 34.9851 266.688 35.0844C266.48 35.1838 266.295 35.3238 266.143 35.4961C265.831 35.848 265.668 36.3076 265.688 36.7776C265.709 37.2475 265.912 37.691 266.254 38.0142C266.458 38.2057 266.661 38.399 266.861 38.5943Z" fill="#5BB647"/>
<path d="M260.337 33.328C260.571 33.4833 260.803 33.6406 261.033 33.7997C261.318 33.9985 261.658 34.1051 262.006 34.1053C262.293 34.1048 262.576 34.0328 262.828 33.8958C263.08 33.7588 263.295 33.5611 263.451 33.3206C263.71 32.9281 263.806 32.4502 263.719 31.9882C263.631 31.5261 263.368 31.1163 262.983 30.8456C262.736 30.675 262.487 30.5061 262.237 30.339C262.045 30.2117 261.83 30.1242 261.604 30.0816C261.378 30.0389 261.146 30.0421 260.921 30.0908C260.696 30.1395 260.484 30.2329 260.296 30.3653C260.108 30.4977 259.948 30.6665 259.827 30.8617C259.574 31.2585 259.487 31.738 259.582 32.1984C259.677 32.6588 259.948 33.064 260.337 33.328V33.328Z" fill="#2A347B"/>
<path d="M255.962 26.8082C255.689 26.6803 255.415 26.555 255.14 26.4322C254.929 26.3395 254.702 26.2899 254.472 26.2863C254.241 26.2827 254.013 26.3252 253.799 26.4113C253.586 26.4973 253.391 26.6252 253.228 26.7874C253.064 26.9495 252.935 27.1428 252.847 27.3557C252.662 27.7871 252.652 28.274 252.821 28.7123C252.99 29.1506 253.323 29.5056 253.75 29.7014C254.004 29.8146 254.257 29.9303 254.509 30.0487C254.736 30.1557 254.984 30.2113 255.235 30.2115C255.571 30.2099 255.9 30.1109 256.181 29.9263C256.462 29.7418 256.684 29.4797 256.819 29.1718C257.013 28.7439 257.032 28.2572 256.872 27.8156C256.712 27.374 256.385 27.0125 255.962 26.8082V26.8082Z" fill="#5BB647"/>
<path d="M246.667 27.2404C246.937 27.3096 247.206 27.3808 247.474 27.4541C247.621 27.4948 247.773 27.5155 247.926 27.5154C248.313 27.5121 248.688 27.3805 248.992 27.1414C249.297 26.9022 249.513 26.569 249.607 26.1938C249.73 25.7411 249.669 25.2585 249.439 24.8501C249.208 24.4417 248.826 24.1402 248.376 24.0108C248.088 23.9316 247.8 23.8551 247.51 23.7814C247.286 23.726 247.054 23.7157 246.826 23.7511C246.598 23.7865 246.379 23.867 246.182 23.9879C245.986 24.1087 245.815 24.2675 245.681 24.4549C245.546 24.6424 245.45 24.8547 245.399 25.0796C245.284 25.5342 245.353 26.0156 245.59 26.4199C245.828 26.8242 246.215 27.1189 246.667 27.2404V27.2404Z" fill="#2A347B"/>
<path d="M239.29 26.014C239.567 26.0366 240.233 26.0967 240.289 26.0967C240.74 26.0854 241.17 25.9036 241.493 25.5879C241.815 25.2722 242.006 24.8461 242.027 24.3953C242.048 23.9444 241.897 23.5024 241.606 23.1582C241.314 22.8139 240.902 22.593 240.454 22.5398C240.157 22.5106 239.86 22.4841 239.562 22.4602C239.332 22.4431 239.1 22.472 238.88 22.5453C238.66 22.6187 238.458 22.7349 238.283 22.8873C238.109 23.0396 237.967 23.2251 237.865 23.4329C237.763 23.6408 237.704 23.8668 237.69 24.0978C237.649 24.5639 237.795 25.0271 238.094 25.3862C238.394 25.7453 238.824 25.971 239.29 26.014Z" fill="#5BB647"/>
<path d="M231.66 26.0432C231.71 26.0432 232.362 25.9914 232.639 25.9727C233.103 25.9317 233.533 25.7109 233.836 25.3574C234.139 25.0039 234.292 24.5458 234.262 24.081C234.231 23.6163 234.021 23.1819 233.674 22.8706C233.328 22.5593 232.873 22.3959 232.408 22.4154C232.11 22.4359 231.812 22.4589 231.515 22.4846C231.065 22.5327 230.65 22.7504 230.354 23.0934C230.058 23.4364 229.903 23.8792 229.922 24.3318C229.94 24.7844 230.13 25.2131 230.453 25.5309C230.776 25.8488 231.207 26.0319 231.66 26.0432L231.66 26.0432Z" fill="#2A347B"/>
<path d="M224.006 27.3666C224.151 27.3666 224.297 27.3479 224.437 27.3109C224.705 27.2408 224.974 27.1734 225.244 27.1085C225.698 26.9934 226.089 26.7041 226.332 26.3031C226.575 25.9021 226.65 25.4217 226.542 24.9656C226.493 24.7402 226.4 24.5268 226.267 24.3377C226.135 24.1486 225.967 23.9876 225.772 23.864C225.577 23.7405 225.36 23.6568 225.133 23.6179C224.905 23.579 224.672 23.5856 224.448 23.6374C224.156 23.7075 223.866 23.7804 223.577 23.8563C223.124 23.9803 222.739 24.2771 222.504 24.6826C222.269 25.0882 222.202 25.57 222.319 26.024C222.41 26.404 222.625 26.7426 222.931 26.9859C223.237 27.2292 223.615 27.3632 224.006 27.3666V27.3666ZM203.999 103.548C203.835 103.387 203.64 103.261 203.426 103.177C203.213 103.093 202.984 103.053 202.755 103.058C202.525 103.064 202.299 103.115 202.09 103.21C201.88 103.304 201.692 103.44 201.536 103.608C201.217 103.952 201.044 104.407 201.055 104.876C201.067 105.345 201.26 105.791 201.595 106.12C201.812 106.33 202.03 106.538 202.25 106.745C202.417 106.902 202.614 107.024 202.829 107.104C203.045 107.184 203.274 107.22 203.503 107.21C203.733 107.2 203.958 107.145 204.165 107.046C204.373 106.948 204.558 106.808 204.711 106.637C205.024 106.287 205.188 105.829 205.168 105.36C205.148 104.892 204.947 104.449 204.606 104.127C204.402 103.936 204.199 103.743 203.999 103.548Z" fill="#5BB647"/>
<path d="M199.026 97.8525C198.747 97.4858 198.334 97.2437 197.878 97.1783C197.422 97.1129 196.958 97.2295 196.587 97.5029C196.217 97.7911 195.974 98.2124 195.91 98.6771C195.846 99.1418 195.966 99.6131 196.244 99.9906C196.423 100.233 196.604 100.474 196.787 100.713C197.073 101.074 197.49 101.308 197.947 101.365C198.404 101.423 198.865 101.299 199.232 101.02C199.597 100.726 199.833 100.301 199.89 99.8348C199.946 99.3691 199.818 98.8999 199.534 98.5269C199.363 98.3035 199.194 98.0787 199.026 97.8525Z" fill="#2A347B"/>
<path d="M217.096 112.429C216.983 112.365 216.866 112.307 216.748 112.252C216.408 112.08 216.039 111.973 215.66 111.935C215.315 111.93 214.975 112.026 214.684 112.211C214.392 112.397 214.161 112.663 214.018 112.978C213.876 113.293 213.828 113.643 213.882 113.984C213.935 114.326 214.087 114.644 214.319 114.9C214.589 115.162 214.907 115.369 215.255 115.51C215.563 115.669 215.896 115.774 216.24 115.821C216.507 115.843 216.776 115.804 217.026 115.706C217.276 115.609 217.5 115.456 217.682 115.258C217.983 114.924 218.146 114.489 218.138 114.04C218.13 113.59 217.953 113.161 217.641 112.837C217.48 112.675 217.297 112.538 217.096 112.429V112.429Z" fill="#5BB647"/>
<path d="M224.17 114.903C223.901 114.835 223.633 114.764 223.366 114.69C223.144 114.629 222.911 114.614 222.683 114.644C222.455 114.675 222.235 114.75 222.036 114.866C221.837 114.983 221.663 115.137 221.524 115.322C221.386 115.506 221.285 115.716 221.229 115.939C221.106 116.39 221.165 116.872 221.395 117.28C221.624 117.688 222.005 117.989 222.454 118.118C222.743 118.198 223.032 118.275 223.321 118.349C223.713 118.44 224.124 118.394 224.487 118.221C224.849 118.047 225.142 117.755 225.317 117.394C225.368 117.286 225.407 117.174 225.436 117.059C225.55 116.606 225.482 116.125 225.245 115.722C225.008 115.318 224.622 115.024 224.17 114.903V114.903ZM210.513 108.809C210.28 108.654 210.049 108.497 209.819 108.338C209.63 108.207 209.417 108.115 209.192 108.068C208.967 108.021 208.735 108.02 208.509 108.064C208.284 108.108 208.069 108.196 207.879 108.325C207.688 108.453 207.525 108.618 207.399 108.81C207.139 109.201 207.042 109.677 207.129 110.138C207.215 110.599 207.479 111.008 207.862 111.278C208.109 111.448 208.358 111.617 208.608 111.784C208.889 111.972 209.22 112.073 209.559 112.073C209.85 112.073 210.137 111.999 210.392 111.858C210.647 111.717 210.863 111.514 211.019 111.268C211.272 110.873 211.36 110.395 211.266 109.936C211.171 109.477 210.901 109.072 210.513 108.809V108.809Z" fill="#2A347B"/>
<path d="M260.031 108.765C259.799 108.92 259.565 109.074 259.33 109.224C258.938 109.481 258.661 109.881 258.56 110.339C258.458 110.797 258.539 111.276 258.786 111.675C259.033 112.065 259.424 112.343 259.874 112.447C260.324 112.55 260.797 112.472 261.189 112.229C261.441 112.067 261.691 111.904 261.94 111.738C262.328 111.474 262.597 111.07 262.691 110.61C262.785 110.151 262.696 109.673 262.443 109.278C262.32 109.084 262.16 108.916 261.971 108.785C261.783 108.654 261.57 108.561 261.345 108.513C261.12 108.466 260.888 108.463 260.662 108.506C260.437 108.55 260.222 108.638 260.031 108.765Z" fill="#5BB647"/>
<path d="M253.466 112.4C253.213 112.513 252.958 112.625 252.702 112.734C252.273 112.922 251.935 113.271 251.761 113.706C251.586 114.141 251.589 114.626 251.769 115.059C251.947 115.486 252.286 115.825 252.713 116.003C253.14 116.182 253.62 116.184 254.049 116.011C254.323 115.894 254.596 115.774 254.867 115.653C255.293 115.457 255.625 115.103 255.792 114.665C255.959 114.227 255.948 113.742 255.762 113.312C255.673 113.1 255.542 112.908 255.378 112.747C255.214 112.585 255.019 112.459 254.806 112.374C254.592 112.289 254.363 112.247 254.133 112.252C253.903 112.256 253.676 112.307 253.466 112.4V112.4ZM265.925 104.076C265.722 104.268 265.517 104.457 265.309 104.644C264.963 104.961 264.754 105.4 264.727 105.868C264.699 106.337 264.856 106.797 265.163 107.152C265.469 107.497 265.9 107.707 266.361 107.735C266.822 107.763 267.276 107.607 267.622 107.302C267.845 107.1 268.067 106.895 268.286 106.689C268.627 106.366 268.828 105.923 268.846 105.454C268.865 104.985 268.7 104.528 268.387 104.179C268.234 104.008 268.048 103.869 267.84 103.771C267.632 103.673 267.407 103.617 267.178 103.608C266.948 103.598 266.719 103.635 266.504 103.715C266.289 103.796 266.092 103.919 265.925 104.076Z" fill="#2A347B"/>
<path d="M273.436 98.1547C273.256 98.0113 273.05 97.9054 272.828 97.8432C272.607 97.7811 272.376 97.7639 272.148 97.7928C271.92 97.8217 271.7 97.896 271.501 98.0113C271.303 98.1267 271.129 98.2808 270.991 98.4644C270.821 98.6869 270.649 98.9081 270.474 99.1279C270.183 99.4958 270.047 99.9628 270.095 100.43C270.143 100.896 270.371 101.326 270.731 101.627C270.909 101.77 271.114 101.878 271.334 101.943C271.553 102.007 271.783 102.028 272.011 102.004C272.239 101.979 272.459 101.91 272.66 101.801C272.861 101.691 273.038 101.542 273.182 101.364C273.37 101.127 273.555 100.889 273.739 100.648C274.023 100.275 274.151 99.8051 274.094 99.3395C274.037 98.8738 273.801 98.4487 273.436 98.1547V98.1547ZM231.548 116.141C231.27 116.118 230.993 116.093 230.717 116.065C230.253 116.03 229.793 116.177 229.437 116.477C229.081 116.776 228.857 117.203 228.812 117.666C228.768 118.129 228.907 118.591 229.199 118.953C229.492 119.315 229.914 119.547 230.376 119.601C230.672 119.631 230.969 119.658 231.266 119.683C231.586 119.704 231.907 119.637 232.193 119.49C232.478 119.343 232.719 119.121 232.888 118.848C233.034 118.607 233.121 118.336 233.143 118.056C233.185 117.591 233.04 117.128 232.741 116.769C232.442 116.41 232.013 116.185 231.548 116.141V116.141Z" fill="#5BB647"/>
<path d="M239.026 116.133C238.751 116.157 238.475 116.177 238.199 116.195C237.745 116.233 237.322 116.443 237.019 116.783C236.715 117.123 236.554 117.566 236.568 118.022C236.582 118.477 236.77 118.91 237.094 119.23C237.417 119.551 237.852 119.735 238.307 119.745C238.344 119.745 239.017 119.699 239.315 119.674C239.78 119.63 240.208 119.403 240.507 119.044C240.805 118.684 240.949 118.221 240.907 117.756C240.891 117.526 240.829 117.301 240.726 117.094C240.623 116.887 240.48 116.703 240.305 116.552C240.13 116.402 239.927 116.287 239.707 116.215C239.488 116.143 239.256 116.115 239.026 116.133V116.133Z" fill="#2A347B"/>
<path d="M246.4 114.879C246.132 114.948 245.863 115.015 245.593 115.079C245.139 115.192 244.748 115.48 244.505 115.879C244.261 116.279 244.185 116.758 244.292 117.213C244.378 117.6 244.592 117.947 244.9 118.196C245.208 118.445 245.591 118.583 245.987 118.586C246.119 118.586 246.967 118.398 247.256 118.323C247.708 118.201 248.093 117.907 248.329 117.503C248.565 117.099 248.632 116.618 248.516 116.165C248.463 115.941 248.366 115.729 248.231 115.543C248.095 115.357 247.924 115.199 247.727 115.08C247.53 114.96 247.311 114.881 247.084 114.847C246.856 114.812 246.624 114.823 246.4 114.879Z" fill="#5BB647"/>
<path d="M204.328 67.7529L209.911 62.0477C210.255 61.6971 210.494 61.2583 210.603 60.7799C210.712 60.3015 210.686 59.8023 210.528 59.3377C210.379 58.8812 210.106 58.4749 209.74 58.164C209.374 57.8531 208.929 57.6498 208.454 57.5766L200.804 56.4117L197.368 49.1143C197.162 48.6664 196.831 48.287 196.416 48.0211C196.001 47.7551 195.518 47.6138 195.025 47.6137C194.532 47.6137 194.049 47.7549 193.633 48.0208C193.218 48.2867 192.888 48.666 192.681 49.1139L189.245 56.4116L181.594 57.5766C181.12 57.6499 180.675 57.8533 180.309 58.1642C179.943 58.4751 179.67 58.8813 179.521 59.3377C179.363 59.8024 179.337 60.3017 179.446 60.7802C179.555 61.2587 179.795 61.6976 180.138 62.0481L185.721 67.7529L184.4 75.8269C184.316 76.3181 184.373 76.8231 184.564 77.2834C184.755 77.7437 185.073 78.1404 185.48 78.4274C185.873 78.7077 186.337 78.8708 186.819 78.8977C187.301 78.9247 187.781 78.8144 188.202 78.5798L195.025 74.8203L201.848 78.5802C202.271 78.8102 202.749 78.9177 203.23 78.8907C203.711 78.8638 204.174 78.7033 204.569 78.4274C204.976 78.1404 205.294 77.7438 205.485 77.2836C205.676 76.8234 205.733 76.3184 205.649 75.8273L204.328 67.7529ZM200.832 67.9129L201.935 74.6594L196.263 71.5335C195.884 71.3233 195.458 71.2131 195.024 71.2132C194.591 71.2132 194.165 71.3236 193.786 71.534L188.114 74.6594L189.218 67.9137C189.285 67.5015 189.255 67.0791 189.13 66.6806C189.005 66.282 188.788 65.9183 188.497 65.6187L183.747 60.7652L190.238 59.7769C190.66 59.7113 191.06 59.5428 191.401 59.2863C191.742 59.0297 192.015 58.6931 192.196 58.3061L195.025 52.297L197.854 58.3057C198.034 58.6929 198.307 59.0298 198.649 59.2864C198.99 59.543 199.39 59.7115 199.812 59.7769L206.302 60.7652L201.553 65.6183C201.261 65.9178 201.045 66.2814 200.919 66.6799C200.794 67.0784 200.764 67.5007 200.832 67.9129L200.832 67.9129ZM290.479 59.3377C290.33 58.8812 290.057 58.4749 289.691 58.164C289.325 57.8531 288.88 57.6498 288.405 57.5766L280.755 56.4117L277.319 49.1143C277.113 48.6664 276.782 48.287 276.367 48.0211C275.951 47.7551 275.469 47.6138 274.975 47.6137C274.482 47.6137 273.999 47.7549 273.584 48.0208C273.169 48.2867 272.838 48.666 272.632 49.1139L269.196 56.4116L261.545 57.5766C261.07 57.6499 260.625 57.8533 260.26 58.1642C259.894 58.4751 259.621 58.8812 259.472 59.3377C259.314 59.8024 259.288 60.3017 259.397 60.7802C259.506 61.2586 259.746 61.6975 260.089 62.0481L265.672 67.7529L264.351 75.8268C264.267 76.3181 264.324 76.8231 264.515 77.2834C264.706 77.7437 265.024 78.1404 265.431 78.4274C265.824 78.7076 266.288 78.8707 266.77 78.8977C267.252 78.9246 267.731 78.8144 268.153 78.5797L274.975 74.8202C274.975 74.8202 281.795 78.5782 281.798 78.5801C282.222 78.8087 282.7 78.9154 283.181 78.8885C283.661 78.8615 284.124 78.7019 284.52 78.4274C284.927 78.1404 285.245 77.7438 285.436 77.2836C285.627 76.8234 285.684 76.3184 285.6 75.8272L284.279 67.7529L289.862 62.0477C290.205 61.6971 290.445 61.2583 290.554 60.7799C290.662 60.3015 290.637 59.8023 290.479 59.3377ZM281.503 65.6183C281.212 65.9178 280.995 66.2814 280.87 66.6799C280.745 67.0784 280.715 67.5007 280.782 67.9129L281.886 74.6594L276.214 71.5335C275.835 71.3234 275.409 71.2131 274.975 71.2132C274.542 71.2133 274.115 71.3237 273.736 71.534L268.065 74.6595L269.168 67.9137C269.236 67.5015 269.206 67.0791 269.081 66.6806C268.956 66.282 268.739 65.9183 268.448 65.6187L263.698 60.7652L270.189 59.7769C270.611 59.7113 271.01 59.5428 271.352 59.2863C271.693 59.0298 271.966 58.6931 272.146 58.3061L274.975 52.297L277.804 58.3057C277.985 58.693 278.258 59.0298 278.599 59.2864C278.941 59.543 279.341 59.7115 279.763 59.7769L286.253 60.7652L281.503 65.6183Z" fill="#2A347B"/>
<path d="M248.43 57.5766L240.78 56.4117L237.344 49.1143C237.137 48.6664 236.807 48.287 236.391 48.0211C235.976 47.7551 235.493 47.6138 235 47.6137C234.507 47.6137 234.024 47.7549 233.609 48.0208C233.193 48.2867 232.863 48.666 232.656 49.1139L229.221 56.4116L221.57 57.5766C221.095 57.65 220.65 57.8534 220.284 58.1642C219.918 58.4751 219.646 58.8813 219.496 59.3377C219.339 59.8024 219.313 60.3017 219.422 60.7802C219.531 61.2587 219.77 61.6976 220.114 62.0481L225.697 67.7529L224.376 75.8269C224.292 76.3181 224.348 76.8231 224.539 77.2834C224.731 77.7437 225.048 78.1404 225.456 78.4274C225.849 78.7077 226.313 78.8708 226.795 78.8977C227.276 78.9247 227.756 78.8144 228.178 78.5798L235 74.8203C235 74.8203 241.818 78.5775 241.823 78.5802C242.254 78.8127 242.743 78.9188 243.232 78.8863C243.721 78.8539 244.191 78.6842 244.588 78.3967C244.984 78.1092 245.292 77.7157 245.476 77.2612C245.659 76.8067 245.71 76.3097 245.624 75.8273L244.303 67.7529L249.887 62.0477C250.23 61.6972 250.469 61.2583 250.578 60.7799C250.687 60.3015 250.661 59.8023 250.504 59.3377C250.354 58.8812 250.082 58.4749 249.715 58.164C249.349 57.8531 248.904 57.6498 248.43 57.5766V57.5766ZM241.528 65.6183C241.237 65.9178 241.02 66.2814 240.895 66.6799C240.77 67.0784 240.74 67.5007 240.807 67.9129L241.911 74.6594L236.239 71.5335C235.86 71.3233 235.433 71.2131 235 71.2132C234.566 71.2132 234.14 71.3236 233.761 71.534L228.089 74.6594L229.193 67.9137C229.261 67.5015 229.231 67.0791 229.105 66.6806C228.98 66.282 228.763 65.9183 228.472 65.6187L223.722 60.7652L230.214 59.7769C230.636 59.7113 231.035 59.5428 231.376 59.2863C231.718 59.0297 231.991 58.6931 232.171 58.3061L235 52.297L237.829 58.3056C238.009 58.6929 238.283 59.0298 238.624 59.2864C238.966 59.543 239.365 59.7115 239.787 59.7769L246.278 60.7652L241.528 65.6183Z" fill="#5BB647"/>
<path d="M277.841 85.5631L279.719 83.5656C279.951 83.3185 280.106 83.0088 280.165 82.6746C280.223 82.3404 280.183 81.9964 280.048 81.685C279.913 81.3736 279.691 81.1084 279.407 80.9221C279.124 80.7358 278.792 80.6366 278.452 80.6366H271.987C271.526 80.6366 271.084 80.8198 270.758 81.1457C270.432 81.4717 270.249 81.9138 270.249 82.3748C270.249 82.8358 270.432 83.2779 270.758 83.6039C271.084 83.9299 271.526 84.113 271.987 84.113H274.432L273.4 85.2113C273.167 85.4584 273.012 85.7682 272.954 86.1023C272.895 86.4365 272.936 86.7805 273.07 87.0919C273.205 87.4033 273.428 87.6685 273.711 87.8548C273.995 88.0411 274.327 88.1403 274.666 88.1403C275.776 88.1403 276.714 88.8104 276.714 89.6031C276.714 90.3958 275.776 91.0659 274.666 91.0659C274.328 91.0773 273.992 91.0139 273.682 90.8801C273.372 90.7464 273.095 90.5456 272.872 90.2923C272.732 90.1116 272.558 89.9604 272.359 89.8472C272.161 89.7339 271.942 89.6609 271.715 89.6324C271.489 89.6038 271.259 89.6202 271.038 89.6807C270.818 89.7412 270.612 89.8445 270.431 89.9847C270.251 90.125 270.1 90.2995 269.987 90.4981C269.874 90.6968 269.802 90.9157 269.773 91.1425C269.745 91.3692 269.762 91.5993 269.823 91.8195C269.884 92.0398 269.988 92.2458 270.128 92.4259C270.676 93.0984 271.368 93.6382 272.154 94.0047C272.94 94.3713 273.799 94.555 274.666 94.5423C277.712 94.5423 280.19 92.3266 280.19 89.6031C280.175 88.7854 279.951 87.9853 279.54 87.2784C279.128 86.5715 278.544 85.9811 277.841 85.5631V85.5631ZM196.762 92.8041V82.3748C196.762 82.0638 196.679 81.7584 196.52 81.4906C196.362 81.2228 196.135 81.0024 195.862 80.8523C195.59 80.7022 195.282 80.628 194.971 80.6374C194.661 80.6468 194.358 80.7394 194.095 80.9057L191.488 82.5539C191.103 82.797 190.829 83.1812 190.725 83.624C190.621 84.0668 190.694 84.5328 190.929 84.9222C191.165 85.3115 191.543 85.593 191.984 85.7064C192.424 85.8197 192.892 85.7558 193.286 85.5283V92.8041C193.286 93.2651 193.469 93.7071 193.795 94.0331C194.121 94.3591 194.563 94.5422 195.024 94.5422C195.485 94.5422 195.927 94.3591 196.253 94.0331C196.579 93.7071 196.762 93.2651 196.762 92.8041ZM235.508 87.0759L230.39 91.486C230.121 91.7174 229.93 92.0257 229.841 92.3693C229.752 92.7129 229.771 93.0755 229.894 93.4083C230.018 93.741 230.24 94.028 230.531 94.2307C230.823 94.4335 231.169 94.5422 231.524 94.5423H238.289C238.75 94.5423 239.192 94.3592 239.518 94.0332C239.844 93.7072 240.027 93.2651 240.027 92.8041C240.027 92.3431 239.844 91.901 239.518 91.575C239.192 91.249 238.75 91.0659 238.289 91.0659H236.211L237.745 89.7469C237.773 89.7223 237.801 89.6969 237.827 89.6706L237.939 89.5615C238.992 88.5316 240.081 87.4668 240.202 85.7341C240.267 84.7989 240.049 83.866 239.578 83.0557C239.106 82.2454 238.403 81.5949 237.558 81.1883C236.786 80.8099 235.934 80.6196 235.074 80.633C234.214 80.6464 233.369 80.8632 232.608 81.2656C231.534 81.8617 230.656 82.7561 230.079 83.8406C229.968 84.0402 229.897 84.2598 229.87 84.4869C229.844 84.7139 229.862 84.944 229.925 85.1638C229.987 85.3837 230.093 85.589 230.235 85.7681C230.377 85.9472 230.553 86.0965 230.753 86.2075C230.952 86.3185 231.172 86.389 231.399 86.415C231.626 86.4409 231.856 86.4218 232.076 86.3588C232.296 86.2957 232.501 86.19 232.68 86.0475C232.859 85.9051 233.008 85.7288 233.118 85.5287C233.371 85.0343 233.759 84.6213 234.237 84.3371C234.506 84.1978 234.803 84.121 235.106 84.1127C235.409 84.1043 235.709 84.1645 235.986 84.2888C236.218 84.3888 236.415 84.5577 236.549 84.7727C236.683 84.9877 236.748 85.2385 236.735 85.4914C236.707 85.886 236.273 86.3282 235.508 87.0759Z" fill="#2A347B"/>
<path d="M163.738 131.911C164.698 131.911 165.476 131.133 165.476 130.173C165.476 129.213 164.698 128.435 163.738 128.435C162.778 128.435 162 129.213 162 130.173C162 131.133 162.778 131.911 163.738 131.911Z" fill="#2A347B"/>
<path d="M171.56 128.435H168.952C168.491 128.435 168.049 128.618 167.723 128.944C167.397 129.27 167.214 129.712 167.214 130.173C167.214 130.634 167.397 131.076 167.723 131.402C168.049 131.728 168.491 131.911 168.952 131.911H171.56C172.021 131.911 172.463 131.728 172.789 131.402C173.115 131.076 173.298 130.634 173.298 130.173C173.298 129.712 173.115 129.27 172.789 128.944C172.463 128.618 172.021 128.435 171.56 128.435ZM301.048 128.435H298.44C297.98 128.435 297.537 128.618 297.211 128.944C296.886 129.27 296.702 129.712 296.702 130.173C296.702 130.634 296.886 131.076 297.211 131.402C297.537 131.728 297.98 131.911 298.44 131.911H301.048C301.509 131.911 301.951 131.728 302.277 131.402C302.603 131.076 302.786 130.634 302.786 130.173C302.786 129.712 302.603 129.27 302.277 128.944C301.951 128.618 301.509 128.435 301.048 128.435Z" fill="#2A347B"/>
<path d="M306.262 131.911C307.222 131.911 308 131.133 308 130.173C308 129.213 307.222 128.435 306.262 128.435C305.302 128.435 304.524 129.213 304.524 130.173C304.524 131.133 305.302 131.911 306.262 131.911Z" fill="#2A347B"/>
<path d="M264.681 135.388H257.461C257.025 135.423 256.617 135.621 256.319 135.943C256.022 136.265 255.857 136.687 255.857 137.126C255.857 137.564 256.022 137.986 256.319 138.308C256.617 138.63 257.025 138.829 257.461 138.864H264.681C265.118 138.829 265.526 138.63 265.823 138.308C266.121 137.986 266.286 137.564 266.286 137.126C266.286 136.687 266.121 136.265 265.823 135.943C265.526 135.621 265.118 135.423 264.681 135.388ZM212.538 135.388H205.319C204.882 135.423 204.474 135.621 204.177 135.943C203.879 136.265 203.714 136.687 203.714 137.126C203.714 137.564 203.879 137.986 204.177 138.308C204.474 138.63 204.882 138.829 205.319 138.864H212.538C212.975 138.829 213.383 138.63 213.68 138.308C213.978 137.986 214.143 137.564 214.143 137.126C214.143 136.687 213.978 136.265 213.68 135.943C213.383 135.621 212.975 135.423 212.538 135.388V135.388ZM252.381 135.388H217.619C217.158 135.388 216.716 135.571 216.39 135.897C216.064 136.223 215.881 136.665 215.881 137.126C215.881 137.587 216.064 138.029 216.39 138.355C216.716 138.681 217.158 138.864 217.619 138.864H231.472V140.602H224.571C224.11 140.602 223.668 140.785 223.342 141.111C223.016 141.437 222.833 141.879 222.833 142.34C222.833 142.801 223.016 143.243 223.342 143.569C223.668 143.895 224.11 144.078 224.571 144.078H246.298C246.759 144.078 247.201 143.895 247.527 143.569C247.853 143.243 248.036 142.801 248.036 142.34C248.036 141.879 247.853 141.437 247.527 141.111C247.201 140.785 246.759 140.602 246.298 140.602H238.528V138.864H252.381C252.842 138.864 253.284 138.681 253.61 138.355C253.936 138.029 254.119 137.587 254.119 137.126C254.119 136.665 253.936 136.223 253.61 135.897C253.284 135.571 252.842 135.388 252.381 135.388Z" fill="#5BB647"/>
<path d="M292.984 131.911H177.016C176.769 131.944 176.517 131.923 176.279 131.85C176.04 131.778 175.82 131.655 175.632 131.491C175.445 131.326 175.295 131.123 175.192 130.896C175.089 130.669 175.036 130.423 175.036 130.173C175.036 129.924 175.089 129.677 175.192 129.45C175.295 129.223 175.445 129.02 175.632 128.856C175.82 128.691 176.04 128.569 176.279 128.496C176.517 128.424 176.769 128.403 177.016 128.435H292.984C293.231 128.403 293.483 128.424 293.721 128.496C293.96 128.569 294.18 128.691 294.367 128.856C294.555 129.02 294.705 129.223 294.808 129.45C294.911 129.677 294.964 129.924 294.964 130.173C294.964 130.423 294.911 130.669 294.808 130.896C294.705 131.123 294.555 131.326 294.367 131.491C294.18 131.655 293.96 131.778 293.721 131.85C293.483 131.923 293.231 131.944 292.984 131.911ZM266.786 13.7209C267.301 13.7209 267.805 13.568 268.234 13.2815C268.663 12.995 268.997 12.5879 269.194 12.1115C269.392 11.6351 269.443 11.1109 269.343 10.6051C269.242 10.0994 268.994 9.63484 268.629 9.27023C268.265 8.90561 267.8 8.65731 267.294 8.55671C266.789 8.45611 266.264 8.50774 265.788 8.70507C265.312 8.9024 264.904 9.23656 264.618 9.66531C264.331 10.094 264.179 10.5981 264.179 11.1138C264.179 11.805 264.454 12.4676 264.943 12.9564C265.432 13.4452 266.094 13.7201 266.786 13.7209V13.7209ZM266.786 9.81019C267.043 9.81019 267.296 9.88664 267.51 10.0299C267.724 10.1731 267.891 10.3767 267.99 10.6149C268.089 10.8531 268.114 11.1152 268.064 11.3681C268.014 11.6209 267.89 11.8532 267.707 12.0355C267.525 12.2178 267.293 12.342 267.04 12.3923C266.787 12.4426 266.525 12.4168 266.287 12.3181C266.049 12.2194 265.845 12.0524 265.702 11.838C265.559 11.6236 265.482 11.3716 265.482 11.1138C265.482 10.7681 265.62 10.4368 265.864 10.1924C266.109 9.94798 266.44 9.81053 266.786 9.81019V9.81019ZM282.531 33.1779C282.187 33.1779 281.851 33.2799 281.566 33.4708C281.28 33.6618 281.057 33.9333 280.925 34.2509C280.794 34.5685 280.759 34.9179 280.826 35.2551C280.894 35.5923 281.059 35.902 281.302 36.145C281.545 36.3881 281.855 36.5536 282.192 36.6207C282.529 36.6878 282.879 36.6534 283.196 36.5218C283.514 36.3902 283.785 36.1675 283.976 35.8816C284.167 35.5958 284.269 35.2598 284.269 34.916C284.269 34.4552 284.085 34.0134 283.76 33.6876C283.434 33.3617 282.992 33.1784 282.531 33.1779ZM282.531 35.7851C282.359 35.7851 282.191 35.7341 282.048 35.6386C281.905 35.5431 281.794 35.4074 281.728 35.2486C281.663 35.0898 281.645 34.915 281.679 34.7465C281.712 34.5779 281.795 34.423 281.917 34.3015C282.038 34.18 282.193 34.0972 282.362 34.0637C282.53 34.0301 282.705 34.0473 282.864 34.1131C283.023 34.1789 283.158 34.2903 283.254 34.4332C283.349 34.5761 283.4 34.7441 283.4 34.916C283.4 35.1464 283.308 35.3673 283.145 35.5303C282.982 35.6932 282.762 35.7848 282.531 35.7851ZM206.302 5.03042C205.959 5.03042 205.622 5.13236 205.337 5.32335C205.051 5.51433 204.828 5.78578 204.696 6.10338C204.565 6.42097 204.531 6.77045 204.598 7.10761C204.665 7.44476 204.83 7.75446 205.073 7.99754C205.316 8.24062 205.626 8.40615 205.963 8.47322C206.3 8.54028 206.65 8.50586 206.967 8.37431C207.285 8.24276 207.556 8.01998 207.747 7.73415C207.938 7.44833 208.04 7.11228 208.04 6.76852C208.04 6.30771 207.857 5.86592 207.531 5.54008C207.205 5.21424 206.763 5.03095 206.302 5.03042V5.03042ZM206.302 7.63757C206.13 7.63757 205.962 7.5866 205.819 7.49111C205.677 7.39561 205.565 7.25989 205.499 7.10109C205.434 6.94229 205.416 6.76756 205.45 6.59898C205.483 6.4304 205.566 6.27555 205.688 6.15401C205.809 6.03247 205.964 5.9497 206.133 5.91617C206.301 5.88264 206.476 5.89985 206.635 5.96562C206.794 6.0314 206.929 6.14279 207.025 6.2857C207.12 6.42862 207.171 6.59664 207.171 6.76852C207.171 6.99893 207.079 7.21985 206.917 7.38277C206.754 7.5457 206.533 7.63734 206.302 7.63757V7.63757ZM296.098 1.922C295.754 1.922 295.418 2.02393 295.132 2.21492C294.847 2.4059 294.624 2.67736 294.492 2.99495C294.361 3.31255 294.326 3.66202 294.393 3.99918C294.46 4.33634 294.626 4.64603 294.869 4.88911C295.112 5.13219 295.422 5.29773 295.759 5.36479C296.096 5.43186 296.446 5.39744 296.763 5.26588C297.081 5.13433 297.352 4.91155 297.543 4.62573C297.734 4.3399 297.836 4.00385 297.836 3.66009C297.836 3.19928 297.652 2.7575 297.327 2.43166C297.001 2.10581 296.559 1.92252 296.098 1.922V1.922ZM296.098 4.52914C295.926 4.52914 295.758 4.47817 295.615 4.38268C295.472 4.28719 295.361 4.15146 295.295 3.99266C295.229 3.83386 295.212 3.65913 295.246 3.49055C295.279 3.32197 295.362 3.16712 295.484 3.04558C295.605 2.92404 295.76 2.84128 295.929 2.80774C296.097 2.77421 296.272 2.79142 296.431 2.8572C296.589 2.92297 296.725 3.03436 296.821 3.17728C296.916 3.32019 296.967 3.48821 296.967 3.66009C296.967 3.89051 296.875 4.11142 296.712 4.27435C296.549 4.43728 296.329 4.52891 296.098 4.52914V4.52914ZM192.416 25.4783C192.416 25.1346 192.314 24.7985 192.123 24.5127C191.933 24.2269 191.661 24.0041 191.343 23.8726C191.026 23.741 190.676 23.7066 190.339 23.7736C190.002 23.8407 189.692 24.0062 189.449 24.2493C189.206 24.4924 189.041 24.8021 188.974 25.1393C188.907 25.4764 188.941 25.8259 189.073 26.1435C189.204 26.4611 189.427 26.7325 189.713 26.9235C189.999 27.1145 190.335 27.2164 190.678 27.2164C191.139 27.2159 191.581 27.0326 191.907 26.7068C192.233 26.3809 192.416 25.9392 192.416 25.4783V25.4783ZM189.809 25.4783C189.809 25.3065 189.86 25.1384 189.956 24.9955C190.051 24.8526 190.187 24.7412 190.346 24.6754C190.505 24.6097 190.679 24.5925 190.848 24.626C191.016 24.6595 191.171 24.7423 191.293 24.8638C191.414 24.9854 191.497 25.1402 191.531 25.3088C191.564 25.4774 191.547 25.6521 191.481 25.8109C191.415 25.9697 191.304 26.1054 191.161 26.2009C191.018 26.2964 190.85 26.3474 190.678 26.3474C190.448 26.3472 190.227 26.2555 190.064 26.0926C189.901 25.9297 189.81 25.7088 189.809 25.4783V25.4783Z" fill="#2A347B"/>
<path d="M167.658 40.0449L168.951 38.3459L168.135 37.8835L167.306 39.7868H167.278L166.436 37.8966L165.605 38.3728L166.883 40.0318V40.0588L164.884 39.8007V40.7245L166.897 40.4672V40.4942L165.605 42.1523L166.38 42.6425L167.265 40.7245H167.291L168.107 42.6285L168.964 42.1393L167.658 40.5072V40.4803L169.711 40.7245V39.8007L167.658 40.0718V40.0449Z" fill="#5BB647"/>
<path d="M168.457 6.90195L167.713 7.85703L168.159 8.13861L168.668 7.03492H168.684L169.154 8.13078L169.647 7.84921L168.895 6.9089V6.89326L170.078 7.03492V6.50219L168.895 6.65862V6.64297L169.64 5.66443L169.17 5.3985L168.692 6.49437H168.676L168.191 5.40545L167.713 5.68007L168.449 6.63515V6.6508L167.298 6.50219V7.03492L168.457 6.88631V6.90195Z" fill="#5BB647"/>
<path d="M306.047 35.3694V34.4621L304.034 34.7289V34.7019L305.302 33.0351L304.501 32.5823L303.688 34.449H303.66L302.834 32.5954L302.019 33.062L303.273 34.6889V34.7158L301.313 34.4621V35.3694L303.286 35.1165V35.1426L302.019 36.7694L302.78 37.25L303.647 35.3694H303.673L304.473 37.2361L305.314 36.7564L304.034 35.1556V35.1295L306.047 35.3694Z" fill="#5BB647"/>
<path d="M237.99 13.8796L239.083 12.4413L238.393 12.0502L237.691 13.6606H237.667L236.954 12.0615L236.252 12.4639L237.334 13.8683V13.8909L235.642 13.6719V14.454L237.346 14.2359V14.2594L236.252 15.662L236.908 16.0765L237.656 14.454H237.678L238.369 16.0652L239.094 15.6507L237.99 14.2706V14.2472L239.727 14.454V13.6719L237.99 13.9022V13.8796Z" fill="#5BB647"/>
</g>
<path d="M40.7758 62.8003C40.9843 62.9612 41.2224 63.0795 41.4766 63.1483C41.7308 63.2172 41.9961 63.2352 42.2573 63.2015C42.5184 63.1678 42.7704 63.083 42.9988 62.9518C43.2272 62.8207 43.4275 62.6458 43.5883 62.4372C43.784 62.1789 43.9822 61.9223 44.1829 61.6676C44.5166 61.2414 44.6714 60.7021 44.6145 60.1639C44.5576 59.6256 44.2935 59.1306 43.878 58.7836C43.6743 58.6148 43.4386 58.4888 43.1852 58.413C42.9317 58.3371 42.6656 58.3131 42.4027 58.3422C42.1397 58.3713 41.8853 58.453 41.6546 58.5824C41.4239 58.7119 41.2216 58.8864 41.0596 59.0956C40.8443 59.3695 40.6314 59.6453 40.421 59.9229C40.0947 60.3546 39.9493 60.8964 40.0155 61.4335C40.0817 61.9706 40.3544 62.4608 40.7758 62.8003V62.8003Z" fill="#0BCEB2"/>
<path d="M63.0443 42.1367C62.7276 42.273 62.4128 42.412 62.0997 42.5539C61.6101 42.7827 61.2293 43.1939 61.0386 43.6996C60.848 44.2053 60.8626 44.7655 61.0794 45.2606C61.295 45.747 61.6932 46.1291 62.1881 46.3244C62.6829 46.5197 63.2348 46.5127 63.7245 46.3047C64.0142 46.173 64.3056 46.0443 64.5985 45.9186C65.0924 45.6994 65.4809 45.2956 65.681 44.7936C65.8811 44.2917 65.8769 43.7313 65.6693 43.2324C65.5715 42.9861 65.4254 42.7618 65.2396 42.5728C65.0538 42.3838 64.8321 42.2338 64.5875 42.1317C64.343 42.0296 64.0804 41.9775 63.8154 41.9783C63.5504 41.9792 63.2882 42.0331 63.0443 42.1367V42.1367Z" fill="#2D4356"/>
<path d="M54.8373 46.5205C54.5471 46.7083 54.2592 46.8983 53.9735 47.0904C53.5273 47.3964 53.2179 47.8643 53.1109 48.3946C53.0039 48.925 53.1078 49.4762 53.4004 49.9313C53.6918 50.376 54.1474 50.6873 54.6676 50.7972C55.1878 50.9071 55.7303 50.8066 56.1767 50.5178C56.4429 50.3384 56.711 50.1615 56.9808 49.9869C57.4323 49.6889 57.7498 49.2266 57.8659 48.6982C57.9821 48.1698 57.8877 47.617 57.6028 47.157C57.4657 46.9307 57.2845 46.7343 57.0701 46.5792C56.8557 46.4242 56.6124 46.3137 56.3546 46.2543C56.0967 46.195 55.8296 46.188 55.569 46.2337C55.3083 46.2794 55.0595 46.3769 54.8373 46.5205V46.5205Z" fill="#0BCEB2"/>
<path d="M48.044 56.4471C48.5442 56.4598 49.0303 56.281 49.4031 55.9472C49.638 55.7254 49.8748 55.5052 50.1137 55.2867C50.5113 54.9193 50.7503 54.4116 50.7801 53.8711C50.81 53.3306 50.6284 52.7997 50.2737 52.3907C50.1011 52.1904 49.8899 52.0268 49.6527 51.9097C49.4156 51.7926 49.1574 51.7244 48.8933 51.7091C48.6293 51.6938 48.3649 51.7318 48.1158 51.8208C47.8668 51.9097 47.6382 52.0479 47.4436 52.2269C47.1881 52.4603 46.9346 52.6958 46.6831 52.9335C46.2917 53.3074 46.0611 53.819 46.04 54.3599C46.019 54.9008 46.2092 55.4287 46.5704 55.8319C46.7606 56.0301 46.9896 56.1871 47.2431 56.2929C47.4967 56.3988 47.7693 56.4512 48.044 56.4471V56.4471ZM126.397 62.9751C126.555 63.1857 126.753 63.3631 126.98 63.4971C127.207 63.6311 127.458 63.7191 127.719 63.756C127.979 63.793 128.245 63.7781 128.5 63.7124C128.755 63.6466 128.995 63.5312 129.205 63.3728C129.63 63.0381 129.909 62.5511 129.981 62.0147C130.054 61.4784 129.915 60.9349 129.594 60.4993C129.387 60.2204 129.178 59.9429 128.967 59.667C128.808 59.4558 128.608 59.2787 128.379 59.1463C128.15 59.014 127.896 58.929 127.634 58.8964C127.371 58.8639 127.105 58.8844 126.851 58.9568C126.596 59.0292 126.359 59.152 126.153 59.3179C125.733 59.6597 125.463 60.1514 125.399 60.6889C125.336 61.2263 125.483 61.7675 125.812 62.1979C126.009 62.4553 126.204 62.7144 126.397 62.9751Z" fill="#2D4356"/>
<path d="M120.662 56.4099C121.037 56.7676 121.536 56.9658 122.054 56.9628C122.572 56.9599 123.068 56.756 123.439 56.3941C123.458 56.3746 123.478 56.3546 123.496 56.3343C123.863 55.9358 124.06 55.4105 124.046 54.8693C124.032 54.3282 123.809 53.8136 123.423 53.4343C123.173 53.1919 122.921 52.9521 122.667 52.7147C122.475 52.5333 122.248 52.3924 122 52.3004C121.752 52.2085 121.488 52.1674 121.224 52.1795C120.96 52.1917 120.701 52.2568 120.462 52.3711C120.224 52.4854 120.011 52.6466 119.836 52.8449C119.477 53.2498 119.289 53.7786 119.313 54.3194C119.336 54.8602 119.57 55.3705 119.963 55.7424C120.198 55.9627 120.432 56.1852 120.662 56.4099Z" fill="#0BCEB2"/>
<path d="M113.155 50.35C113.424 50.5288 113.691 50.7098 113.955 50.8929C114.284 51.1216 114.675 51.2443 115.076 51.2444C115.406 51.2439 115.731 51.161 116.021 51.0034C116.312 50.8458 116.558 50.6183 116.739 50.3415C117.037 49.8899 117.147 49.34 117.046 48.8083C116.946 48.2767 116.642 47.8051 116.2 47.4935C115.915 47.2973 115.629 47.103 115.341 46.9107C115.12 46.7642 114.873 46.6635 114.613 46.6144C114.353 46.5654 114.086 46.569 113.827 46.6251C113.568 46.6812 113.324 46.7886 113.107 46.9409C112.891 47.0933 112.707 47.2875 112.567 47.5121C112.277 47.9687 112.176 48.5204 112.286 49.0502C112.396 49.58 112.708 50.0463 113.155 50.35V50.35Z" fill="#2D4356"/>
<path d="M108.121 42.8478C107.807 42.7006 107.491 42.5564 107.175 42.4152C106.932 42.3085 106.671 42.2515 106.406 42.2473C106.141 42.2432 105.878 42.292 105.632 42.391C105.386 42.49 105.163 42.6372 104.975 42.8238C104.786 43.0104 104.638 43.2328 104.537 43.4778C104.323 43.9742 104.312 44.5345 104.506 45.0388C104.7 45.5432 105.084 45.9517 105.575 46.177C105.868 46.3072 106.159 46.4404 106.449 46.5766C106.71 46.6997 106.995 46.7637 107.284 46.7639C107.671 46.7621 108.049 46.6481 108.373 46.4358C108.696 46.2235 108.951 45.9219 109.107 45.5676C109.33 45.0752 109.352 44.5152 109.168 44.007C108.983 43.4989 108.608 43.0829 108.121 42.8478V42.8478Z" fill="#0BCEB2"/>
<path d="M97.4255 43.3451C97.7362 43.4247 98.0456 43.5067 98.3538 43.591C98.5232 43.6379 98.6982 43.6616 98.874 43.6616C99.3192 43.6577 99.7506 43.5063 100.101 43.2312C100.451 42.956 100.7 42.5725 100.809 42.1407C100.949 41.6198 100.879 41.0645 100.614 40.5946C100.349 40.1246 99.9099 39.7778 99.3913 39.6288C99.0604 39.5377 98.7285 39.4497 98.3954 39.3649C98.1377 39.3011 97.8698 39.2892 97.6075 39.33C97.3451 39.3708 97.0935 39.4634 96.8674 39.6024C96.6412 39.7415 96.445 39.9242 96.2901 40.1399C96.1353 40.3556 96.025 40.5999 95.9656 40.8587C95.8338 41.3818 95.913 41.9358 96.1861 42.401C96.4593 42.8662 96.9044 43.2053 97.4255 43.3451V43.3451Z" fill="#2D4356"/>
<path d="M88.9366 41.9339C89.2552 41.96 90.021 42.029 90.0857 42.029C90.6048 42.016 91.0998 41.8068 91.4709 41.4436C91.842 41.0803 92.0618 40.59 92.0859 40.0712C92.11 39.5525 91.9367 39.0438 91.6009 38.6477C91.2651 38.2516 90.7918 37.9974 90.2761 37.9362C89.9344 37.9026 89.5924 37.8721 89.2498 37.8445C88.9842 37.8249 88.7173 37.8582 88.4647 37.9426C88.212 38.0269 87.9787 38.1607 87.7782 38.336C87.5777 38.5113 87.4141 38.7248 87.2968 38.9639C87.1795 39.203 87.1109 39.4631 87.095 39.729C87.0482 40.2653 87.2156 40.7983 87.5607 41.2115C87.9058 41.6247 88.4005 41.8844 88.9366 41.9339Z" fill="#0BCEB2"/>
<path d="M80.157 41.9675C80.2138 41.9675 80.964 41.9078 81.2835 41.8864C81.8173 41.8392 82.3115 41.5851 82.6604 41.1783C83.0093 40.7715 83.1851 40.2444 83.1503 39.7097C83.1156 39.1749 82.8729 38.675 82.4743 38.3168C82.0757 37.9586 81.5528 37.7706 81.0174 37.793C80.6743 37.8166 80.3319 37.8431 79.9902 37.8726C79.4719 37.928 78.994 38.1785 78.6535 38.5732C78.313 38.9679 78.1353 39.4773 78.1566 39.9982C78.1778 40.519 78.3963 41.0123 78.7678 41.378C79.1393 41.7437 79.6359 41.9545 80.1571 41.9675L80.157 41.9675Z" fill="#2D4356"/>
<path d="M71.349 43.4903C71.5167 43.4903 71.6837 43.4688 71.8458 43.4262C72.1541 43.3456 72.4634 43.268 72.7737 43.1933C73.2966 43.0609 73.7464 42.7279 74.0258 42.2665C74.3053 41.8052 74.392 41.2523 74.2673 40.7275C74.2109 40.4681 74.1036 40.2225 73.9516 40.0049C73.7995 39.7874 73.6058 39.6021 73.3817 39.4599C73.1575 39.3178 72.9074 39.2215 72.6458 39.1767C72.3841 39.132 72.1162 39.1396 71.8575 39.1991C71.5218 39.2798 71.1878 39.3637 70.8553 39.451C70.335 39.5937 69.8916 39.9352 69.6209 40.4019C69.3501 40.8685 69.2738 41.4229 69.4082 41.9454C69.5128 42.3826 69.7607 42.7723 70.1125 43.0522C70.4642 43.3322 70.8995 43.4864 71.349 43.4903V43.4903ZM48.3276 131.151C48.1386 130.966 47.9146 130.821 47.6687 130.724C47.4228 130.627 47.16 130.581 46.8959 130.587C46.6317 130.594 46.3715 130.653 46.1306 130.762C45.8898 130.871 45.6731 131.026 45.4935 131.22C45.1262 131.616 44.9279 132.139 44.9406 132.679C44.9533 133.219 45.1761 133.732 45.5615 134.11C45.8106 134.352 46.0617 134.592 46.3147 134.829C46.5071 135.011 46.7339 135.151 46.9816 135.243C47.2294 135.335 47.4931 135.377 47.7571 135.365C48.0211 135.354 48.2802 135.29 48.519 135.176C48.7577 135.063 48.9714 134.903 49.1473 134.706C49.507 134.303 49.6956 133.776 49.673 133.237C49.6503 132.697 49.4182 132.188 49.0259 131.817C48.791 131.597 48.5582 131.375 48.3276 131.151Z" fill="#0BCEB2"/>
<path d="M42.6056 124.597C42.284 124.175 41.8095 123.897 41.2843 123.822C40.7592 123.746 40.2255 123.88 39.7984 124.195C39.3725 124.527 39.0929 125.011 39.0192 125.546C38.9455 126.081 39.0836 126.623 39.404 127.058C39.61 127.337 39.8183 127.614 40.0289 127.889C40.3585 128.304 40.8376 128.573 41.3635 128.639C41.8894 128.706 42.4204 128.563 42.8425 128.242C43.2627 127.904 43.5341 127.414 43.5989 126.878C43.6637 126.343 43.5168 125.803 43.1894 125.373C42.9927 125.116 42.7981 124.858 42.6056 124.597Z" fill="#2D4356"/>
<path d="M63.3985 141.37C63.268 141.296 63.133 141.229 62.9972 141.167C62.6062 140.969 62.1821 140.845 61.7462 140.801C61.3485 140.796 60.9579 140.907 60.6222 141.12C60.2866 141.333 60.0205 141.64 59.8566 142.002C59.6927 142.364 59.6382 142.767 59.6997 143.16C59.7612 143.553 59.9361 143.919 60.2029 144.214C60.5133 144.515 60.8788 144.753 61.2793 144.915C61.634 145.098 62.0175 145.22 62.4131 145.274C62.7207 145.299 63.03 145.254 63.3175 145.142C63.6049 145.029 63.863 144.853 64.0721 144.626C64.4183 144.242 64.6059 143.741 64.5972 143.224C64.5884 142.707 64.3839 142.212 64.0249 141.84C63.84 141.654 63.629 141.495 63.3985 141.37V141.37Z" fill="#0BCEB2"/>
<path d="M71.5385 144.217C71.2287 144.139 70.9202 144.057 70.6131 143.971C70.3571 143.902 70.09 143.884 69.8271 143.919C69.5643 143.954 69.3111 144.041 69.0822 144.175C68.8533 144.309 68.6533 144.487 68.4939 144.699C68.3345 144.911 68.2189 145.152 68.1538 145.409C68.0121 145.929 68.0806 146.483 68.3445 146.952C68.6083 147.422 69.0464 147.768 69.5638 147.917C69.8956 148.009 70.2282 148.098 70.5617 148.183C71.0125 148.287 71.4852 148.234 71.9024 148.035C72.3197 147.835 72.6567 147.499 72.8585 147.083C72.9163 146.96 72.9618 146.831 72.9944 146.698C73.1266 146.176 73.0479 145.623 72.7754 145.159C72.5029 144.695 72.0586 144.357 71.5385 144.217V144.217ZM55.8231 137.205C55.555 137.027 55.2887 136.846 55.0244 136.663C54.8071 136.512 54.5618 136.407 54.303 136.353C54.0442 136.298 53.7772 136.297 53.5177 136.347C53.2582 136.398 53.0114 136.5 52.792 136.647C52.5726 136.795 52.385 136.985 52.2403 137.206C51.9412 137.656 51.8296 138.204 51.9291 138.734C52.0287 139.265 52.3316 139.735 52.7733 140.045C53.0571 140.242 53.3429 140.436 53.6307 140.628C53.9544 140.845 54.3353 140.961 54.725 140.961C55.0603 140.96 55.3902 140.875 55.6839 140.713C55.9775 140.551 56.2256 140.318 56.405 140.034C56.6962 139.58 56.7984 139.03 56.6896 138.502C56.5809 137.973 56.2699 137.508 55.8231 137.205V137.205Z" fill="#2D4356"/>
<path d="M112.803 137.154C112.535 137.333 112.266 137.509 111.996 137.683C111.545 137.978 111.227 138.439 111.11 138.966C110.993 139.492 111.086 140.044 111.371 140.503C111.654 140.952 112.104 141.271 112.622 141.391C113.14 141.51 113.684 141.42 114.136 141.14C114.425 140.954 114.713 140.766 114.999 140.575C115.445 140.272 115.756 139.806 115.864 139.278C115.972 138.749 115.869 138.199 115.578 137.745C115.437 137.521 115.252 137.328 115.035 137.177C114.818 137.026 114.573 136.92 114.315 136.865C114.056 136.81 113.789 136.807 113.529 136.857C113.27 136.907 113.023 137.008 112.803 137.154Z" fill="#0BCEB2"/>
<path d="M105.249 141.337C104.957 141.467 104.664 141.595 104.37 141.721C103.876 141.938 103.487 142.339 103.286 142.84C103.086 143.34 103.089 143.899 103.296 144.397C103.501 144.888 103.891 145.278 104.382 145.483C104.874 145.689 105.426 145.692 105.919 145.492C106.234 145.357 106.548 145.22 106.861 145.08C107.351 144.855 107.733 144.447 107.925 143.943C108.118 143.44 108.105 142.881 107.89 142.387C107.788 142.142 107.638 141.921 107.449 141.736C107.26 141.55 107.036 141.404 106.79 141.307C106.544 141.209 106.281 141.161 106.016 141.167C105.752 141.172 105.491 141.23 105.249 141.337V141.337ZM119.585 131.759C119.351 131.979 119.115 132.197 118.876 132.412C118.478 132.777 118.238 133.282 118.206 133.821C118.174 134.36 118.354 134.89 118.708 135.298C119.061 135.696 119.557 135.937 120.087 135.969C120.618 136.001 121.139 135.822 121.538 135.471C121.795 135.238 122.05 135.003 122.302 134.765C122.694 134.394 122.925 133.884 122.947 133.345C122.968 132.805 122.778 132.279 122.418 131.877C122.241 131.68 122.028 131.52 121.789 131.407C121.55 131.294 121.29 131.231 121.026 131.22C120.762 131.209 120.499 131.251 120.251 131.343C120.003 131.436 119.777 131.578 119.585 131.759Z" fill="#2D4356"/>
<path d="M128.227 124.945C128.021 124.78 127.783 124.658 127.529 124.587C127.274 124.515 127.008 124.495 126.745 124.529C126.483 124.562 126.23 124.647 126.001 124.78C125.773 124.913 125.573 125.09 125.414 125.301C125.218 125.557 125.02 125.812 124.82 126.065C124.485 126.488 124.328 127.026 124.383 127.563C124.439 128.1 124.701 128.594 125.116 128.94C125.32 129.106 125.556 129.229 125.809 129.304C126.061 129.378 126.326 129.402 126.588 129.374C126.85 129.346 127.104 129.267 127.335 129.14C127.566 129.014 127.77 128.843 127.935 128.638C128.151 128.366 128.365 128.091 128.577 127.814C128.904 127.384 129.05 126.844 128.985 126.308C128.92 125.773 128.648 125.283 128.227 124.945V124.945ZM80.028 145.642C79.7084 145.615 79.3895 145.586 79.0712 145.554C78.5375 145.513 78.0089 145.683 77.5992 146.028C77.1894 146.372 76.9312 146.864 76.8799 147.397C76.8286 147.929 76.9884 148.461 77.325 148.877C77.6615 149.294 78.148 149.561 78.6797 149.623C79.0204 149.657 79.3615 149.689 79.703 149.717C80.0721 149.741 80.4407 149.665 80.7695 149.495C81.0983 149.326 81.3749 149.071 81.5696 148.756C81.7373 148.48 81.838 148.168 81.8637 147.845C81.9111 147.31 81.7446 146.777 81.4006 146.365C81.0566 145.952 80.5631 145.692 80.028 145.642V145.642Z" fill="#0BCEB2"/>
<path d="M88.6324 145.633C88.3163 145.66 87.999 145.684 87.6806 145.704C87.1581 145.747 86.672 145.989 86.3228 146.38C85.9736 146.771 85.7878 147.282 85.8039 147.806C85.8199 148.33 86.0366 148.828 86.4091 149.197C86.7817 149.566 87.2816 149.777 87.8058 149.788C87.8484 149.788 88.6227 149.736 88.9652 149.707C89.5002 149.656 89.9931 149.395 90.3363 148.982C90.6795 148.568 90.8449 148.035 90.7965 147.5C90.7784 147.235 90.7078 146.976 90.589 146.738C90.4701 146.501 90.3053 146.289 90.104 146.115C89.9028 145.941 89.6691 145.809 89.4165 145.727C89.1639 145.644 88.8974 145.612 88.6324 145.633V145.633Z" fill="#2D4356"/>
<path d="M97.118 144.19C96.8096 144.269 96.5 144.346 96.1891 144.42C95.6668 144.55 95.2169 144.881 94.9368 145.341C94.6566 145.8 94.5689 146.352 94.6926 146.875C94.7908 147.321 95.0371 147.719 95.3914 148.006C95.7457 148.293 96.1868 148.452 96.6428 148.455C96.794 148.455 97.7698 148.239 98.1026 148.152C98.6224 148.013 99.0661 147.673 99.3376 147.209C99.6091 146.744 99.6865 146.191 99.5532 145.669C99.4919 145.411 99.3801 145.168 99.2241 144.954C99.0682 144.74 98.8712 144.558 98.6447 144.421C98.4182 144.283 98.1666 144.192 97.9045 144.152C97.6424 144.113 97.3751 144.125 97.118 144.19Z" fill="#0BCEB2"/>
<path d="M48.706 89.9622L55.1308 83.3974C55.5258 82.994 55.8013 82.489 55.9266 81.9386C56.052 81.3881 56.0223 80.8136 55.8408 80.279C55.6691 79.7537 55.3552 79.2862 54.9339 78.9285C54.5126 78.5708 54.0004 78.3368 53.4541 78.2525L44.6514 76.9121L40.6978 68.5151C40.4603 67.9997 40.0801 67.5631 39.6022 67.2571C39.1242 66.9511 38.5687 66.7884 38.0012 66.7884C37.4337 66.7883 36.8781 66.9509 36.4001 67.2568C35.9221 67.5628 35.5418 67.9992 35.3042 68.5146L31.3506 76.912L22.5469 78.2525C22.0009 78.3369 21.4888 78.571 21.0677 78.9287C20.6466 79.2864 20.3328 79.7538 20.1611 80.279C19.9797 80.8137 19.95 81.3883 20.0754 81.9389C20.2009 82.4894 20.4764 82.9945 20.8716 83.3979L27.2959 89.9622L25.7759 99.2528C25.6789 99.8181 25.7442 100.399 25.9641 100.929C26.1841 101.459 26.5497 101.915 27.0186 102.245C27.4706 102.568 28.0047 102.755 28.5591 102.786C29.1135 102.817 29.6653 102.691 30.1504 102.421L38.001 98.0946L45.852 102.421C46.3387 102.686 46.8896 102.809 47.4427 102.778C47.9959 102.747 48.5294 102.563 48.9834 102.245C49.4522 101.915 49.8178 101.459 50.0377 100.929C50.2577 100.4 50.323 99.8185 50.2261 99.2533L48.706 89.9622ZM44.6831 90.1463L45.9531 97.9095L39.4262 94.3126C38.99 94.0707 38.4994 93.9438 38.0006 93.9439C37.5019 93.944 37.0113 94.0711 36.5752 94.3131L30.0488 97.9095L31.3188 90.1473C31.3967 89.673 31.3622 89.187 31.2182 88.7283C31.0742 88.2697 30.8247 87.8512 30.4897 87.5065L25.0239 81.9217L32.4936 80.7844C32.9791 80.7089 33.4385 80.515 33.8313 80.2198C34.2241 79.9247 34.5381 79.5373 34.7456 79.0919L38.001 72.1774L41.2564 79.0915C41.4639 79.5371 41.7781 79.9247 42.1712 80.22C42.5642 80.5153 43.024 80.7091 43.5098 80.7844L50.978 81.9217L45.5127 87.506C45.1776 87.8506 44.928 88.269 44.784 88.7275C44.6399 89.1861 44.6053 89.672 44.6831 90.1463L44.6831 90.1463ZM147.839 80.279C147.667 79.7537 147.353 79.2862 146.932 78.9285C146.511 78.5708 145.998 78.3368 145.452 78.2525L136.649 76.9121L132.696 68.5151C132.458 67.9997 132.078 67.5631 131.6 67.2571C131.122 66.9511 130.567 66.7884 129.999 66.7884C129.432 66.7883 128.876 66.9509 128.398 67.2568C127.92 67.5628 127.54 67.9992 127.302 68.5146L123.349 76.912L114.545 78.2525C113.999 78.3369 113.487 78.571 113.066 78.9287C112.645 79.2864 112.331 79.7538 112.159 80.279C111.978 80.8137 111.948 81.3883 112.074 81.9388C112.199 82.4894 112.475 82.9944 112.87 83.3978L119.294 89.9622L117.774 99.2528C117.677 99.8181 117.742 100.399 117.962 100.929C118.182 101.459 118.548 101.915 119.017 102.245C119.469 102.568 120.003 102.755 120.557 102.786C121.112 102.817 121.663 102.691 122.148 102.421L129.999 98.0945C129.999 98.0945 137.846 102.419 137.85 102.421C138.337 102.684 138.888 102.807 139.441 102.776C139.993 102.745 140.527 102.561 140.982 102.245C141.45 101.915 141.816 101.459 142.036 100.929C142.256 100.4 142.321 99.8185 142.224 99.2533L140.704 89.9622L147.129 83.3973C147.524 82.9939 147.799 82.489 147.925 81.9385C148.05 81.388 148.02 80.8136 147.839 80.279ZM137.511 87.506C137.176 87.8506 136.926 88.269 136.782 88.7275C136.638 89.1861 136.603 89.672 136.681 90.1463L137.951 97.9095L131.424 94.3126C130.988 94.0707 130.497 93.9439 129.999 93.9439C129.5 93.944 129.009 94.0711 128.573 94.3131L122.047 97.9095L123.317 90.1473C123.395 89.673 123.36 89.187 123.216 88.7283C123.072 88.2697 122.823 87.8512 122.488 87.5065L117.022 81.9217L124.492 80.7844C124.977 80.7089 125.437 80.515 125.829 80.2198C126.222 79.9247 126.536 79.5373 126.744 79.092L129.999 72.1774L133.254 79.0915C133.462 79.5371 133.776 79.9247 134.169 80.22C134.562 80.5153 135.022 80.7091 135.508 80.7844L142.976 81.9217L137.511 87.506Z" fill="#2D4356"/>
<path d="M99.4531 78.2525L90.6504 76.9121L86.6968 68.5151C86.4593 67.9997 86.0791 67.5631 85.6011 67.2571C85.1232 66.9511 84.5677 66.7884 84.0002 66.7884C83.4327 66.7883 82.8771 66.9509 82.3991 67.2568C81.9211 67.5628 81.5408 67.9992 81.3032 68.5146L77.3496 76.912L68.5459 78.2525C67.9998 78.337 67.4878 78.571 67.0667 78.9287C66.6456 79.2864 66.3318 79.7538 66.1601 80.279C65.9787 80.8137 65.949 81.3883 66.0745 81.9389C66.1999 82.4894 66.4755 82.9945 66.8706 83.3979L73.2949 89.9622L71.7749 99.2528C71.6779 99.8181 71.7432 100.399 71.9632 100.929C72.1831 101.459 72.5487 101.915 73.0176 102.245C73.4696 102.568 74.0038 102.755 74.5581 102.786C75.1125 102.817 75.6643 102.691 76.1494 102.421L84 98.0946C84 98.0946 91.8454 102.418 91.8511 102.421C92.3475 102.689 92.9093 102.811 93.472 102.773C94.0347 102.736 94.5755 102.541 95.0322 102.21C95.489 101.879 95.8432 101.426 96.0542 100.903C96.2651 100.38 96.3244 99.8084 96.2251 99.2533L94.7051 89.9622L101.13 83.3974C101.525 82.994 101.8 82.489 101.926 81.9386C102.051 81.3881 102.021 80.8136 101.84 80.279C101.668 79.7537 101.354 79.2862 100.933 78.9285C100.512 78.5708 99.9994 78.3368 99.4531 78.2525V78.2525ZM91.5117 87.506C91.1766 87.8506 90.9271 88.269 90.783 88.7275C90.6389 89.1861 90.6044 89.672 90.6821 90.1463L91.9521 97.9095L85.4253 94.3126C84.989 94.0707 84.4984 93.9439 83.9997 93.9439C83.5009 93.944 83.0103 94.0711 82.5742 94.3131L76.0478 97.9095L77.3178 90.1473C77.3957 89.6729 77.3612 89.1869 77.2172 88.7283C77.0732 88.2697 76.8237 87.8512 76.4887 87.5065L71.0229 81.9216L78.4927 80.7844C78.9781 80.7089 79.4376 80.515 79.8303 80.2198C80.2231 79.9246 80.5371 79.5373 80.7446 79.0919L84 72.1774L87.2554 79.0914C87.4629 79.5371 87.7771 79.9247 88.1702 80.22C88.5632 80.5153 89.023 80.7091 89.5088 80.7844L96.977 81.9216L91.5117 87.506Z" fill="#0BCEB2"/>
<path d="M133.296 110.456L135.457 108.158C135.725 107.873 135.903 107.517 135.97 107.132C136.038 106.748 135.991 106.352 135.836 105.994C135.681 105.635 135.425 105.33 135.099 105.116C134.772 104.902 134.39 104.787 134 104.787H126.56C126.03 104.787 125.521 104.998 125.146 105.373C124.771 105.748 124.56 106.257 124.56 106.787C124.56 107.318 124.771 107.827 125.146 108.202C125.521 108.577 126.03 108.788 126.56 108.788H129.374L128.186 110.051C127.919 110.336 127.74 110.692 127.673 111.077C127.606 111.461 127.652 111.857 127.807 112.215C127.962 112.574 128.218 112.879 128.545 113.093C128.871 113.308 129.253 113.422 129.643 113.422C130.921 113.422 132 114.193 132 115.105C132 116.017 130.921 116.788 129.643 116.788C129.255 116.801 128.868 116.728 128.511 116.574C128.154 116.42 127.836 116.189 127.579 115.898C127.418 115.69 127.217 115.516 126.989 115.386C126.76 115.255 126.509 115.172 126.248 115.139C125.987 115.106 125.722 115.125 125.469 115.194C125.215 115.264 124.978 115.383 124.77 115.544C124.563 115.705 124.389 115.906 124.259 116.135C124.129 116.363 124.046 116.615 124.013 116.876C123.981 117.137 124 117.402 124.07 117.655C124.14 117.909 124.26 118.146 124.421 118.353C125.051 119.127 125.848 119.748 126.753 120.17C127.657 120.592 128.645 120.803 129.643 120.788C133.148 120.788 136 118.239 136 115.105C135.982 114.164 135.724 113.243 135.251 112.43C134.778 111.617 134.105 110.937 133.296 110.456V110.456ZM40 118.788V106.787C40 106.43 39.904 106.078 39.722 105.77C39.5399 105.462 39.2785 105.208 38.965 105.036C38.6516 104.863 38.2975 104.777 37.9397 104.788C37.582 104.799 37.2337 104.906 36.9312 105.097L33.9312 106.994C33.4887 107.273 33.1735 107.715 33.0534 108.225C32.9332 108.734 33.0175 109.271 33.2883 109.719C33.5591 110.167 33.9948 110.491 34.5018 110.621C35.0088 110.751 35.5467 110.678 36 110.416V118.788C36 119.319 36.2107 119.827 36.5858 120.202C36.9609 120.578 37.4696 120.788 38 120.788C38.5304 120.788 39.0391 120.578 39.4142 120.202C39.7893 119.827 40 119.319 40 118.788ZM84.585 112.197L78.6958 117.272C78.3863 117.538 78.1657 117.893 78.0636 118.288C77.9616 118.683 77.983 119.101 78.1249 119.483C78.2669 119.866 78.5227 120.197 78.8579 120.43C79.1931 120.663 79.5916 120.788 80 120.788H87.7847C88.3151 120.788 88.8239 120.578 89.199 120.203C89.5741 119.827 89.7848 119.319 89.7848 118.788C89.7848 118.258 89.5741 117.749 89.199 117.374C88.8239 116.999 88.3151 116.788 87.7847 116.788H85.3931L87.1582 115.27C87.1909 115.242 87.2227 115.213 87.2534 115.183L87.3818 115.057C88.5938 113.872 89.8467 112.647 89.9863 110.653C90.0602 109.577 89.8098 108.503 89.2674 107.571C88.7251 106.639 87.9157 105.89 86.9439 105.422C86.0547 104.987 85.075 104.768 84.085 104.783C83.095 104.799 82.1227 105.048 81.2476 105.511C80.0118 106.197 79.001 107.226 78.3374 108.474C78.2092 108.704 78.1275 108.957 78.0971 109.218C78.0667 109.479 78.088 109.744 78.1601 109.997C78.2321 110.25 78.3533 110.486 78.5167 110.692C78.6802 110.898 78.8826 111.07 79.1126 111.198C79.3425 111.325 79.5954 111.407 79.8567 111.436C80.1181 111.466 80.3827 111.444 80.6355 111.372C80.8884 111.299 81.1244 111.178 81.3301 111.014C81.5359 110.85 81.7073 110.647 81.8345 110.417C82.1261 109.848 82.5722 109.372 83.1216 109.045C83.4312 108.885 83.773 108.797 84.1216 108.787C84.4701 108.778 84.8163 108.847 85.1343 108.99C85.402 109.105 85.6281 109.299 85.7821 109.547C85.9362 109.794 86.0109 110.083 85.9961 110.374C85.9644 110.828 85.4648 111.337 84.585 112.197Z" fill="#2D4356"/>
<path d="M2 163.788C3.10457 163.788 4 162.893 4 161.788C4 160.683 3.10457 159.788 2 159.788C0.89543 159.788 0 160.683 0 161.788C0 162.893 0.89543 163.788 2 163.788Z" fill="#2D4356"/>
<path d="M11 159.788H8C7.46957 159.788 6.96086 159.999 6.58579 160.374C6.21071 160.749 6 161.258 6 161.788C6 162.319 6.21071 162.828 6.58579 163.203C6.96086 163.578 7.46957 163.788 8 163.788H11C11.5304 163.788 12.0391 163.578 12.4142 163.203C12.7893 162.828 13 162.319 13 161.788C13 161.258 12.7893 160.749 12.4142 160.374C12.0391 159.999 11.5304 159.788 11 159.788ZM160 159.788H157C156.47 159.788 155.961 159.999 155.586 160.374C155.211 160.749 155 161.258 155 161.788C155 162.319 155.211 162.828 155.586 163.203C155.961 163.578 156.47 163.788 157 163.788H160C160.53 163.788 161.039 163.578 161.414 163.203C161.789 162.828 162 162.319 162 161.788C162 161.258 161.789 160.749 161.414 160.374C161.039 159.999 160.53 159.788 160 159.788Z" fill="#2D4356"/>
<path d="M166 163.788C167.105 163.788 168 162.893 168 161.788C168 160.683 167.105 159.788 166 159.788C164.895 159.788 164 160.683 164 161.788C164 162.893 164.895 163.788 166 163.788Z" fill="#2D4356"/>
<path d="M118.154 167.788H109.846C109.343 167.829 108.874 168.057 108.532 168.427C108.19 168.798 108 169.284 108 169.788C108 170.293 108.19 170.779 108.532 171.149C108.874 171.52 109.343 171.748 109.846 171.788H118.154C118.657 171.748 119.126 171.52 119.468 171.149C119.81 170.779 120 170.293 120 169.788C120 169.284 119.81 168.798 119.468 168.427C119.126 168.057 118.657 167.829 118.154 167.788ZM58.1539 167.788H49.8462C49.3434 167.829 48.8742 168.057 48.5321 168.427C48.19 168.798 48 169.284 48 169.788C48 170.293 48.19 170.779 48.5321 171.149C48.8742 171.52 49.3434 171.748 49.8462 171.788H58.1539C58.6567 171.748 59.1258 171.52 59.468 171.149C59.8101 170.779 60.0001 170.293 60.0001 169.788C60.0001 169.284 59.8101 168.798 59.468 168.427C59.1258 168.057 58.6567 167.829 58.1539 167.788V167.788ZM104 167.788H64C63.4696 167.788 62.9609 167.999 62.5858 168.374C62.2107 168.749 62 169.258 62 169.788C62 170.319 62.2107 170.828 62.5858 171.203C62.9609 171.578 63.4696 171.788 64 171.788H79.94V173.788H72C71.4696 173.788 70.9609 173.999 70.5858 174.374C70.2107 174.749 70 175.258 70 175.788C70 176.319 70.2107 176.828 70.5858 177.203C70.9609 177.578 71.4696 177.788 72 177.788H97C97.5305 177.788 98.0392 177.578 98.4142 177.203C98.7893 176.828 99 176.319 99 175.788C99 175.258 98.7893 174.749 98.4142 174.374C98.0392 173.999 97.5305 173.788 97 173.788H88.06V171.788H104C104.53 171.788 105.039 171.578 105.414 171.203C105.789 170.828 106 170.319 106 169.788C106 169.258 105.789 168.749 105.414 168.374C105.039 167.999 104.53 167.788 104 167.788Z" fill="#0BCEB2"/>
<path d="M150.721 163.788H17.2787C16.9942 163.826 16.705 163.802 16.4305 163.718C16.1559 163.635 15.9024 163.494 15.6867 163.304C15.4711 163.115 15.2983 162.882 15.18 162.62C15.0616 162.359 15.0004 162.075 15.0004 161.788C15.0004 161.501 15.0616 161.218 15.18 160.956C15.2983 160.695 15.4711 160.462 15.6867 160.273C15.9024 160.083 16.1559 159.942 16.4305 159.859C16.705 159.775 16.9942 159.751 17.2787 159.788H150.721C151.006 159.751 151.295 159.775 151.57 159.859C151.844 159.942 152.098 160.083 152.313 160.273C152.529 160.462 152.702 160.695 152.82 160.956C152.938 161.218 153 161.501 153 161.788C153 162.075 152.938 162.359 152.82 162.62C152.702 162.882 152.529 163.115 152.313 163.304C152.098 163.494 151.844 163.635 151.57 163.718C151.295 163.802 151.006 163.826 150.721 163.788ZM120.575 27.7884C121.169 27.7884 121.749 27.6125 122.242 27.2828C122.735 26.9532 123.12 26.4847 123.347 25.9365C123.574 25.3883 123.633 24.7851 123.518 24.2032C123.402 23.6212 123.116 23.0867 122.697 22.6671C122.277 22.2476 121.743 21.9618 121.161 21.8461C120.579 21.7303 119.975 21.7897 119.427 22.0168C118.879 22.2439 118.411 22.6284 118.081 23.1217C117.751 23.6151 117.575 24.1951 117.575 24.7884C117.576 25.5838 117.893 26.3463 118.455 26.9087C119.017 27.4712 119.78 27.7875 120.575 27.7884V27.7884ZM120.575 23.2884C120.872 23.2884 121.162 23.3764 121.409 23.5412C121.655 23.706 121.848 23.9403 121.961 24.2144C122.075 24.4885 122.104 24.7901 122.046 25.0811C121.989 25.372 121.846 25.6393 121.636 25.8491C121.426 26.0589 121.159 26.2017 120.868 26.2596C120.577 26.3175 120.275 26.2878 120.001 26.1742C119.727 26.0607 119.493 25.8685 119.328 25.6218C119.163 25.3751 119.075 25.0851 119.075 24.7884C119.076 24.3907 119.234 24.0094 119.515 23.7282C119.796 23.447 120.178 23.2888 120.575 23.2884V23.2884ZM138.693 50.1773C138.298 50.1773 137.911 50.2946 137.582 50.5144C137.253 50.7341 136.997 51.0465 136.846 51.412C136.694 51.7774 136.655 52.1795 136.732 52.5675C136.809 52.9555 137 53.3118 137.279 53.5915C137.559 53.8712 137.915 54.0617 138.303 54.1389C138.691 54.2161 139.093 54.1765 139.459 54.0251C139.824 53.8737 140.137 53.6174 140.356 53.2885C140.576 52.9596 140.693 52.5729 140.693 52.1773C140.693 51.6471 140.482 51.1387 140.107 50.7638C139.732 50.3888 139.224 50.1779 138.693 50.1773ZM138.693 53.1773C138.496 53.1773 138.302 53.1187 138.138 53.0088C137.973 52.8989 137.845 52.7427 137.77 52.56C137.694 52.3773 137.674 52.1762 137.713 51.9822C137.751 51.7882 137.846 51.6101 137.986 51.4702C138.126 51.3304 138.304 51.2351 138.498 51.1965C138.692 51.1579 138.893 51.1778 139.076 51.2534C139.259 51.3291 139.415 51.4573 139.525 51.6217C139.635 51.7862 139.693 51.9795 139.693 52.1773C139.693 52.4425 139.588 52.6967 139.4 52.8841C139.213 53.0716 138.959 53.1771 138.693 53.1773ZM50.978 17.7884C50.5824 17.7884 50.1958 17.9057 49.8669 18.1255C49.538 18.3453 49.2816 18.6576 49.1302 19.0231C48.9789 19.3885 48.9393 19.7906 49.0164 20.1786C49.0936 20.5666 49.2841 20.9229 49.5638 21.2026C49.8435 21.4823 50.1999 21.6728 50.5878 21.75C50.9758 21.8272 51.3779 21.7876 51.7434 21.6362C52.1088 21.4848 52.4212 21.2285 52.6409 20.8996C52.8607 20.5707 52.978 20.184 52.978 19.7884C52.9774 19.2582 52.7665 18.7498 52.3915 18.3749C52.0166 17.9999 51.5082 17.789 50.978 17.7884V17.7884ZM50.978 20.7884C50.7802 20.7884 50.5869 20.7298 50.4224 20.6199C50.258 20.51 50.1298 20.3538 50.0541 20.1711C49.9784 19.9884 49.9586 19.7873 49.9972 19.5933C50.0358 19.3994 50.131 19.2212 50.2709 19.0813C50.4107 18.9415 50.5889 18.8462 50.7829 18.8076C50.9769 18.7691 51.178 18.7889 51.3607 18.8645C51.5434 18.9402 51.6996 19.0684 51.8095 19.2329C51.9194 19.3973 51.978 19.5906 51.978 19.7884C51.9777 20.0536 51.8723 20.3078 51.6848 20.4952C51.4973 20.6827 51.2431 20.7882 50.978 20.7884V20.7884ZM154.305 14.2116C153.909 14.2116 153.522 14.3289 153.194 14.5487C152.865 14.7684 152.608 15.0808 152.457 15.4462C152.306 15.8117 152.266 16.2138 152.343 16.6018C152.42 16.9898 152.611 17.3461 152.891 17.6258C153.17 17.9055 153.527 18.096 153.915 18.1732C154.302 18.2503 154.705 18.2107 155.07 18.0594C155.436 17.908 155.748 17.6516 155.968 17.3227C156.187 16.9939 156.305 16.6072 156.305 16.2116C156.304 15.6814 156.093 15.173 155.718 14.7981C155.343 14.4231 154.835 14.2122 154.305 14.2116V14.2116ZM154.305 17.2116C154.107 17.2116 153.914 17.153 153.749 17.0431C153.585 16.9332 153.457 16.777 153.381 16.5943C153.305 16.4116 153.285 16.2105 153.324 16.0165C153.363 15.8225 153.458 15.6444 153.598 15.5045C153.737 15.3646 153.916 15.2694 154.11 15.2308C154.304 15.1922 154.505 15.212 154.687 15.2877C154.87 15.3634 155.026 15.4916 155.136 15.656C155.246 15.8205 155.305 16.0138 155.305 16.2116C155.304 16.4767 155.199 16.7309 155.012 16.9184C154.824 17.1059 154.57 17.2113 154.305 17.2116V17.2116ZM34.9997 41.3175C34.9997 40.922 34.8824 40.5353 34.6627 40.2064C34.4429 39.8775 34.1306 39.6212 33.7651 39.4698C33.3997 39.3184 32.9975 39.2788 32.6096 39.356C32.2216 39.4331 31.8652 39.6236 31.5855 39.9033C31.3058 40.183 31.1153 40.5394 31.0382 40.9274C30.961 41.3153 31.0006 41.7175 31.152 42.0829C31.3034 42.4484 31.5597 42.7607 31.8886 42.9805C32.2175 43.2002 32.6042 43.3175 32.9997 43.3175C33.53 43.3169 34.0383 43.106 34.4133 42.7311C34.7882 42.3561 34.9991 41.8478 34.9997 41.3175V41.3175ZM31.9997 41.3175C31.9997 41.1198 32.0584 40.9264 32.1683 40.762C32.2781 40.5975 32.4343 40.4693 32.6171 40.3937C32.7998 40.318 33.0008 40.2982 33.1948 40.3368C33.3888 40.3753 33.567 40.4706 33.7068 40.6104C33.8467 40.7503 33.9419 40.9285 33.9805 41.1224C34.0191 41.3164 33.9993 41.5175 33.9236 41.7002C33.8479 41.8829 33.7198 42.0391 33.5553 42.149C33.3909 42.2589 33.1975 42.3175 32.9997 42.3175C32.7346 42.3173 32.4804 42.2118 32.2929 42.0244C32.1054 41.8369 32 41.5827 31.9997 41.3175V41.3175Z" fill="#2D4356"/>
<path d="M6.51097 58.079L7.99797 56.124L7.05897 55.592L6.10497 57.782H6.07297L5.10397 55.607L4.14797 56.155L5.61897 58.064V58.095L3.31897 57.798V58.861L5.63497 58.565V58.596L4.14797 60.504L5.03997 61.068L6.05797 58.861H6.08797L7.02697 61.052L8.01297 60.489L6.51097 58.611V58.58L8.87297 58.861V57.798L6.51097 58.11V58.079Z" fill="#0BCEB2"/>
<path d="M7.43001 19.942L6.57401 21.041L7.08701 21.365L7.67301 20.095H7.69101L8.23201 21.356L8.79901 21.032L7.93401 19.95V19.932L9.29501 20.095V19.482L7.93401 19.662V19.644L8.79101 18.518L8.25001 18.212L7.70001 19.473H7.68201L7.12401 18.22L6.57401 18.536L7.42101 19.635V19.653L6.09601 19.482V20.095L7.43001 19.924V19.942Z" fill="#0BCEB2"/>
<path d="M165.753 52.699V51.655L163.436 51.962V51.931L164.895 50.013L163.974 49.492L163.038 51.64H163.006L162.055 49.507L161.118 50.044L162.561 51.916V51.947L160.305 51.655V52.699L162.576 52.408V52.438L161.118 54.31L161.993 54.863L162.991 52.699H163.021L163.942 54.847L164.909 54.295L163.436 52.453V52.423L165.753 52.699Z" fill="#0BCEB2"/>
<path d="M87.44 27.971L88.698 26.316L87.904 25.866L87.096 27.719H87.069L86.249 25.879L85.441 26.342L86.686 27.958V27.984L84.739 27.732V28.632L86.699 28.381V28.408L85.441 30.022L86.195 30.499L87.056 28.632H87.082L87.877 30.486L88.711 30.009L87.44 28.421V28.394L89.439 28.632V27.732L87.44 27.997V27.971Z" fill="#0BCEB2"/>
<defs>
<clipPath id="clip0_3301_43721">
<rect width="146" height="146" fill="white" transform="translate(162)"/>
</clipPath>
</defs>
</svg>
