<svg width="40" height="40" viewBox="0 0 40 40" fill="none" xmlns="http://www.w3.org/2000/svg">
<path d="M20 0C8.97167 0 0 8.97167 0 20C0 31.0283 8.97167 40 20 40C31.0283 40 40 31.0283 40 20C40 8.97167 31.0283 0 20 0Z" fill="url(#paint0_linear_2680_39925)"/>
<path opacity="0.2" d="M20 0.416667C30.9583 0.416667 39.8767 9.27667 39.99 20.2083C39.99 20.1383 40 20.07 40 20C40 8.97167 31.0283 0 20 0C8.97167 0 0 8.97167 0 20C0 20.07 0.01 20.1383 0.01 20.2083C0.123333 9.27667 9.04333 0.416667 20 0.416667Z" fill="white"/>
<path opacity="0.1" d="M20 39.5833C9.04167 39.5833 0.123333 30.7233 0.01 19.7916C0.01 19.8616 0 19.93 0 20C0 31.0283 8.97167 40 20 40C31.0283 40 40 31.0283 40 20C40 19.93 39.99 19.8616 39.99 19.7916C39.8767 30.7233 30.9567 39.5833 20 39.5833Z" fill="black"/>
<path d="M15.8333 29.8566L6.66666 20.69L9.02332 18.3333L15.8333 25.1433L29.31 11.6666L31.6667 14.0233L15.8333 29.8566Z" fill="white"/>
<path d="M31.6667 14.0234L15.8333 29.8567L25.2533 39.2767C33.0433 37.1501 38.9533 30.4401 39.87 22.2267L31.6667 14.0217V14.0234Z" fill="url(#paint1_linear_2680_39925)"/>
<path d="M20 0C8.97167 0 0 8.97167 0 20C0 31.0283 8.97167 40 20 40C31.0283 40 40 31.0283 40 20C40 8.97167 31.0283 0 20 0Z" fill="url(#paint2_linear_2680_39925)"/>
<path d="M28.3333 0H11.6667L0 11.6667V28.3333L11.6667 40H28.3333L40 28.3333V11.6667L28.3333 0Z" fill="#5C5F7A"/>
<path opacity="0.1" d="M11.6667 39.5833L0 27.9166V28.3333L11.6667 40H28.3333L40 28.3333V27.9166L28.3333 39.5833H11.6667Z" fill="black"/>
<path opacity="0.2" d="M28.3333 0H11.6667L0 11.6667V12.0833L11.6667 0.416667H28.3333L40 12.0833V11.6667L28.3333 0Z" fill="white"/>
<path d="M18.3333 6.66663H21.6667V28.3333H18.3333V6.66663Z" fill="white"/>
<path d="M20 33.3333C20.9205 33.3333 21.6667 32.5871 21.6667 31.6667C21.6667 30.7462 20.9205 30 20 30C19.0795 30 18.3333 30.7462 18.3333 31.6667C18.3333 32.5871 19.0795 33.3333 20 33.3333Z" fill="white"/>
<path d="M40 27.4216L21.6667 6.66663V28.3333H18.3333L20 30C20.2741 29.9999 20.544 30.0675 20.7858 30.1966C21.0275 30.3258 21.2337 30.5126 21.386 30.7405C21.5384 30.9684 21.6321 31.2303 21.659 31.5031C21.6859 31.7759 21.6451 32.0511 21.5402 32.3044C21.4353 32.5576 21.2696 32.7811 21.0577 32.955C20.8458 33.1289 20.5943 33.2478 20.3254 33.3013C20.0566 33.3547 19.7787 33.3411 19.5164 33.2615C19.2541 33.1819 19.0155 33.0388 18.8217 32.845L25.9767 40H28.3333L40 28.3333V27.4216Z" fill="url(#paint3_linear_2680_39925)"/>
<defs>
<linearGradient id="paint0_linear_2680_39925" x1="1.875" y1="11.5483" x2="38.125" y2="28.4517" gradientUnits="userSpaceOnUse">
<stop stop-color="white" stop-opacity="0.2"/>
<stop offset="1" stop-color="white" stop-opacity="0"/>
</linearGradient>
<linearGradient id="paint1_linear_2680_39925" x1="24.345" y1="22.5351" x2="33.275" y2="31.4651" gradientUnits="userSpaceOnUse">
<stop stop-opacity="0.1"/>
<stop offset="1" stop-opacity="0"/>
</linearGradient>
<linearGradient id="paint2_linear_2680_39925" x1="1.875" y1="11.5483" x2="38.125" y2="28.4517" gradientUnits="userSpaceOnUse">
<stop stop-color="white" stop-opacity="0.2"/>
<stop offset="1" stop-color="white" stop-opacity="0"/>
</linearGradient>
<linearGradient id="paint3_linear_2680_39925" x1="15.4667" y1="14.9783" x2="31.3" y2="30.8116" gradientUnits="userSpaceOnUse">
<stop stop-opacity="0.1"/>
<stop offset="1" stop-opacity="0"/>
</linearGradient>
</defs>
</svg>
