<svg width="24" height="24" viewBox="0 0 24 24" fill="none" xmlns="http://www.w3.org/2000/svg">
<path d="M4.00985 14.8C4.21826 19.0324 7.71588 22.4 12 22.4C16.2842 22.4 19.7818 19.0324 19.9902 14.8H4.00985ZM4.08942 13.2H19.9106C19.3316 9.35099 16.0105 6.4 12 6.4C7.98959 6.4 4.6684 9.35099 4.08942 13.2ZM12.8 4.83286V1.6H11.2V4.83286C11.4638 4.8111 11.7306 4.8 12 4.8C12.2694 4.8 12.5362 4.8111 12.8 4.83286ZM14.4 5.10244C18.5406 6.16814 21.6 9.92679 21.6 14.4C21.6 19.7019 17.302 24 12 24C6.69809 24 2.40002 19.7019 2.40002 14.4C2.40002 9.92679 5.45948 6.16814 9.60002 5.10244V1.6H8.80002C8.3582 1.6 8.00002 1.24183 8.00002 0.8C8.00002 0.358172 8.3582 0 8.80002 0H15.2C15.6419 0 16 0.358172 16 0.8C16 1.24183 15.6419 1.6 15.2 1.6H14.4V5.10244ZM8.00002 19.2C7.5582 19.2 7.20002 18.8418 7.20002 18.4C7.20002 17.9582 7.5582 17.6 8.00002 17.6C8.44185 17.6 8.80002 17.9582 8.80002 18.4C8.80002 18.8418 8.44185 19.2 8.00002 19.2ZM12 20.8C11.5582 20.8 11.2 20.4418 11.2 20C11.2 19.5582 11.5582 19.2 12 19.2C12.4419 19.2 12.8 19.5582 12.8 20C12.8 20.4418 12.4419 20.8 12 20.8ZM15.2 18.4C14.7582 18.4 14.4 18.0418 14.4 17.6C14.4 17.1582 14.7582 16.8 15.2 16.8C15.6419 16.8 16 17.1582 16 17.6C16 18.0418 15.6419 18.4 15.2 18.4Z" fill="#1DB66C"/>
</svg>
