<svg width="55" height="53" viewBox="0 0 55 53" fill="none" xmlns="http://www.w3.org/2000/svg">
<path d="M54.9576 20.9224C55.2324 19.5533 54.1332 17.9104 52.7593 17.9104L37.0964 15.7199L29.9519 1.48124C29.6771 0.933599 29.4023 0.659779 28.8527 0.38596C27.4788 -0.435499 25.8301 0.11214 25.0057 1.48124L18.136 15.7199L2.47309 17.9104C1.64873 17.9104 1.09915 18.1842 0.824364 18.7319C-0.274788 19.8272 -0.274788 21.4701 0.824364 22.5653L12.0907 33.5181L9.34279 49.1258C9.34279 49.6735 9.34279 50.2211 9.61758 50.7688C10.4419 52.1379 12.0907 52.6855 13.4646 51.864L27.4788 44.4709L41.493 51.864C41.7678 52.1379 42.3174 52.1379 42.8669 52.1379C43.1417 52.1379 43.1417 52.1379 43.4165 52.1379C44.7905 51.864 45.8896 50.4949 45.6148 48.852L42.8669 33.2443L54.1332 22.2915C54.6828 22.0177 54.9576 21.4701 54.9576 20.9224Z" fill="#E6E8EE"/>
</svg>
