<?xml version="1.0" encoding="UTF-8"?>
<!DOCTYPE svg PUBLIC "-//W3C//DTD SVG 1.1//EN" "http://www.w3.org/Graphics/SVG/1.1/DTD/svg11.dtd">
<svg xmlns="http://www.w3.org/2000/svg" version="1.1" width="21px" height="26px" style="shape-rendering:geometricPrecision; text-rendering:geometricPrecision; image-rendering:optimizeQuality; fill-rule:evenodd; clip-rule:evenodd" xmlns:xlink="http://www.w3.org/1999/xlink">
<g><path style="opacity:0.944" fill="#fdbc65" d="M 0.5,-0.5 C 5.16667,-0.5 9.83333,-0.5 14.5,-0.5C 16.1667,1.83333 18.1667,3.83333 20.5,5.5C 20.5,11.8333 20.5,18.1667 20.5,24.5C 19.8333,24.5 19.5,24.8333 19.5,25.5C 13.1667,25.5 6.83333,25.5 0.5,25.5C 0.5,24.8333 0.166667,24.5 -0.5,24.5C -0.5,16.5 -0.5,8.5 -0.5,0.5C 0.166667,0.5 0.5,0.166667 0.5,-0.5 Z M 12.5,4.5 C 16.0595,6.28252 16.0595,7.28252 12.5,7.5C 12.5,6.5 12.5,5.5 12.5,4.5 Z"/></g>
<g><path style="opacity:1" fill="#fee9cc" d="M 3.5,15.5 C 6.39382,15.0423 8.89382,15.709 11,17.5C 16.7431,15.4969 17.9098,15.1636 14.5,16.5C 14.281,17.675 14.6143,18.675 15.5,19.5C 16.6956,19.1543 16.6956,18.6543 15.5,18C 16.448,17.5172 17.448,17.3505 18.5,17.5C 18.5,18.5 18.5,19.5 18.5,20.5C 15.72,20.0548 13.0534,20.0548 10.5,20.5C 9.99607,17.4778 8.3294,16.3111 5.5,17C 6.90999,17.3678 7.90999,18.2011 8.5,19.5C 6.9255,20.6309 5.25883,20.7975 3.5,20C 4.5,19.6667 5.5,19.3333 6.5,19C 4.5743,18.5776 3.5743,17.4109 3.5,15.5 Z"/></g>
</svg>
