<svg width="18" height="18" viewBox="0 0 18 18" fill="none" xmlns="http://www.w3.org/2000/svg">
<path d="M13.5 14.145H12.93C12.33 14.145 11.76 14.3775 11.34 14.7975L10.0575 16.065C9.47248 16.6425 8.52001 16.6425 7.93501 16.065L6.6525 14.7975C6.2325 14.3775 5.655 14.145 5.0625 14.145H4.5C3.255 14.145 2.25 13.1475 2.25 11.9175V3.73499C2.25 2.50499 3.255 1.50751 4.5 1.50751H13.5C14.745 1.50751 15.75 2.50499 15.75 3.73499V11.9175C15.75 13.14 14.745 14.145 13.5 14.145Z" stroke="#51459E" strokeMiterlimit="10" stroke-linecap="round" stroke-linejoin="round"/>
<path opacity="0.4" d="M9.00002 7.50002C9.96513 7.50002 10.7475 6.71762 10.7475 5.7525C10.7475 4.78738 9.96513 4.00504 9.00002 4.00504C8.0349 4.00504 7.2525 4.78738 7.2525 5.7525C7.2525 6.71762 8.0349 7.50002 9.00002 7.50002Z" stroke="#51459E" stroke-linecap="round" stroke-linejoin="round"/>
<path opacity="0.4" d="M12 11.745C12 10.395 10.6575 9.30002 9 9.30002C7.3425 9.30002 6 10.395 6 11.745" stroke="#51459E" stroke-linecap="round" stroke-linejoin="round"/>
</svg>
