<svg width="18" height="18" viewBox="0 0 18 18" fill="none" xmlns="http://www.w3.org/2000/svg">
<path d="M9 17.07C8.1825 17.07 7.3725 16.83 6.735 16.3575L3.51 13.95C2.655 13.3125 1.9875 11.9775 1.9875 10.92V5.34C1.9875 4.185 2.835 2.955 3.9225 2.55L7.665 1.1475C8.4075 0.870002 9.5775 0.870002 10.32 1.1475L14.0625 2.55C15.15 2.955 15.9975 4.185 15.9975 5.34V10.9125C15.9975 11.9775 15.33 13.305 14.475 13.9425L11.25 16.35C10.6275 16.83 9.8175 17.07 9 17.07ZM8.0625 2.205L4.32 3.6075C3.6825 3.8475 3.12 4.6575 3.12 5.3475V10.92C3.12 11.6325 3.6225 12.63 4.185 13.05L7.41 15.4575C8.2725 16.1025 9.7275 16.1025 10.5975 15.4575L13.8225 13.05C14.3925 12.6225 14.8875 11.6325 14.8875 10.92V5.34C14.8875 4.6575 14.325 3.8475 13.6875 3.6L9.945 2.1975C9.435 2.0175 8.565 2.0175 8.0625 2.205Z" fill="#51459E"/>
<path d="M9.31 8.61998C8.035 8.61998 7 7.58497 7 6.30997C7 5.03497 8.035 4 9.31 4C10.585 4 11.62 5.03497 11.62 6.30997C11.62 7.58497 10.585 8.61998 9.31 8.61998ZM9.31 5.125C8.6575 5.125 8.125 5.65747 8.125 6.30997C8.125 6.96247 8.6575 7.49498 9.31 7.49498C9.9625 7.49498 10.495 6.96247 10.495 6.30997C10.495 5.65747 9.9625 5.125 9.31 5.125Z" fill="#51459E" fill-opacity="0.5"/>
<path d="M12 13.0578C11.6925 13.0578 11.4375 12.8028 11.4375 12.4953C11.4375 11.4603 10.3425 10.6128 9 10.6128C7.6575 10.6128 6.5625 11.4603 6.5625 12.4953C6.5625 12.8028 6.3075 13.0578 6 13.0578C5.6925 13.0578 5.4375 12.8028 5.4375 12.4953C5.4375 10.8378 7.035 9.48779 9 9.48779C10.965 9.48779 12.5625 10.8378 12.5625 12.4953C12.5625 12.8028 12.3075 13.0578 12 13.0578Z" fill="#51459E" fill-opacity="0.5"/>
</svg>
