<svg width="16" height="16" viewBox="0 0 16 16" fill="none" xmlns="http://www.w3.org/2000/svg">
<path d="M7.99999 15.1667C4.50666 15.1667 1.66666 12.3267 1.66666 8.83333C1.66666 5.34 4.50666 2.5 7.99999 2.5C11.4933 2.5 14.3333 5.34 14.3333 8.83333C14.3333 12.3267 11.4933 15.1667 7.99999 15.1667ZM7.99999 3.5C5.05999 3.5 2.66666 5.89333 2.66666 8.83333C2.66666 11.7733 5.05999 14.1667 7.99999 14.1667C10.94 14.1667 13.3333 11.7733 13.3333 8.83333C13.3333 5.89333 10.94 3.5 7.99999 3.5Z" fill="#EB5757"/>
<path d="M8 9.16666C7.72667 9.16666 7.5 8.93999 7.5 8.66666V5.33333C7.5 5.05999 7.72667 4.83333 8 4.83333C8.27333 4.83333 8.5 5.05999 8.5 5.33333V8.66666C8.5 8.93999 8.27333 9.16666 8 9.16666Z" fill="#EB5757"/>
<path d="M10 1.83333H6C5.72667 1.83333 5.5 1.60666 5.5 1.33333C5.5 1.05999 5.72667 0.833328 6 0.833328H10C10.2733 0.833328 10.5 1.05999 10.5 1.33333C10.5 1.60666 10.2733 1.83333 10 1.83333Z" fill="#EB5757"/>
</svg>
