<svg width="42" height="42" viewBox="0 0 42 42" fill="none" xmlns="http://www.w3.org/2000/svg">
<path d="M18.8127 4.28731C20.0202 3.25481 21.9977 3.25481 23.2227 4.28731L25.9877 6.66731C26.5127 7.12231 27.4927 7.48981 28.1927 7.48981H31.1677C33.0227 7.48981 34.5452 9.01231 34.5452 10.8673V13.8423C34.5452 14.5248 34.9127 15.5223 35.3677 16.0473L37.7477 18.8123C38.7802 20.0198 38.7802 21.9973 37.7477 23.2223L35.3677 25.9873C34.9127 26.5123 34.5452 27.4923 34.5452 28.1923V31.1673C34.5452 33.0223 33.0227 34.5448 31.1677 34.5448H28.1927C27.5102 34.5448 26.5127 34.9123 25.9877 35.3673L23.2227 37.7473C22.0152 38.7798 20.0377 38.7798 18.8127 37.7473L16.0477 35.3673C15.5227 34.9123 14.5427 34.5448 13.8427 34.5448H10.8152C8.96016 34.5448 7.43766 33.0223 7.43766 31.1673V28.1748C7.43766 27.4923 7.07016 26.5123 6.63266 25.9873L4.27016 23.2048C3.25516 21.9973 3.25516 20.0373 4.27016 18.8298L6.63266 16.0473C7.07016 15.5223 7.43766 14.5423 7.43766 13.8598V10.8498C7.43766 8.99481 8.96016 7.47231 10.8152 7.47231H13.8427C14.5252 7.47231 15.5227 7.10481 16.0477 6.64981L18.8127 4.28731Z" fill="#F2F2F2"/>
<path d="M25.2 16.8L16.8 25.2" stroke="#EB5757" stroke-width="2" stroke-linecap="round" stroke-linejoin="round"/>
<path d="M25.2 25.2L16.8 16.8" stroke="#EB5757" stroke-width="2" stroke-linecap="round" stroke-linejoin="round"/>
</svg>
