<svg width="14" height="14" viewBox="0 0 14 14" fill="none" xmlns="http://www.w3.org/2000/svg">
<path d="M7 7C8.61083 7 9.91667 5.69416 9.91667 4.08333C9.91667 2.4725 8.61083 1.16666 7 1.16666C5.38917 1.16666 4.08334 2.4725 4.08334 4.08333C4.08334 5.69416 5.38917 7 7 7Z" stroke="#F2F2F2" stroke-linecap="round" stroke-linejoin="round"/>
<path opacity="0.4" d="M1.98914 12.8333C1.98914 10.5758 4.23497 8.75 6.99997 8.75C7.55997 8.75 8.10247 8.82583 8.60997 8.96583" stroke="#F2F2F2" stroke-linecap="round" stroke-linejoin="round"/>
<path d="M12.8333 10.5C12.8333 10.6867 12.81 10.8675 12.7633 11.0425C12.7108 11.2758 12.6175 11.5033 12.495 11.7017C12.0925 12.3783 11.3517 12.8333 10.5 12.8333C9.89916 12.8333 9.35666 12.6058 8.94833 12.2325C8.77333 12.0808 8.62166 11.9 8.50499 11.7017C8.28916 11.3517 8.16666 10.9375 8.16666 10.5C8.16666 9.87 8.4175 9.29251 8.82583 8.87251C9.25167 8.43501 9.84666 8.16666 10.5 8.16666C11.1883 8.16666 11.8125 8.46417 12.2325 8.94251C12.6058 9.35667 12.8333 9.905 12.8333 10.5Z" stroke="#F2F2F2" stroke-width="0.8" strokeMiterlimit="10" stroke-linecap="round" stroke-linejoin="round"/>
<path d="M11.3692 10.4883H9.63089" stroke="#F2F2F2" stroke-width="0.5" strokeMiterlimit="10" stroke-linecap="round" stroke-linejoin="round"/>
<path d="M10.5002 9.63668V11.3808" stroke="#F2F2F2" stroke-width="0.5" strokeMiterlimit="10" stroke-linecap="round" stroke-linejoin="round"/>
</svg>
