<svg width="30" height="30" viewBox="0 0 30 30" fill="none" xmlns="http://www.w3.org/2000/svg">
<path opacity="0.4" d="M13.4375 3.06252C14.3 2.32502 15.7125 2.32502 16.5875 3.06252L18.5625 4.76252C18.9375 5.08752 19.6375 5.35002 20.1375 5.35002H22.2625C23.5875 5.35002 24.675 6.43752 24.675 7.76252V9.88752C24.675 10.375 24.9375 11.0875 25.2625 11.4625L26.9625 13.4375C27.7 14.3 27.7 15.7125 26.9625 16.5875L25.2625 18.5625C24.9375 18.9375 24.675 19.6375 24.675 20.1375V22.2625C24.675 23.5875 23.5875 24.675 22.2625 24.675H20.1375C19.65 24.675 18.9375 24.9375 18.5625 25.2625L16.5875 26.9625C15.725 27.7 14.3125 27.7 13.4375 26.9625L11.4625 25.2625C11.0875 24.9375 10.3875 24.675 9.88748 24.675H7.72498C6.39998 24.675 5.31248 23.5875 5.31248 22.2625V20.125C5.31248 19.6375 5.04998 18.9375 4.73748 18.5625L3.04998 16.575C2.32498 15.7125 2.32498 14.3125 3.04998 13.45L4.73748 11.4625C5.04998 11.0875 5.31248 10.3875 5.31248 9.90002V7.75002C5.31248 6.42502 6.39998 5.33752 7.72498 5.33752H9.88748C10.375 5.33752 11.0875 5.07502 11.4625 4.75002L13.4375 3.06252Z" fill="#31CD82"/>
<path d="M13.4875 18.9625C13.2375 18.9625 13 18.8625 12.825 18.6875L9.80001 15.6625C9.43751 15.3 9.43751 14.7 9.80001 14.3375C10.1625 13.975 10.7625 13.975 11.125 14.3375L13.4875 16.7L18.8625 11.325C19.225 10.9625 19.825 10.9625 20.1875 11.325C20.55 11.6875 20.55 12.2875 20.1875 12.65L14.15 18.6875C13.975 18.8625 13.7375 18.9625 13.4875 18.9625Z" fill="#31CD82"/>
</svg>
