<svg width="54" height="54" viewBox="0 0 54 54" fill="none" xmlns="http://www.w3.org/2000/svg">
<path d="M22.6699 7.5C24.5944 4.16666 29.4056 4.16667 31.3301 7.5L46.0526 33C47.9771 36.3333 45.5714 40.5 41.7224 40.5H12.2776C8.42856 40.5 6.02294 36.3333 7.94744 33L22.6699 7.5Z" fill="#F2994A"/>
<path d="M27.3857 23.8419C26.8374 23.8419 26.3014 24.0045 25.8455 24.3091C25.3896 24.6137 25.0343 25.0467 24.8244 25.5533C24.6146 26.0599 24.5597 26.6173 24.6667 27.1551C24.7736 27.6929 25.0377 28.1868 25.4254 28.5745C25.8131 28.9623 26.3071 29.2263 26.8449 29.3333C27.3827 29.4402 27.9401 29.3853 28.4467 29.1755C28.9532 28.9657 29.3862 28.6103 29.6908 28.1544C29.9955 27.6985 30.1581 27.1625 30.1581 26.6142C30.1559 25.8796 29.8631 25.1758 29.3436 24.6563C28.8242 24.1369 28.1203 23.8441 27.3857 23.8419ZM33.3712 26.6142C33.3697 26.8733 33.3507 27.1319 33.3143 27.3884L35.0016 28.7094C35.0751 28.7701 35.1247 28.8549 35.1413 28.9487C35.158 29.0426 35.1408 29.1393 35.0928 29.2216L33.4966 31.9773C33.4481 32.0589 33.3724 32.1207 33.2827 32.152C33.1931 32.1832 33.0953 32.1818 33.0066 32.1481L31.0227 31.3511C30.6096 31.6692 30.1575 31.9332 29.6774 32.1367L29.3808 34.243C29.3642 34.3373 29.3153 34.423 29.2426 34.4853C29.1698 34.5476 29.0777 34.5827 28.9819 34.5846H25.7896C25.6955 34.5828 25.6049 34.5492 25.5325 34.4892C25.46 34.4292 25.41 34.3464 25.3907 34.2544L25.0941 32.1481C24.6127 31.947 24.1603 31.6826 23.7488 31.3618L21.7648 32.1589C21.6762 32.1926 21.5784 32.194 21.4888 32.1628C21.3992 32.1317 21.3234 32.0699 21.2748 31.9884L19.6787 29.233C19.6306 29.1507 19.6134 29.054 19.6301 28.9602C19.6468 28.8664 19.6963 28.7815 19.7698 28.7208L21.4571 27.3998C21.4211 27.1395 21.4021 26.877 21.4003 26.6142C21.4017 26.3552 21.4207 26.0965 21.4571 25.8401L19.7698 24.519C19.6963 24.4584 19.6468 24.3735 19.6301 24.2797C19.6134 24.1859 19.6306 24.0892 19.6787 24.0069L21.2748 21.2512C21.3234 21.1696 21.3991 21.1077 21.4887 21.0765C21.5783 21.0452 21.6761 21.0466 21.7648 21.0803L23.7488 21.8774C24.1619 21.5592 24.614 21.2952 25.0941 21.0918L25.3907 18.9855C25.4073 18.8911 25.4562 18.8055 25.5289 18.7432C25.6017 18.6808 25.6938 18.6457 25.7896 18.6438H28.9819C29.0759 18.6456 29.1666 18.6793 29.239 18.7393C29.3115 18.7992 29.3614 18.882 29.3808 18.9741L29.6774 21.0803C30.1594 21.2813 30.6124 21.5457 31.0244 21.8666L33.0066 21.0696C33.0953 21.0358 33.193 21.0344 33.2827 21.0656C33.3723 21.0968 33.448 21.1586 33.4966 21.2401L35.0928 23.9958C35.1408 24.0781 35.158 24.1748 35.1413 24.2686C35.1247 24.3624 35.0751 24.4473 35.0016 24.508L33.3143 25.829C33.3503 26.0892 33.3693 26.3515 33.3712 26.6142Z" fill="white"/>
</svg>
