<svg width="30" height="30" viewBox="0 0 30 30" fill="none" xmlns="http://www.w3.org/2000/svg">
<path opacity="0.4" d="M13.4371 3.06252C14.2996 2.32502 15.7121 2.32502 16.5871 3.06252L18.5621 4.76252C18.9371 5.08752 19.6371 5.35002 20.1371 5.35002H22.2621C23.5871 5.35002 24.6746 6.43752 24.6746 7.76252V9.88752C24.6746 10.375 24.9371 11.0875 25.2621 11.4625L26.9621 13.4375C27.6996 14.3 27.6996 15.7125 26.9621 16.5875L25.2621 18.5625C24.9371 18.9375 24.6746 19.6375 24.6746 20.1375V22.2625C24.6746 23.5875 23.5871 24.675 22.2621 24.675H20.1371C19.6496 24.675 18.9371 24.9375 18.5621 25.2625L16.5871 26.9625C15.7246 27.7 14.3121 27.7 13.4371 26.9625L11.4621 25.2625C11.0871 24.9375 10.3871 24.675 9.88711 24.675H7.72461C6.39961 24.675 5.31211 23.5875 5.31211 22.2625V20.125C5.31211 19.6375 5.04961 18.9375 4.73711 18.5625L3.04961 16.575C2.32461 15.7125 2.32461 14.3125 3.04961 13.45L4.73711 11.4625C5.04961 11.0875 5.31211 10.3875 5.31211 9.90002V7.75002C5.31211 6.42502 6.39961 5.33752 7.72461 5.33752H9.88711C10.3746 5.33752 11.0871 5.07502 11.4621 4.75002L13.4371 3.06252Z" fill="#1A355E"/>
<path d="M13.4877 18.9625C13.2377 18.9625 13.0002 18.8625 12.8252 18.6875L9.8002 15.6625C9.4377 15.3 9.4377 14.7 9.8002 14.3375C10.1627 13.975 10.7627 13.975 11.1252 14.3375L13.4877 16.7L18.8627 11.325C19.2252 10.9625 19.8252 10.9625 20.1877 11.325C20.5502 11.6875 20.5502 12.2875 20.1877 12.65L14.1502 18.6875C13.9752 18.8625 13.7377 18.9625 13.4877 18.9625Z" fill="#1A355E"/>
</svg>
