<svg width="31" height="30" viewBox="0 0 31 30" fill="none" xmlns="http://www.w3.org/2000/svg">
<path opacity="0.4" d="M14.2793 3.0624C15.1418 2.3249 16.5543 2.3249 17.4293 3.0624L19.4043 4.7624C19.7793 5.0874 20.4793 5.3499 20.9793 5.3499H23.1043C24.4293 5.3499 25.5168 6.4374 25.5168 7.7624V9.8874C25.5168 10.3749 25.7793 11.0874 26.1043 11.4624L27.8043 13.4374C28.5418 14.2999 28.5418 15.7124 27.8043 16.5874L26.1043 18.5624C25.7793 18.9374 25.5168 19.6374 25.5168 20.1374V22.2624C25.5168 23.5874 24.4293 24.6749 23.1043 24.6749H20.9793C20.4918 24.6749 19.7793 24.9374 19.4043 25.2624L17.4293 26.9624C16.5668 27.6999 15.1543 27.6999 14.2793 26.9624L12.3043 25.2624C11.9293 24.9374 11.2293 24.6749 10.7293 24.6749H8.56683C7.24183 24.6749 6.15433 23.5874 6.15433 22.2624V20.1249C6.15433 19.6374 5.89183 18.9374 5.57933 18.5624L3.89183 16.5749C3.16683 15.7124 3.16683 14.3124 3.89183 13.4499L5.57933 11.4624C5.89183 11.0874 6.15433 10.3874 6.15433 9.8999V7.7499C6.15433 6.4249 7.24183 5.3374 8.56683 5.3374H10.7293C11.2168 5.3374 11.9293 5.0749 12.3043 4.7499L14.2793 3.0624Z" fill="#EB5757"/>
<path d="M18.8417 12L12.8417 18" stroke="#EB5757" stroke-width="2" stroke-linecap="round" stroke-linejoin="round"/>
<path d="M18.8417 18L12.8417 12" stroke="#EB5757" stroke-width="2" stroke-linecap="round" stroke-linejoin="round"/>
</svg>
