<svg width="38" height="39" viewBox="0 0 38 39" fill="none" xmlns="http://www.w3.org/2000/svg">
<path d="M36.9252 18.1364C36.7128 13.3724 34.6166 8.88794 31.0978 5.66949C27.579 2.45104 22.9258 0.762255 18.1618 0.974648C13.3978 1.18704 8.91333 3.28322 5.69488 6.80204C2.47643 10.3209 0.787645 14.9741 1.00004 19.7381C0.922424 22.8258 1.66628 25.8787 3.15555 28.5846C3.34386 28.9381 3.45702 29.3266 3.48793 29.7259C3.51885 30.1252 3.46684 30.5266 3.33517 30.9048L1.47904 36.5031C1.43003 36.6372 1.4212 36.7827 1.45364 36.9217C1.48608 37.0607 1.55838 37.1872 1.66167 37.2857C1.76496 37.3843 1.89476 37.4505 2.03515 37.4763C2.17553 37.5022 2.32041 37.4865 2.45201 37.4312L7.4516 35.4853C7.87094 35.3097 8.32476 35.2319 8.77864 35.2578C9.23252 35.2838 9.67453 35.4127 10.0711 35.6349C12.9452 37.2983 16.224 38.1325 19.5436 38.0448C22.8631 37.957 26.0933 36.9509 28.8755 35.138C31.6576 33.3251 33.8828 30.7764 35.3038 27.7751C36.7248 24.7739 37.2861 21.4374 36.9252 18.1364V18.1364Z" fill="#63a0a8"/>
<path d="M16.8969 26.6986C16.8969 26.4026 16.9847 26.1132 17.1492 25.867C17.3137 25.6208 17.5475 25.429 17.821 25.3157C18.0945 25.2024 18.3955 25.1727 18.6858 25.2305C18.9762 25.2883 19.2429 25.4308 19.4523 25.6402C19.6616 25.8495 19.8042 26.1162 19.8619 26.4066C19.9197 26.697 19.8901 26.9979 19.7768 27.2714C19.6635 27.545 19.4716 27.7788 19.2254 27.9432C18.9793 28.1077 18.6899 28.1955 18.3938 28.1955C17.9968 28.1955 17.6161 28.0378 17.3354 27.7571C17.0546 27.4764 16.8969 27.0956 16.8969 26.6986ZM19.8907 22.208C19.8655 21.7308 19.9621 21.255 20.1716 20.8255C20.3812 20.396 20.6966 20.0269 21.0882 19.7531C21.6379 19.3409 22.0857 18.8081 22.3971 18.1956C22.7085 17.5832 22.8753 16.9075 22.8845 16.2204C22.9397 15.6169 22.8614 15.0086 22.6553 14.4387C22.4491 13.8688 22.1201 13.3512 21.6916 12.9227C21.263 12.4941 20.7455 12.1651 20.1756 11.959C19.6056 11.7528 18.9973 11.6746 18.3938 11.7298C17.7903 11.6746 17.182 11.7528 16.6121 11.959C16.0422 12.1651 15.5246 12.4941 15.096 12.9227C14.6675 13.3512 14.3385 13.8688 14.1323 14.4387C13.9262 15.0086 13.848 15.6169 13.9032 16.2204C13.9032 16.6174 14.0609 16.9982 14.3416 17.2789C14.6223 17.5596 15.0031 17.7173 15.4001 17.7173C15.7971 17.7173 16.1778 17.5596 16.4585 17.2789C16.7392 16.9982 16.8969 16.6174 16.8969 16.2204C16.8969 15.0678 17.2412 14.7236 18.3938 14.7236C19.5464 14.7236 19.8907 15.0678 19.8907 16.2204C19.8907 16.7593 19.7111 16.9539 19.0524 17.5676C18.3584 18.1214 17.8024 18.8287 17.4283 19.634C17.0543 20.4393 16.8724 21.3204 16.8969 22.208C16.8969 22.605 17.0546 22.9857 17.3354 23.2664C17.6161 23.5471 17.9968 23.7049 18.3938 23.7049C18.7908 23.7049 19.1716 23.5471 19.4523 23.2664C19.733 22.9857 19.8907 22.605 19.8907 22.208Z" fill="#63a0a8"/>
<path d="M17.6453 25.9502C17.6453 25.6541 17.7331 25.3647 17.8976 25.1186C18.0621 24.8724 18.2959 24.6805 18.5694 24.5672C18.8429 24.4539 19.1439 24.4243 19.4343 24.4821C19.7246 24.5398 19.9913 24.6824 20.2007 24.8917C20.41 25.1011 20.5526 25.3678 20.6103 25.6581C20.6681 25.9485 20.6385 26.2495 20.5252 26.523C20.4119 26.7965 20.22 27.0303 19.9739 27.1948C19.7277 27.3593 19.4383 27.4471 19.1422 27.4471C18.7452 27.4471 18.3645 27.2894 18.0838 27.0086C17.8031 26.7279 17.6453 26.3472 17.6453 25.9502ZM20.6391 21.4595C20.6139 20.9823 20.7106 20.5066 20.9201 20.0771C21.1296 19.6476 21.445 19.2785 21.8366 19.0046C22.3863 18.5925 22.8341 18.0596 23.1455 17.4472C23.4569 16.8348 23.6237 16.159 23.6329 15.472C23.6881 14.8685 23.6099 14.2602 23.4037 13.6903C23.1976 13.1204 22.8685 12.6028 22.44 12.1742C22.0115 11.7457 21.4939 11.4167 20.924 11.2105C20.3541 11.0044 19.7458 10.9261 19.1422 10.9814C18.5387 10.9261 17.9304 11.0044 17.3605 11.2105C16.7906 11.4167 16.273 11.7457 15.8445 12.1742C15.4159 12.6028 15.0869 13.1204 14.8808 13.6903C14.6746 14.2602 14.5964 14.8685 14.6516 15.472C14.6516 15.869 14.8093 16.2497 15.09 16.5305C15.3707 16.8112 15.7515 16.9689 16.1485 16.9689C16.5455 16.9689 16.9262 16.8112 17.2069 16.5305C17.4876 16.2497 17.6453 15.869 17.6453 15.472C17.6453 14.3194 17.9896 13.9751 19.1422 13.9751C20.2948 13.9751 20.6391 14.3194 20.6391 15.472C20.6391 16.0109 20.4595 16.2055 19.8009 16.8192C19.1068 17.3729 18.5508 18.0803 18.1767 18.8856C17.8027 19.6908 17.6208 20.572 17.6453 21.4595C17.6453 21.8565 17.8031 22.2373 18.0838 22.518C18.3645 22.7987 18.7452 22.9564 19.1422 22.9564C19.5392 22.9564 19.92 22.7987 20.2007 22.518C20.4814 22.2373 20.6391 21.8565 20.6391 21.4595Z" fill="white"/>
</svg>
