<svg xmlns="http://www.w3.org/2000/svg" xmlns:xlink="http://www.w3.org/1999/xlink" viewBox="0 0 98.46 130.22"><defs><style>.cls-1{fill:url(#linear-gradient);}.cls-2{fill:#fff;}.cls-3{fill:url(#linear-gradient-2);}</style><linearGradient id="linear-gradient" x1="11.56" y1="56.04" x2="88.8" y2="89.99" gradientUnits="userSpaceOnUse"><stop offset="0" stop-color="#2ce4ef"/><stop offset="0.33" stop-color="#24daee"/><stop offset="0.72" stop-color="#15c8ec"/></linearGradient><linearGradient id="linear-gradient-2" x1="69.8" y1="20.03" x2="92.13" y2="6.37" xlink:href="#linear-gradient"/></defs><g id="Layer_2" data-name="Layer 2"><g id="Layer_1-2" data-name="Layer 1"><path class="cls-1" d="M98.38,57.67A16.68,16.68,0,0,0,90,42.76c-5.83-3.54-11.8-6.86-17.73-10.25-5.7-3.27-11.26-3.08-16.94.29-9.64,5.73-19.4,11.27-29.12,16.88a17.29,17.29,0,0,1-1.63.69c8.74,5,16.64,9.67,24.64,14.15C56.1,68.37,59.55,74,59.35,82c-.15,6.12,0,12.25,0,18.38v9.34c2.38-1.38,4.49-2.52,6.5-3.83a2.41,2.41,0,0,0,.73-1.79c0-8.32.13-16.65,0-25-.14-7.23-3-13.4-8.87-17.66-4.49-3.26-9.47-5.85-14.22-8.75-1.09-.66-2.14-1.38-3.26-2.11.38-.45.49-.68.68-.79,6.6-3.78,13.2-7.58,19.82-11.32a6.76,6.76,0,0,1,7,.07c6.22,3.51,12.43,7,18.59,10.65a9.22,9.22,0,0,1,4.69,8.43c0,11.55-.12,23.1.14,34.64.13,5.85-2.3,9.56-7.33,12.27-7.74,4.17-15.3,8.66-22.88,13.11a3.53,3.53,0,0,0-1.52,2.26c-.32,2.38-.34,4.81-.48,7.25a1.88,1.88,0,0,0,.59-.12c10.4-6,20.87-11.9,31.15-18.11,5.29-3.2,7.73-8.37,7.78-14.5Q98.52,76.05,98.38,57.67Z"/><path class="cls-2" d="M51.08,120.21a43.1,43.1,0,0,1-1.31,8.07c-.31,1.51-1.24,2.32-2.92,1.76-2.13-.73-4.47-1.11-6.39-2.2q-16-9-31.84-18.32C2.91,106.19.12,101,.07,94.5q-.13-18.37,0-36.76A16.92,16.92,0,0,1,9,42.41q8-4.62,16-9.22c1.6-.94,3.22-1.86,4.82-2.78v8.23l0,0C24.38,41.75,19,44.82,13.6,47.78c-4.8,2.64-6.87,6.38-6.76,11.87.22,11.08.17,22.16,0,33.23-.07,4.88,1.62,8.53,5.9,11q14.82,8.42,29.66,16.88c.31.17.69.26,1.25.48a9.1,9.1,0,0,0,.25-1.44c.06-11.55.06-23.09.15-34.63,0-4.29-1.83-7.26-5.54-9.37C31,71.49,23.62,67,16.11,62.8c-1.53-.87-1.87-1.68-1.09-3.13.48-.89,1-1.8,1.42-2.68.68-1.26,1.44-1.22,2.66-.5q11.37,6.69,22.84,13.19c5.84,3.3,8.89,8.28,9,15C51.05,96.5,51.16,108.35,51.08,120.21Z"/><path class="cls-2" d="M29.89,4.55V6l-.15,32.73-.05,0-6.86-3.56L23,6l0-6h4.65A5.83,5.83,0,0,1,29.89,4.55Z"/><path class="cls-2" d="M29.89,0V6H22.4c-3.9,0-7.06-2.67-7.06-6Z"/><path class="cls-3" d="M72.48,0V6h.14V7.57l-.13,22.24,6.86,2.71.06,0,.14-25V6.47a2.59,2.59,0,0,0,0-.48H80c3.9,0,7-2.67,7-6Z"/></g></g></svg>