<svg width="164" height="44" viewBox="0 0 164 44" fill="none" xmlns="http://www.w3.org/2000/svg">
<path d="M144.793 7.53726C144.793 7.53726 140.776 -1.37041 131.132 1.54987C131.132 1.54987 130.953 1.51724 130.888 1.28884C130.888 1.28884 130.855 0.619948 130.53 0C130.205 0.603634 130.172 1.28884 130.172 1.28884C130.107 1.51724 129.928 1.54987 129.928 1.54987C120.284 -1.3541 116.267 7.53726 116.267 7.53726C119.764 3.8502 123.602 4.11123 123.602 4.11123C118.414 8.80979 119.699 14.2914 119.699 14.2914C121.065 8.80979 124.74 7.3578 124.74 7.3578C121.748 14.634 126.367 19.3489 126.367 19.3489C124.057 11.1264 129.099 7.27623 129.099 7.27623C128.676 14.2099 130.546 19.3489 130.546 19.3489C130.546 19.3489 132.417 14.2099 131.994 7.27623C131.994 7.27623 137.035 11.1264 134.726 19.3489C134.726 19.3489 139.329 14.634 136.352 7.3578C136.352 7.3578 140.028 8.80979 141.394 14.2914C141.394 14.2914 142.679 8.80979 137.475 4.11123C137.442 4.11123 141.296 3.8502 144.793 7.53726Z" fill="#008054"/>
<path d="M132.579 42.4991H141.67C141.67 42.4991 130.026 32.8736 123.553 28.6971C123.553 28.6971 111.843 20.2788 105.436 21.6329C105.436 21.6329 96.4745 21.9592 97.0437 34.4071C97.0437 34.4071 95.824 24.9447 105.484 23.8843C105.484 23.8843 109.843 23.1175 116.56 28.1913C116.576 28.1913 130.091 39.0404 132.579 42.4991Z" fill="#AE9A64"/>
<path d="M128.432 42.4991H119.341C119.341 42.4991 130.985 32.8736 137.458 28.6971C137.458 28.6971 149.168 20.2788 155.576 21.6329C155.576 21.6329 164.537 21.9592 163.968 34.4071C163.968 34.4071 165.187 24.9447 155.527 23.8843C155.527 23.8843 151.168 23.1175 144.452 28.1913C144.435 28.1913 130.92 39.0404 128.432 42.4991Z" fill="#AE9A64"/>
<path d="M119.341 26.0215C122.463 21.4861 127.456 21.8287 127.456 21.8287C135.133 22.0897 142.175 30.3122 142.175 30.3122L147.623 35.5165C159.072 45.2073 163.301 36.8217 163.301 36.8217V36.8054C161.252 41.8139 155.559 42.5154 155.559 42.5154C147.298 43.6085 139.052 33.6567 139.052 33.6567L134.45 29.0397C124.659 21.0783 119.357 26.0215 119.357 26.0215H119.341Z" fill="#008054"/>
<path d="M108.252 27.8622L105.124 31L108.252 34.1378L111.38 31L108.252 27.8622Z" fill="#008054"/>
<path d="M102.827 27.8782L99.6992 31.0159L102.827 34.1537L105.955 31.0159L102.827 27.8782Z" fill="#008054"/>
<path d="M89.3836 17.4891C85.0738 17.6522 84.0492 21.4698 84.0492 21.4698C83.1547 26.1357 88.359 26.4294 88.359 26.4294L89.3836 25.4505C88.8794 25.581 87.3507 25.1895 87.3507 25.1895C84.8949 24.3411 85.334 21.8124 85.334 21.8124C86.2773 18.3048 89.4324 18.6474 89.4324 18.6474V27.7182C89.0909 29.0397 88.6192 29.1376 88.6192 29.1376C87.806 29.6923 86.4399 29.4312 86.4399 29.4312L86.3911 30.3775C88.2614 30.769 89.5462 29.8717 89.5462 29.8717C90.5708 29.366 90.7335 27.8977 90.7335 27.8977V17.4891H89.3836Z" fill="#008054"/>
<path d="M79.8205 27.7182C79.479 29.0397 79.0074 29.1376 79.0074 29.1376C78.1942 29.6923 76.8281 29.4312 76.8281 29.4312L76.7793 30.3775C78.6496 30.769 79.9344 29.8717 79.9344 29.8717C80.959 29.366 81.1216 27.8977 81.1216 27.8977V18.6474H79.8043V27.7182H79.8205Z" fill="#008054"/>
<path d="M69.1194 27.7182C68.7779 29.0397 68.3062 29.1376 68.3062 29.1376C67.4931 29.6923 66.1269 29.4312 66.1269 29.4312L66.0781 30.3775C67.9484 30.769 69.2333 29.8717 69.2333 29.8717C70.2579 29.366 70.4205 27.8977 70.4205 27.8977V18.6474H69.1194V27.7182Z" fill="#008054"/>
<path d="M75.5922 11.8443H74.2749V26.3478H75.5922V11.8443Z" fill="#008054"/>
<path d="M51.5224 11.8443H50.2051V26.3478H51.5224V11.8443Z" fill="#008054"/>
<path d="M44.8218 25.369H40.8698C41.9431 19.251 38.1375 18.0112 38.1375 18.0112C34.0391 16.7223 30.9328 22.155 30.9328 22.155C30.6726 22.5792 29.1764 25.369 29.1764 25.369V20.4909H27.8591V25.369H24.1835V24.2596C24.1835 24.2596 24.3462 19.3816 18.6865 18.0601H12.5064V19.1042H18.1335C18.1335 19.1042 22.1506 19.3326 22.7849 23.917V25.369H7.23707V17.1954H5.91974H5.87095C0.959404 17.1954 0.243815 21.3882 0.243815 21.3882C-0.422984 26.8046 4.66746 26.3152 4.66746 26.3152L5.57821 25.4505C5.25294 25.4016 3.72418 25.369 3.72418 25.369C1.02446 24.5696 1.59368 21.5514 1.59368 21.5514C2.53695 18.0438 5.91974 18.3374 5.91974 18.3374V25.3526V25.8421V26.3315H7.23707H27.8428H29.1601H44.8055H46.1228V25.3526V11.8443H44.8055V25.369H44.8218ZM33.9578 19.9689C38.1863 17.2281 39.2922 21.0456 39.2922 21.0456C39.894 22.4324 39.6988 24.439 39.5524 25.369H30.4612C30.9328 22.155 33.9578 19.9689 33.9578 19.9689Z" fill="#008054"/>
<path d="M57.7676 21.7634C57.7676 21.7634 57.2635 25.32 61.1341 26.3478H64.8097V17.277H62.5491C62.5491 17.277 58.4832 17.9132 57.7676 21.7634ZM63.5249 25.4179H61.1829C58.7109 24.6022 59.0362 21.7798 59.0362 21.7798C59.4915 18.7126 62.0774 18.2069 62.0774 18.2069H63.5249V25.4179Z" fill="#008054"/>
<path d="M6.31024 15.1724C6.87945 15.1724 7.33483 14.7156 7.33483 14.1446C7.33483 13.5736 6.87945 13.1168 6.31024 13.1168C5.74102 13.1168 5.28564 13.5736 5.28564 14.1446C5.28564 14.7156 5.74102 15.1724 6.31024 15.1724Z" fill="#008054"/>
<path d="M3.52174 15.172C4.08744 15.1581 4.53479 14.6868 4.52093 14.1193C4.50707 13.5518 4.03725 13.1031 3.47155 13.117C2.90585 13.1309 2.4585 13.6022 2.47236 14.1696C2.48622 14.7371 2.95604 15.1859 3.52174 15.172Z" fill="#008054"/>
<path d="M64.0124 15.1724C64.5783 15.1724 65.037 14.7123 65.037 14.1446C65.037 13.577 64.5783 13.1168 64.0124 13.1168C63.4465 13.1168 62.9878 13.577 62.9878 14.1446C62.9878 14.7123 63.4465 15.1724 64.0124 15.1724Z" fill="#008054"/>
<path d="M80.4709 13.1168C79.9017 13.1168 79.4463 13.5736 79.4463 14.1446C79.4463 14.7156 79.9017 15.1724 80.4709 15.1724C81.0401 15.1724 81.4955 14.7156 81.4955 14.1446C81.4955 13.5736 81.0239 13.1168 80.4709 13.1168Z" fill="#008054"/>
<path d="M61.1828 15.1724C61.752 15.1724 62.2074 14.7156 62.2074 14.1446C62.2074 13.5736 61.752 13.1168 61.1828 13.1168C60.6136 13.1168 60.1582 13.5736 60.1582 14.1446C60.1582 14.7156 60.6298 15.1724 61.1828 15.1724Z" fill="#008054"/>
<path d="M19.6463 32.4984C19.4511 32.4984 19.3048 32.5636 19.1747 32.6778C19.0445 32.792 18.9795 32.9388 18.9795 33.102C18.9795 33.2814 19.0445 33.412 19.1747 33.5425C19.3048 33.6567 19.4674 33.7219 19.6463 33.7219C19.8415 33.7219 19.9878 33.6567 20.1179 33.5425C20.248 33.4283 20.3131 33.2814 20.3131 33.102C20.3131 32.9225 20.248 32.792 20.1179 32.6778C19.9878 32.5636 19.8252 32.4984 19.6463 32.4984Z" fill="#AE9A64"/>
<path d="M24.4278 38.2247L23.4682 37.8005C22.7689 37.4906 22.4111 37.1153 22.4111 36.6911C22.4111 36.4791 22.525 36.2996 22.7527 36.1528C22.9478 36.0223 23.1755 35.9733 23.4357 35.9733C23.7285 35.9733 23.9724 36.0223 24.1838 36.1365C24.1838 36.1365 24.8669 36.577 25.0621 36.8869L25.4199 36.3485L24.5254 35.7939L24.3139 35.7286C23.9724 35.6307 23.6797 35.5981 23.452 35.5981C22.9153 35.5981 22.4762 35.7449 22.1346 36.0386C21.7931 36.3322 21.6142 36.7238 21.6142 37.1969C21.6142 37.6048 21.7769 37.9637 22.0859 38.241C22.281 38.4205 22.6388 38.6163 23.1592 38.861C23.6797 39.1057 24.0212 39.2851 24.1838 39.3993C24.5579 39.6604 24.7531 39.954 24.7531 40.2803C24.7531 40.5414 24.6555 40.7371 24.444 40.9003C24.2489 41.0471 24.0049 41.1287 23.7285 41.1287L23.0617 40.9655C22.5738 40.884 21.8094 39.954 21.8094 39.954L21.354 40.2966C21.7769 40.9655 22.4599 41.3081 22.4599 41.3081C22.9153 41.4386 23.3381 41.4876 23.7285 41.4876C24.2651 41.4876 24.7368 41.3244 25.1434 41.0145C25.55 40.7045 25.7451 40.2966 25.7451 39.8072C25.7776 39.1546 25.3223 38.6326 24.4278 38.2247Z" fill="#AE9A64"/>
<path d="M28.9488 40.7208C28.5422 40.7208 28.347 40.4108 28.347 39.8072V36.2017H29.7619V35.7612H28.347V33.934H28.1356C27.9567 34.3419 27.8103 34.6355 27.7128 34.7824C27.2899 35.386 26.8183 35.7939 26.2979 35.9896V36.1854H27.2574V39.9051C27.2574 40.2966 27.3062 40.5903 27.3875 40.7861C27.5827 41.1776 27.9242 41.3734 28.4121 41.3734C29.1114 41.3734 29.6156 41.0797 29.9246 40.2803H29.6644C29.518 40.6556 29.274 40.7208 28.9488 40.7208Z" fill="#AE9A64"/>
<path d="M33.893 35.7939C33.7304 35.6634 33.5352 35.6144 33.3075 35.6144C32.7708 35.6144 32.2667 36.0223 31.7625 36.8543V35.6144H30.6729V41.3245H31.7625V37.3601C32.104 36.7401 32.3968 36.4138 32.6407 36.4138C32.7058 36.4138 32.8521 36.4791 33.0636 36.6259C33.275 36.7728 33.4376 36.838 33.5677 36.838C33.7304 36.838 33.8767 36.7891 33.9906 36.6749C34.1044 36.5607 34.1532 36.4302 34.1532 36.2833C34.137 36.0876 34.0556 35.9244 33.893 35.7939Z" fill="#AE9A64"/>
<path d="M37.9263 39.8725L35.9422 35.6144H34.7062L37.3896 41.0961L36.9505 42.0586C36.674 42.6623 36.3813 42.9722 36.0398 42.9722C35.991 42.9722 35.8934 42.9396 35.7145 42.8744C35.4543 42.7928 35.2591 42.7438 35.1127 42.7438C34.6574 42.7438 34.4297 42.9233 34.4297 43.2985C34.4297 43.5106 34.5273 43.6738 34.7062 43.788C34.8851 43.9185 35.0965 43.9674 35.3242 43.9674C35.7633 43.9674 36.1861 43.788 36.5765 43.429C36.918 43.1354 37.1782 42.7602 37.3571 42.3197L40.3983 35.5655H39.8454L37.9263 39.8725Z" fill="#AE9A64"/>
<path d="M47.3102 35.6144C46.8061 35.6144 46.3344 35.7286 45.879 35.9734C45.4237 36.2181 45.0659 36.577 44.7894 37.0827C44.5129 37.5885 44.3828 38.0942 44.3828 38.6C44.3828 39.3015 44.6105 39.9215 45.0659 40.4925C45.6026 41.1614 46.3344 41.504 47.2452 41.504C47.7981 41.504 48.3023 41.3734 48.7577 41.1124C49.213 40.8514 49.5708 40.4598 49.8473 39.9541C50.1075 39.4646 50.2214 38.9589 50.2214 38.4532C50.2214 37.7353 49.9937 37.1154 49.522 36.577C48.9528 35.9244 48.221 35.6144 47.3102 35.6144ZM47.5216 41.0472C46.8711 41.0472 46.3669 40.6882 46.0254 39.9541C45.7652 39.3994 45.6351 38.7794 45.6351 38.0942C45.6351 37.5885 45.7001 37.1806 45.8465 36.8707C46.1067 36.2996 46.5296 36.006 47.1151 36.006C47.5867 36.006 47.977 36.2018 48.3023 36.5933C48.7739 37.1643 49.0016 37.9311 49.0016 38.91C48.9853 40.3293 48.4975 41.0472 47.5216 41.0472Z" fill="#AE9A64"/>
<path d="M56.0274 33.1346C55.6371 32.8573 55.2142 32.7267 54.7588 32.7267C54.2547 32.7267 53.8156 32.8409 53.409 33.0693C52.6121 33.5425 52.2217 34.0319 52.2217 35.125V35.5002H51.0508V35.9244H52.2217V39.8561C52.2217 40.2477 52.1892 40.525 52.1404 40.6556C52.0266 40.9492 51.7664 41.096 51.376 41.096H51.0996V41.3244H54.7263V41.096H54.1571C53.8806 41.096 53.6692 41.0145 53.5066 40.835C53.3765 40.7045 53.3114 40.3782 53.3114 39.8561V35.9244H54.8727V35.5002H53.3114V35.1087C53.3114 34.244 53.3439 33.9993 53.409 33.7872C53.5228 33.3793 53.7993 33.1835 54.2221 33.1835C54.5637 33.1835 54.8564 33.363 55.1166 33.7219C55.3768 34.0808 55.6371 34.2603 55.8648 34.2603C55.9949 34.2603 56.1087 34.2114 56.2225 34.0972C56.3364 33.983 56.4014 33.8688 56.4014 33.7546C56.4177 33.5098 56.2876 33.3141 56.0274 33.1346Z" fill="#AE9A64"/>
<path d="M71.8842 36.2343C71.4614 35.8102 70.8921 35.5981 70.1928 35.5981C69.2983 35.5981 68.5827 35.9081 68.0786 36.5117C67.6232 37.0501 67.3955 37.7516 67.3955 38.5999C67.3955 39.383 67.6232 40.0356 68.0786 40.574C68.5665 41.1613 69.217 41.4713 70.0464 41.4713C70.6807 41.4713 71.2499 41.2429 71.7053 40.8024C72.1444 40.3782 72.4209 39.8725 72.5347 39.2688L72.3071 39.1383C71.9493 40.0356 71.3638 40.4761 70.5669 40.4761C69.8513 40.4761 69.2821 40.1824 68.8917 39.6114C68.5339 39.1057 68.3713 38.5184 68.3713 37.8332H72.551C72.5022 37.1969 72.3071 36.6585 71.8842 36.2343ZM68.3225 37.5232C68.3713 37.1153 68.5177 36.789 68.7616 36.5117C69.0381 36.2017 69.3796 36.0549 69.8025 36.0549C70.3555 36.0549 70.7458 36.2996 70.9735 36.7727C71.0385 36.9196 71.0873 37.1643 71.1036 37.5232H68.3225Z" fill="#AE9A64"/>
<path d="M75.9175 35.4839C75.3808 35.4839 74.9092 35.5818 74.4864 35.7939C73.9659 36.0549 73.7057 36.4138 73.7057 36.8706C73.7057 37.2622 73.9009 37.4579 74.2749 37.4579C74.6653 37.4579 74.8604 37.2622 74.8442 36.8706L74.8279 36.528C74.8116 36.3159 74.9092 36.1528 75.1206 36.0223C75.2995 35.9081 75.511 35.8428 75.7386 35.8428C76.1778 35.8428 76.4705 35.9896 76.6494 36.2996C76.7795 36.5117 76.8445 36.8543 76.8445 37.3111V37.5395C75.8037 37.8821 75.0556 38.1758 74.6165 38.4205C73.8683 38.8283 73.478 39.3178 73.478 39.8888C73.478 40.2966 73.6081 40.6392 73.8684 40.9166C74.1286 41.1776 74.4701 41.3245 74.9092 41.3245C75.1857 41.3245 75.4296 41.2755 75.6573 41.1776C75.82 41.1124 76.2103 40.8513 76.8283 40.4272V41.3245H77.9179V37.409C77.9179 36.8706 77.8691 36.5117 77.7878 36.3322C77.5601 35.7612 76.9259 35.4839 75.9175 35.4839ZM76.8283 40.003C76.2916 40.4108 75.8525 40.6229 75.5109 40.6229C75.2345 40.6229 75.0068 40.525 74.8442 40.313C74.6815 40.1009 74.5839 39.8725 74.5839 39.5951C74.5839 39.122 74.8929 38.7305 75.5272 38.3879C75.7386 38.2737 76.1615 38.1105 76.812 37.8658V40.003H76.8283Z" fill="#AE9A64"/>
<path d="M83.9351 40.7208C83.5285 40.7208 83.3334 40.4108 83.3334 39.8072V36.2017H84.7483V35.7612H83.3334V33.934H83.1219C82.943 34.3419 82.7967 34.6355 82.6991 34.7824C82.2762 35.386 81.8046 35.7939 81.2842 35.9896V36.1854H82.2437V39.9051C82.2437 40.2966 82.2925 40.5903 82.3738 40.7861C82.569 41.1776 82.9105 41.3734 83.3984 41.3734C84.0977 41.3734 84.6019 40.9819 84.9109 40.1824H84.6507C84.5043 40.5577 84.2604 40.7208 83.9351 40.7208Z" fill="#AE9A64"/>
<path d="M89.5625 41.0634H90.6847C90.6847 41.0145 90.6847 40.9655 90.6847 40.9003V38.0942C90.6847 37.409 90.6522 36.9359 90.5708 36.6748C90.3432 35.957 89.8552 35.6144 89.1397 35.6144C88.7656 35.6144 88.3915 35.7449 88.0012 35.9896C87.7735 36.1365 87.4808 36.3975 87.123 36.7727V32.4494L86.0171 33.1183V40.9166C86.0171 40.9655 86.0171 41.0308 86.0171 41.0797H87.123C87.123 41.0308 87.123 40.9818 87.123 40.9166V37.148C87.6597 36.6096 88.1476 36.3485 88.603 36.3485C88.8144 36.3485 88.9933 36.3975 89.1397 36.4791C89.3511 36.6096 89.4812 36.8706 89.5462 37.2295C89.5625 37.36 89.5788 37.6537 89.5788 38.0942V40.9166C89.5788 40.9655 89.5625 41.0145 89.5625 41.0634Z" fill="#AE9A64"/>
<path d="M80.6337 37.1317V36.7564V32.4331L79.5278 33.102V40.9003C79.5278 40.9492 79.5278 41.0145 79.5278 41.0634H80.6337C80.6337 41.0145 80.6337 40.9655 80.6337 40.9003V37.1317Z" fill="#AE9A64"/>
<path d="M20.1831 37.1316V36.7564V35.2065L19.0771 35.8754V40.9003C19.0771 40.9492 19.0771 41.0145 19.0771 41.3897H20.1831C20.1831 40.9982 20.1831 40.9492 20.1831 40.9003V37.1316Z" fill="#AE9A64"/>
<path d="M10.8152 32.4984C10.6201 32.4984 10.4737 32.5636 10.3436 32.6778C10.2135 32.792 10.1484 32.9388 10.1484 33.102C10.1484 33.2814 10.2135 33.412 10.3436 33.5425C10.4737 33.6567 10.6363 33.7219 10.8152 33.7219C11.0104 33.7219 11.1568 33.6567 11.2869 33.5425C11.417 33.4283 11.482 33.2814 11.482 33.102C11.482 32.9225 11.417 32.792 11.2869 32.6778C11.1568 32.5636 11.0104 32.4984 10.8152 32.4984Z" fill="#AE9A64"/>
<path d="M11.3681 37.1316V36.7564V35.2065L10.2622 35.8754V40.9003C10.2622 40.9492 10.2622 41.0145 10.2622 41.3897H11.3681C11.3681 40.9982 11.3681 40.9492 11.3681 40.9003V37.1316Z" fill="#AE9A64"/>
<path d="M65.6877 34.0808C65.6877 33.934 65.6877 33.7872 65.704 33.673H64.4029C64.4029 33.7709 64.4029 33.9014 64.4029 34.0808V36.9032H60.5973V34.0808C60.5973 33.934 60.5973 33.7872 60.6136 33.673H59.3288C59.3288 33.7709 59.3288 33.9014 59.3288 34.0808V40.8187C59.3288 41.0145 59.3288 41.1613 59.3125 41.3081H60.6136C60.6136 41.1939 60.6136 41.0471 60.6136 40.8187V37.36H64.4029V40.835C64.4029 41.0145 64.3867 41.1776 64.3704 41.3244H65.6715C65.6552 41.2266 65.6552 41.0634 65.6552 40.835V34.0808H65.6877Z" fill="#AE9A64"/>
<path d="M16.1333 35.6144C15.4828 35.6144 14.816 36.006 14.1167 36.7728V35.6144H13.0107V41.3245H14.1167V37.148C14.6208 36.6259 15.1412 36.3486 15.6617 36.3486C16.2797 36.3486 16.6049 36.8217 16.6049 37.7843V41.3245H17.6946V37.6864C17.6946 37.1806 17.6458 36.8054 17.5645 36.577C17.2717 35.9407 16.8001 35.6144 16.1333 35.6144Z" fill="#AE9A64"/>
<path d="M4.39111 39.5299L1.52876 33.7219H0V41.3244H0.585482V34.4071L3.93574 41.3244H4.14716L7.49742 34.4071V41.3244H8.73344V33.7219H7.20468L4.39111 39.5299Z" fill="#AE9A64"/>
</svg>
