<svg width="205" height="44" viewBox="0 0 205 44" fill="none" xmlns="http://www.w3.org/2000/svg">
<circle cx="36.4838" cy="15.5161" r="15.5161" fill="#84E8F4"/>
<path fill-rule="evenodd" clip-rule="evenodd" d="M26 26.9547C29.0931 24.1183 31.0322 20.0437 31.0322 15.5161C31.0322 10.9886 29.0931 6.91399 26 4.07755C22.9069 6.91399 20.9677 10.9886 20.9677 15.5161C20.9677 20.0437 22.9069 24.1183 26 26.9547Z" fill="#51459E"/>
<circle opacity="0.9" cx="15.5161" cy="15.5161" r="15.5161" fill="#51459E"/>
<path d="M101.254 9.19531C100.355 9.19531 99.5938 9.95703 99.5938 10.8555V19.7227H83.5781C81.1953 19.7227 80.0039 17.8867 79.9844 16.168C79.9648 14.4297 81.1758 12.5156 83.5781 12.5156H83.793C83.2656 11.7344 82.8164 10.6602 82.6602 9.23438C78.5977 9.66406 76.6055 12.9258 76.6641 16.2461C76.7422 19.7422 79.0078 23.0234 83.5781 23.0234H102.914V9.19531H101.254ZM89.4766 29.2734L92.0742 31.8906L94.6914 29.2734L92.0742 26.6562L89.4766 29.2734ZM115.102 3.39453L117.289 5.5625L119.906 2.96484L117.289 0.347656L115.102 2.51562L112.914 0.347656L110.316 2.96484L112.914 5.5625L115.102 3.39453ZM102.895 19.7227V21.3633C102.895 22.2812 103.637 23.0234 104.555 23.0234H122.016V16.1094C122.016 12.5742 119.711 9.17578 115.082 9.17578C108.812 9.17578 106.762 15.5234 109.086 19.7227H102.895ZM115.082 19.7227C110.277 19.7227 110.277 12.4961 115.082 12.4961C117.484 12.4961 118.695 14.3711 118.695 16.1094V19.7227H115.082ZM127.875 23.0234H131.195V5.875H132.191C130.844 4.76172 129.203 3.14062 127.875 0.972656V23.0234ZM136.684 11.4414V24C136.684 25.5625 135.883 26.6172 134.848 27.1836C135.375 27.9258 136.059 29.0977 136.41 30.1719C138.461 29.1562 139.984 27.1055 139.984 24V9.78125L136.684 11.4414ZM146.703 19.7227H139.965V21.3633C139.965 22.2617 140.727 23.0234 141.625 23.0234H153.617C158.344 23.0234 160.629 19.5078 160.531 15.9141C160.453 12.4375 158.168 9.17578 153.617 9.17578C150.082 9.17578 146.703 11.4805 146.703 16.1094V19.7227ZM150.004 19.7227V16.1094C150.004 13.707 151.898 12.4961 153.617 12.4961C156.02 12.4961 157.23 14.3711 157.23 16.1094C157.23 17.8281 156.02 19.7227 153.617 19.7227H150.004Z" fill="#51459E"/>
</svg>
